<svg width="48" height="49" viewBox="0 0 48 49" fill="none" xmlns="http://www.w3.org/2000/svg">
<path d="M23.9314 48.3511C10.7353 48.3511 0 37.5734 0 24.3258C0 11.0753 10.7353 0.2948 23.9314 0.2948C37.1231 0.2948 47.8551 11.0753 47.8551 24.3258C47.8551 37.573 37.1231 48.3511 23.9314 48.3511ZM23.9314 1.69414C11.5039 1.69414 1.39402 11.8466 1.39402 24.3253C1.39402 36.8012 11.5044 46.9508 23.9314 46.9508C36.3546 46.9508 46.4611 36.8007 46.4611 24.3253C46.4616 11.8466 36.3546 1.69414 23.9314 1.69414Z" fill="#ACA2BB"/>
<path d="M26.166 36H24.4082V16.7812L18.6074 18.9346V17.2939L25.873 14.5986H26.166V36Z" fill="#02014A"/>
</svg>
