<svg width="48" height="49" viewBox="0 0 48 49" fill="none" xmlns="http://www.w3.org/2000/svg">
<path d="M23.9314 48.3831C10.7353 48.3831 0 37.6055 0 24.3579C0 11.1074 10.7353 0.326904 23.9314 0.326904C37.1231 0.326904 47.8551 11.1074 47.8551 24.3579C47.8551 37.605 37.1231 48.3831 23.9314 48.3831ZM23.9314 1.72624C11.5039 1.72624 1.39402 11.8787 1.39402 24.3574C1.39402 36.8332 11.5044 46.9828 23.9314 46.9828C36.3546 46.9828 46.4611 36.8327 46.4611 24.3574C46.4616 11.8787 36.3546 1.72624 23.9314 1.72624Z" fill="#ACA2BB"/>
<path d="M31.3662 37H18.0068V35.6523L25.3164 27.3613C26.5273 25.9648 27.3672 24.8125 27.8359 23.9043C28.3047 22.9961 28.5391 22.1123 28.5391 21.2529C28.5391 19.9053 28.1436 18.8408 27.3525 18.0596C26.5615 17.2686 25.4727 16.873 24.0859 16.873C22.6504 16.873 21.4883 17.332 20.5996 18.25C19.7207 19.168 19.2812 20.3594 19.2812 21.8242H17.5381C17.5381 20.623 17.8066 19.5293 18.3438 18.543C18.8906 17.5566 19.6621 16.7852 20.6582 16.2285C21.6641 15.6621 22.8066 15.3789 24.0859 15.3789C26.0391 15.3789 27.5625 15.8916 28.6562 16.917C29.7598 17.9424 30.3115 19.3389 30.3115 21.1064C30.3115 22.1025 29.999 23.1914 29.374 24.373C28.7588 25.5547 27.6699 27.0293 26.1074 28.7969L20.1602 35.5205H31.3662V37Z" fill="#02014A"/>
</svg>
