<svg width="48" height="49" viewBox="0 0 48 49" fill="none" xmlns="http://www.w3.org/2000/svg">
<path d="M23.9314 48.3381C10.7353 48.3381 0 37.5605 0 24.3129C0 11.0625 10.7353 0.281982 23.9314 0.281982C37.1231 0.281982 47.8551 11.0625 47.8551 24.3129C47.8551 37.5601 37.1231 48.3381 23.9314 48.3381ZM23.9314 1.68132C11.5039 1.68132 1.39402 11.8337 1.39402 24.3125C1.39402 36.7883 11.5044 46.9378 23.9314 46.9378C36.3546 46.9378 46.4611 36.7878 46.4611 24.3125C46.4616 11.8337 36.3546 1.68132 23.9314 1.68132Z" fill="#ACA2BB"/>
<path d="M21.9033 24.3838H23.7197C24.7256 24.3838 25.6045 24.208 26.3564 23.8564C27.1084 23.4951 27.6797 23.0068 28.0703 22.3916C28.4707 21.7666 28.6709 21.0488 28.6709 20.2383C28.6709 18.8711 28.2852 17.8018 27.5137 17.0303C26.7422 16.2588 25.6338 15.873 24.1885 15.873C22.8213 15.873 21.6982 16.2783 20.8193 17.0889C19.9502 17.8896 19.5156 18.9492 19.5156 20.2676H17.7578C17.7578 19.1641 18.0361 18.1582 18.5928 17.25C19.1494 16.332 19.9209 15.624 20.9072 15.126C21.8936 14.6279 22.9873 14.3789 24.1885 14.3789C26.1221 14.3789 27.6455 14.9062 28.7588 15.9609C29.8721 17.0156 30.4287 18.4609 30.4287 20.2969C30.4287 21.3223 30.1016 22.2695 29.4473 23.1387C28.8027 23.998 27.9141 24.6426 26.7812 25.0723C28.1094 25.4434 29.1152 26.083 29.7988 26.9912C30.4824 27.8896 30.8242 28.9639 30.8242 30.2139C30.8242 32.04 30.2285 33.5098 29.0371 34.623C27.8457 35.7363 26.2539 36.293 24.2617 36.293C22.9922 36.293 21.8252 36.0391 20.7607 35.5312C19.7061 35.0234 18.8857 34.3154 18.2998 33.4072C17.7236 32.4893 17.4355 31.4248 17.4355 30.2139H19.1934C19.1934 31.5713 19.667 32.6797 20.6143 33.5391C21.5615 34.3887 22.7773 34.8135 24.2617 34.8135C25.7754 34.8135 26.9521 34.4277 27.792 33.6562C28.6416 32.875 29.0664 31.7471 29.0664 30.2725C29.0664 28.8467 28.6074 27.7578 27.6895 27.0059C26.7812 26.2539 25.4385 25.8779 23.6611 25.8779H21.9033V24.3838Z" fill="#02014A"/>
</svg>
