<svg width="48" height="49" viewBox="0 0 48 49" fill="none" xmlns="http://www.w3.org/2000/svg">
<path d="M23.9314 48.2419C10.7353 48.2419 0 37.4643 0 24.2168C0 10.9663 10.7353 0.185791 23.9314 0.185791C37.1231 0.185791 47.8551 10.9663 47.8551 24.2168C47.8551 37.4639 37.1231 48.2419 23.9314 48.2419ZM23.9314 1.58513C11.5039 1.58513 1.39402 11.7375 1.39402 24.2163C1.39402 36.6921 11.5044 46.8416 23.9314 46.8416C36.3546 46.8416 46.4611 36.6916 46.4611 24.2163C46.4616 11.7375 36.3546 1.58513 23.9314 1.58513Z" fill="#ACA2BB"/>
<path d="M26.7734 28.1299H30.0986V29.6094H26.7734V35H25.0156V29.6094H14.9814V28.6133L24.8545 13.6719H26.7734V28.1299ZM17.1348 28.1299H25.0156V15.9424L24.2393 17.29L17.1348 28.1299Z" fill="#02014A"/>
</svg>
