<svg width="48" height="49" viewBox="0 0 48 49" fill="none" xmlns="http://www.w3.org/2000/svg">
<path d="M23.9314 48.3508C10.7353 48.3508 0 37.5733 0 24.3257C0 11.0753 10.7353 0.2948 23.9314 0.2948C37.1231 0.2948 47.8551 11.0753 47.8551 24.3257C47.8551 37.5728 37.1231 48.3508 23.9314 48.3508ZM23.9314 1.69414C11.5039 1.69414 1.39402 11.8465 1.39402 24.3252C1.39402 36.801 11.5044 46.9505 23.9314 46.9505C36.3546 46.9505 46.4611 36.8005 46.4611 24.3252C46.4616 11.8465 36.3546 1.69414 23.9314 1.69414Z" fill="#ACA2BB"/>
<path d="M19.1934 25.0723L20.2334 14.6719H30.8975V16.2979H21.7422L20.9951 23.5049C22.1377 22.7236 23.4756 22.333 25.0088 22.333C26.9326 22.333 28.4658 22.958 29.6084 24.208C30.751 25.458 31.3223 27.123 31.3223 29.2031C31.3223 31.4492 30.7656 33.1924 29.6523 34.4326C28.5391 35.6729 26.9717 36.293 24.9502 36.293C23.0947 36.293 21.5908 35.7754 20.4385 34.7402C19.2861 33.7051 18.627 32.2549 18.4609 30.3896H20.1455C20.3115 31.8447 20.8047 32.9482 21.625 33.7002C22.4453 34.4424 23.5537 34.8135 24.9502 34.8135C26.4736 34.8135 27.6211 34.3301 28.3926 33.3633C29.1738 32.3965 29.5645 31.0195 29.5645 29.2324C29.5645 27.6699 29.1299 26.3955 28.2607 25.4092C27.3916 24.4229 26.2051 23.9297 24.7012 23.9297C23.8711 23.9297 23.1484 24.0371 22.5332 24.252C21.918 24.457 21.2686 24.8623 20.585 25.4678L19.1934 25.0723Z" fill="#02014A"/>
</svg>
