<svg width="48" height="49" viewBox="0 0 48 49" fill="none" xmlns="http://www.w3.org/2000/svg">
<path d="M23.9314 48.3894C10.7353 48.3894 0 37.6118 0 24.3642C0 11.1137 10.7353 0.333252 23.9314 0.333252C37.1231 0.333252 47.8551 11.1137 47.8551 24.3642C47.8551 37.6113 37.1231 48.3894 23.9314 48.3894ZM23.9314 1.73259C11.5039 1.73259 1.39402 11.885 1.39402 24.3637C1.39402 36.8396 11.5044 46.9891 23.9314 46.9891C36.3546 46.9891 46.4611 36.8391 46.4611 24.3637C46.4616 11.885 36.3546 1.73259 23.9314 1.73259Z" fill="#ACA2BB"/>
<path d="M28.3486 14.5107V16.0488H28.1436C25.5947 16.0488 23.5879 16.8008 22.123 18.3047C20.6582 19.7988 19.8477 21.8789 19.6914 24.5449C20.2773 23.7344 21.0244 23.1094 21.9326 22.6699C22.8408 22.2207 23.8564 21.9961 24.9795 21.9961C26.8545 21.9961 28.3438 22.6455 29.4473 23.9443C30.5605 25.2334 31.1172 26.9229 31.1172 29.0127C31.1172 30.3994 30.8584 31.6494 30.3408 32.7627C29.8232 33.876 29.0811 34.7451 28.1143 35.3701C27.1475 35.9854 26.0439 36.293 24.8037 36.293C22.7627 36.293 21.1025 35.5557 19.8232 34.0811C18.5439 32.5967 17.9043 30.6826 17.9043 28.3389V26.5811C17.9043 22.7627 18.7734 19.8086 20.5117 17.7188C22.25 15.6191 24.7158 14.5498 27.9092 14.5107H28.3486ZM24.7012 23.5049C23.5879 23.5049 22.5479 23.8369 21.5811 24.501C20.624 25.1553 19.9844 25.9902 19.6621 27.0059V28.5C19.6621 30.3555 20.1357 31.8691 21.083 33.041C22.04 34.2129 23.2803 34.7988 24.8037 34.7988C26.1709 34.7988 27.2744 34.2568 28.1143 33.1729C28.9639 32.0889 29.3887 30.7217 29.3887 29.0713C29.3887 27.3916 28.9639 26.0439 28.1143 25.0283C27.2744 24.0127 26.1367 23.5049 24.7012 23.5049Z" fill="#02014A"/>
</svg>
