<svg width="48" height="49" viewBox="0 0 48 49" fill="none" xmlns="http://www.w3.org/2000/svg">
<path d="M23.9314 48.3572C10.7353 48.3572 0 37.5796 0 24.3321C0 11.0817 10.7353 0.30127 23.9314 0.30127C37.1231 0.30127 47.8551 11.0817 47.8551 24.3321C47.8551 37.5791 37.1231 48.3572 23.9314 48.3572ZM23.9314 1.7006C11.5039 1.7006 1.39402 11.853 1.39402 24.3316C1.39402 36.8074 11.5044 46.9569 23.9314 46.9569C36.3546 46.9569 46.4611 36.8069 46.4611 24.3316C46.4616 11.853 36.3546 1.7006 23.9314 1.7006Z" fill="#ACA2BB"/>
<path d="M31.1465 15.6826L22.0352 36H20.2041L29.2568 16.166H17.1279V14.6719H31.1465V15.6826Z" fill="#02014A"/>
</svg>
