<svg width="48" height="49" viewBox="0 0 48 49" fill="none" xmlns="http://www.w3.org/2000/svg">
<path d="M23.9314 48.2421C10.7353 48.2421 0 37.4644 0 24.2168C0 10.9663 10.7353 0.185791 23.9314 0.185791C37.1231 0.185791 47.8551 10.9663 47.8551 24.2168C47.8551 37.464 37.1231 48.2421 23.9314 48.2421ZM23.9314 1.58513C11.5039 1.58513 1.39402 11.7376 1.39402 24.2163C1.39402 36.6922 11.5044 46.8418 23.9314 46.8418C36.3546 46.8418 46.4611 36.6917 46.4611 24.2163C46.4616 11.7376 36.3546 1.58513 23.9314 1.58513Z" fill="#ACA2BB"/>
<path d="M30.5752 20.165C30.5752 21.2686 30.2529 22.2598 29.6084 23.1387C28.9639 24.0078 28.1143 24.6475 27.0596 25.0576C28.29 25.4775 29.2764 26.1562 30.0186 27.0938C30.7607 28.0312 31.1318 29.1152 31.1318 30.3457C31.1318 32.1719 30.5117 33.6221 29.2715 34.6963C28.0312 35.7607 26.3906 36.293 24.3496 36.293C22.2891 36.293 20.6387 35.7607 19.3984 34.6963C18.168 33.6318 17.5527 32.1816 17.5527 30.3457C17.5527 29.1348 17.9092 28.0557 18.6221 27.1084C19.335 26.1611 20.3115 25.4775 21.5518 25.0576C20.4971 24.6475 19.6572 24.0078 19.0322 23.1387C18.4072 22.2598 18.0947 21.2686 18.0947 20.165C18.0947 18.3975 18.6611 16.9912 19.7939 15.9463C20.9365 14.9014 22.4453 14.3789 24.3203 14.3789C26.1953 14.3789 27.7041 14.9062 28.8467 15.9609C29.999 17.0156 30.5752 18.417 30.5752 20.165ZM29.374 30.3604C29.374 29.0322 28.9004 27.9434 27.9531 27.0938C27.0059 26.2344 25.7949 25.8047 24.3203 25.8047C22.8457 25.8047 21.6396 26.2246 20.7021 27.0645C19.7646 27.9043 19.2959 29.0029 19.2959 30.3604C19.2959 31.7178 19.75 32.8018 20.6582 33.6123C21.5664 34.4131 22.7969 34.8135 24.3496 34.8135C25.8633 34.8135 27.0791 34.4131 27.9971 33.6123C28.915 32.8115 29.374 31.7275 29.374 30.3604ZM28.8174 20.1504C28.8174 18.9297 28.3926 17.9141 27.543 17.1035C26.7031 16.2832 25.6289 15.873 24.3203 15.873C22.9922 15.873 21.9131 16.2686 21.083 17.0596C20.2627 17.8408 19.8525 18.8711 19.8525 20.1504C19.8525 21.4004 20.2627 22.4062 21.083 23.168C21.9131 23.9297 22.9971 24.3105 24.335 24.3105C25.6533 24.3105 26.7275 23.9297 27.5576 23.168C28.3975 22.3965 28.8174 21.3906 28.8174 20.1504Z" fill="#02014A"/>
</svg>
