<svg width="24" height="24" viewBox="0 0 24 24" fill="none" xmlns="http://www.w3.org/2000/svg">
<g id="Iconly/Light/Add User">
<g id="Add User">
<path id="Stroke 1" fill-rule="evenodd" clip-rule="evenodd" d="M9.877 15.2063C6.033 15.2063 2.75 15.7873 2.75 18.1153C2.75 20.4433 6.013 21.0453 9.877 21.0453C13.722 21.0453 17.004 20.4633 17.004 18.1363C17.004 15.8093 13.742 15.2063 9.877 15.2063Z" stroke="#02014A" stroke-width="1.5" stroke-linecap="round" stroke-linejoin="round"/>
<path id="Stroke 3" fill-rule="evenodd" clip-rule="evenodd" d="M9.87758 11.886C12.4006 11.886 14.4456 9.841 14.4456 7.318C14.4456 4.795 12.4006 2.75 9.87758 2.75C7.35558 2.75 5.31058 4.795 5.31058 7.318C5.30158 9.832 7.33158 11.877 9.84658 11.886H9.87758Z" stroke="#02014A" stroke-width="1.5" stroke-linecap="round" stroke-linejoin="round"/>
<path id="Stroke 5" d="M19.2031 8.66919V12.6792" stroke="#02014A" stroke-width="1.5" stroke-linecap="round" stroke-linejoin="round"/>
<path id="Stroke 7" d="M21.2502 10.6741H17.1602" stroke="#02014A" stroke-width="1.5" stroke-linecap="round" stroke-linejoin="round"/>
</g>
</g>
</svg>
