<svg width="360" height="348" viewBox="0 0 360 348" fill="none" xmlns="http://www.w3.org/2000/svg">
<g clip-path="url(#clip0)">
<path d="M328.441 347.653V312.754C328.441 312.754 342.046 337.496 328.441 347.653Z" fill="#F1F1F1"/>
<path d="M329.281 347.647L303.564 324.045C303.564 324.045 330.996 330.759 329.281 347.647Z" fill="#F1F1F1"/>
<path d="M238.578 153.988L102.113 233.723C101.635 234.001 101.067 234.079 100.532 233.939C99.9973 233.799 99.54 233.452 99.2605 232.975L11.5048 82.8717C11.2264 82.3942 11.1488 81.8258 11.289 81.2912C11.4292 80.7566 11.7759 80.2994 12.2529 80.02L148.718 0.284447C149.195 0.00610484 149.764 -0.0714726 150.299 0.0687334C150.833 0.208939 151.291 0.55548 151.57 1.03233L239.326 151.136C239.604 151.613 239.682 152.182 239.542 152.716C239.401 153.251 239.055 153.708 238.578 153.988Z" fill="white"/>
<path d="M238.578 153.988L102.113 233.723C101.635 234.001 101.067 234.079 100.532 233.939C99.9973 233.799 99.54 233.452 99.2605 232.975L11.5048 82.8717C11.2264 82.3942 11.1488 81.8258 11.289 81.2912C11.4292 80.7566 11.7759 80.2994 12.2529 80.02L148.718 0.284447C149.195 0.00610484 149.764 -0.0714726 150.299 0.0687334C150.833 0.208939 151.291 0.55548 151.57 1.03233L239.326 151.136C239.604 151.613 239.682 152.182 239.542 152.716C239.401 153.251 239.055 153.708 238.578 153.988ZM12.6738 80.7399C12.3876 80.9075 12.1796 81.1819 12.0954 81.5026C12.0113 81.8234 12.0578 82.1645 12.2249 82.4509L99.9806 232.554C100.148 232.841 100.423 233.049 100.744 233.133C101.064 233.217 101.406 233.17 101.692 233.003L238.157 153.268C238.443 153.1 238.651 152.826 238.735 152.505C238.819 152.184 238.773 151.843 238.606 151.557L150.85 1.45308C150.682 1.16695 150.408 0.959014 150.087 0.874889C149.766 0.790764 149.425 0.837319 149.138 1.00434L12.6738 80.7399Z" fill="#3F3D56"/>
<path d="M100.395 95.6881L66.5493 115.464C66.0717 115.743 65.5031 115.82 64.9684 115.68C64.4336 115.54 63.9763 115.193 63.6968 114.716L43.9149 80.88C43.6365 80.4025 43.5589 79.8341 43.6992 79.2995C43.8394 78.7649 44.186 78.3077 44.663 78.0283L78.5092 58.2522C78.9868 57.9738 79.5553 57.8963 80.0901 58.0365C80.6249 58.1767 81.0822 58.5232 81.3617 59.0001L101.144 92.8364C101.422 93.3138 101.5 93.8823 101.359 94.4169C101.219 94.9515 100.872 95.4086 100.395 95.6881V95.6881ZM45.0839 78.7482C44.7977 78.9159 44.5897 79.1902 44.5056 79.5109C44.4214 79.8317 44.468 80.1728 44.6351 80.4592L64.4169 114.296C64.5846 114.582 64.859 114.79 65.1799 114.874C65.5007 114.958 65.8419 114.911 66.1285 114.744L99.9746 94.9682C100.261 94.8005 100.469 94.5262 100.553 94.2054C100.637 93.8847 100.591 93.5436 100.423 93.2571L80.6416 59.4208C80.4739 59.1347 80.1995 58.9268 79.8786 58.8427C79.5578 58.7585 79.2166 58.8051 78.9301 58.9721L45.0839 78.7482Z" fill="#F2F2F2"/>
<path d="M93.0935 105.508L59.2474 125.284C58.8175 125.535 58.3058 125.604 57.8245 125.478C57.3432 125.352 56.9317 125.04 56.6801 124.611L36.8982 90.7747C36.6477 90.345 36.5778 89.8334 36.704 89.3522C36.8303 88.8711 37.1422 88.4596 37.5715 88.2081L71.4177 68.432C71.8475 68.1815 72.3592 68.1117 72.8405 68.2379C73.3218 68.3641 73.7334 68.676 73.985 69.1051L93.7668 102.941C94.0174 103.371 94.0873 103.883 93.961 104.364C93.8348 104.845 93.5228 105.256 93.0935 105.508V105.508Z" fill="#6E17F2"/>
<path d="M174.786 79.9893L68.9273 141.842C68.4975 142.093 67.9856 142.163 67.5042 142.037C67.0227 141.911 66.6111 141.599 66.36 141.169C66.1088 140.74 66.0386 140.228 66.1649 139.746C66.2912 139.265 66.6035 138.854 67.0333 138.603L172.892 76.7497C173.105 76.6254 173.34 76.5442 173.585 76.5107C173.829 76.4772 174.077 76.4922 174.316 76.5547C174.554 76.6172 174.778 76.726 174.974 76.875C175.17 77.0239 175.335 77.2101 175.46 77.4228C175.584 77.6355 175.665 77.8706 175.699 78.1147C175.732 78.3588 175.717 78.6071 175.655 78.8455C175.592 79.0838 175.483 79.3075 175.334 79.5037C175.185 79.7 174.999 79.865 174.786 79.9893V79.9893Z" fill="#CCCCCC"/>
<path d="M155.745 106.085L75.4507 153.001C75.2379 153.125 75.0027 153.207 74.7586 153.24C74.5144 153.274 74.266 153.259 74.0276 153.196C73.5462 153.07 73.1346 152.758 72.8834 152.328C72.6322 151.898 72.5621 151.387 72.6883 150.905C72.8146 150.424 73.127 150.013 73.5567 149.761L153.851 102.846C154.064 102.721 154.299 102.64 154.543 102.607C154.788 102.573 155.036 102.588 155.274 102.651C155.513 102.713 155.736 102.822 155.933 102.971C156.129 103.12 156.294 103.306 156.419 103.519C156.543 103.732 156.624 103.967 156.658 104.211C156.691 104.455 156.676 104.703 156.614 104.942C156.551 105.18 156.442 105.404 156.293 105.6C156.144 105.796 155.958 105.961 155.745 106.085V106.085Z" fill="#CCCCCC"/>
<path d="M150.435 39.1642L103.626 66.5141C103.197 66.7652 102.685 66.8354 102.203 66.7091C101.722 66.5829 101.31 66.2706 101.059 65.841C100.808 65.4114 100.738 64.8997 100.864 64.4184C100.99 63.937 101.303 63.5256 101.732 63.2745L148.541 35.9246C148.971 35.6735 149.483 35.6033 149.964 35.7296C150.202 35.7921 150.426 35.9009 150.622 36.0498C150.819 36.1988 150.984 36.3849 151.108 36.5977C151.233 36.8104 151.314 37.0455 151.347 37.2896C151.381 37.5337 151.366 37.782 151.303 38.0203C151.241 38.2587 151.132 38.4823 150.983 38.6786C150.834 38.8749 150.648 39.0399 150.435 39.1642Z" fill="#CCCCCC"/>
<path d="M145.277 57.1487L110.15 77.673C109.937 77.7973 109.702 77.8786 109.458 77.912C109.214 77.9455 108.965 77.9305 108.727 77.868C108.488 77.8055 108.265 77.6967 108.068 77.5477C107.872 77.3988 107.707 77.2126 107.583 76.9999C107.458 76.7872 107.377 76.5521 107.344 76.308C107.31 76.0639 107.325 75.8156 107.388 75.5772C107.45 75.3389 107.559 75.1152 107.708 74.919C107.857 74.7227 108.043 74.5577 108.256 74.4334L143.383 53.9091C143.812 53.658 144.324 53.5878 144.806 53.7141C145.287 53.8403 145.699 54.1525 145.95 54.5822C146.201 55.0118 146.271 55.5235 146.145 56.0048C146.019 56.4862 145.706 56.8976 145.277 57.1487Z" fill="#CCCCCC"/>
<path d="M187.833 102.307L81.9741 164.16C81.5444 164.411 81.0325 164.481 80.5511 164.355C80.0696 164.229 79.658 163.916 79.4068 163.487C79.1557 163.057 79.0855 162.545 79.2118 162.064C79.3381 161.583 79.6504 161.171 80.0801 160.92L185.939 99.0673C186.369 98.8162 186.881 98.746 187.362 98.8723C187.844 98.9985 188.255 99.3108 188.507 99.7404C188.758 100.17 188.828 100.682 188.702 101.163C188.575 101.644 188.263 102.056 187.833 102.307V102.307Z" fill="#CCCCCC"/>
<path d="M168.794 128.403L88.4995 175.319C88.2867 175.443 88.0516 175.524 87.8074 175.558C87.5632 175.591 87.3148 175.576 87.0764 175.514C86.838 175.451 86.6143 175.342 86.418 175.193C86.2216 175.044 86.0566 174.858 85.9322 174.646C85.8079 174.433 85.7266 174.198 85.6932 173.954C85.6597 173.709 85.6747 173.461 85.7372 173.223C85.7997 172.985 85.9086 172.761 86.0576 172.565C86.2065 172.368 86.3927 172.203 86.6055 172.079L166.9 125.163C167.113 125.039 167.348 124.958 167.592 124.924C167.836 124.891 168.085 124.906 168.323 124.968C168.562 125.031 168.785 125.14 168.982 125.289C169.178 125.438 169.343 125.624 169.467 125.836C169.592 126.049 169.673 126.284 169.706 126.528C169.74 126.772 169.725 127.021 169.662 127.259C169.6 127.497 169.491 127.721 169.342 127.917C169.193 128.114 169.007 128.279 168.794 128.403V128.403Z" fill="#CCCCCC"/>
<path d="M200.882 124.624L95.023 186.477C94.8102 186.602 94.575 186.683 94.3308 186.716C94.0866 186.75 93.8383 186.735 93.5999 186.672C93.3615 186.61 93.1377 186.501 92.9414 186.352C92.7451 186.203 92.58 186.017 92.4557 185.804C92.3313 185.592 92.2501 185.356 92.2166 185.112C92.1831 184.868 92.1981 184.62 92.2606 184.382C92.3231 184.143 92.432 183.92 92.581 183.723C92.73 183.527 92.9162 183.362 93.129 183.238L198.988 121.385C199.201 121.26 199.436 121.179 199.68 121.146C199.924 121.112 200.173 121.127 200.411 121.19C200.65 121.252 200.873 121.361 201.07 121.51C201.266 121.659 201.431 121.845 201.555 122.058C201.68 122.271 201.761 122.506 201.794 122.75C201.828 122.994 201.813 123.242 201.75 123.481C201.688 123.719 201.579 123.943 201.43 124.139C201.281 124.335 201.095 124.5 200.882 124.624V124.624Z" fill="#CCCCCC"/>
<path d="M207.406 135.783L101.546 197.636C101.334 197.76 101.098 197.842 100.854 197.875C100.61 197.909 100.362 197.894 100.123 197.831C99.8849 197.769 99.6612 197.66 99.4648 197.511C99.2685 197.362 99.1035 197.176 98.9791 196.963C98.8547 196.75 98.7735 196.515 98.74 196.271C98.7066 196.027 98.7215 195.779 98.784 195.54C98.8466 195.302 98.9554 195.078 99.1044 194.882C99.2534 194.686 99.4396 194.521 99.6524 194.397L205.512 132.544C205.724 132.419 205.96 132.338 206.204 132.305C206.448 132.271 206.696 132.286 206.935 132.349C207.173 132.411 207.397 132.52 207.593 132.669C207.789 132.818 207.954 133.004 208.079 133.217C208.203 133.429 208.284 133.665 208.318 133.909C208.351 134.153 208.336 134.401 208.274 134.639C208.211 134.878 208.103 135.101 207.954 135.298C207.805 135.494 207.618 135.659 207.406 135.783V135.783Z" fill="#CCCCCC"/>
<path d="M173.173 179.223C174.644 177.492 175.968 175.641 177.131 173.689C178.174 171.929 179.198 170.047 179.428 167.982C179.545 167.103 179.454 166.209 179.16 165.372C178.867 164.535 178.38 163.779 177.739 163.165C177.12 162.594 176.335 162.235 175.498 162.14C174.661 162.045 173.816 162.219 173.084 162.636C172.344 163.061 171.732 163.678 171.314 164.422C170.896 165.166 170.687 166.009 170.709 166.862C170.769 167.801 171.04 168.715 171.503 169.535C171.965 170.355 172.607 171.059 173.38 171.597C176.509 173.863 181.396 173.745 184.731 172.02C188.487 170.077 190.428 164.995 187.477 161.516C186.863 160.792 185.841 161.601 185.995 162.382C186.19 163.436 186.78 164.376 187.646 165.01C188.511 165.644 189.585 165.924 190.65 165.792C191.714 165.661 192.688 165.128 193.373 164.302C194.057 163.477 194.401 162.421 194.333 161.351L193.007 162.127C194.633 162.847 196.421 163.126 198.19 162.936C199.958 162.747 201.646 162.095 203.083 161.046C203.793 160.53 204.428 159.917 204.968 159.224C205.617 158.377 206.708 157.83 207.592 157.22L213.957 152.823C214.893 152.176 214.003 150.635 213.059 151.287L207.294 155.269C206.333 155.933 205.366 156.588 204.412 157.26C203.729 157.741 203.309 158.516 202.688 159.087C201.512 160.144 200.06 160.845 198.5 161.109C196.941 161.373 195.339 161.188 193.88 160.576C193.744 160.503 193.592 160.466 193.438 160.469C193.284 160.472 193.133 160.514 193 160.592C192.866 160.67 192.755 160.78 192.677 160.913C192.599 161.046 192.557 161.197 192.554 161.351C192.624 161.99 192.439 162.63 192.039 163.133C191.639 163.636 191.057 163.961 190.419 164.036C189.781 164.112 189.138 163.932 188.632 163.537C188.126 163.141 187.796 162.562 187.715 161.924L186.234 162.79C188.138 165.034 186.87 168.476 184.677 169.982C182.224 171.667 178.599 171.959 175.835 170.912C175.156 170.679 174.534 170.308 174.005 169.823C173.477 169.339 173.054 168.75 172.763 168.095C172.493 167.502 172.417 166.841 172.543 166.203C172.67 165.564 172.993 164.982 173.469 164.538C173.88 164.131 174.434 163.9 175.013 163.894C175.591 163.888 176.15 164.107 176.57 164.504C177.028 164.972 177.364 165.544 177.548 166.172C177.732 166.799 177.76 167.463 177.627 168.103C177.342 169.885 176.356 171.529 175.44 173.051C174.393 174.786 173.209 176.434 171.899 177.981C171.165 178.849 172.431 180.101 173.173 179.223L173.173 179.223Z" fill="#6E17F2"/>
<path d="M188.973 221.523C189.126 221.681 189.267 221.851 189.393 222.03L209.106 221.548L211.405 217.347L218.201 219.988L214.853 227.821C214.582 228.453 214.114 228.981 213.518 229.325C212.921 229.669 212.23 229.811 211.546 229.728L189.275 227.038C188.75 227.703 188.034 228.193 187.224 228.441C186.414 228.69 185.547 228.686 184.739 228.43C183.931 228.174 183.22 227.678 182.701 227.008C182.182 226.338 181.879 225.527 181.832 224.681C181.786 223.835 181.998 222.994 182.441 222.272C182.884 221.55 183.536 220.979 184.312 220.636C185.087 220.294 185.948 220.195 186.78 220.353C187.613 220.512 188.378 220.92 188.973 221.523V221.523Z" fill="#FFB7B7"/>
<path d="M253.233 341.204H246.752L243.668 316.21L253.234 316.211L253.233 341.204Z" fill="#FFB7B7"/>
<path d="M254.886 347.485L233.986 347.484V347.22C233.986 345.063 234.844 342.995 236.369 341.47C237.895 339.945 239.964 339.088 242.121 339.088H242.121L254.886 339.089L254.886 347.485Z" fill="#2F2E41"/>
<path d="M194.376 341.06L188.416 338.514L195.401 314.319L204.198 318.076L194.376 341.06Z" fill="#FFB7B7"/>
<path d="M193.43 347.485L174.211 339.277L174.315 339.034C175.162 337.051 176.763 335.485 178.765 334.682C180.768 333.878 183.007 333.903 184.991 334.75L184.991 334.75L196.73 339.764L193.43 347.485Z" fill="#2F2E41"/>
<path d="M221.727 226.938L221.258 234.531L234.959 235.996L249.294 237.53L245.074 226L221.727 226.938Z" fill="#FFB7B7"/>
<path d="M220.826 234.628L215.504 197.535L224.729 194.513L227.439 190.798L240.624 191.578L242.56 195.913L249.59 199.234L248.51 219.294L249.298 236.075L220.826 234.628Z" fill="#2F2E41"/>
<path d="M217.477 224.688L208.094 220.935L208.134 220.768C208.174 220.6 212.168 203.915 212.698 201.234C213.25 198.441 215.269 197.669 215.354 197.637L215.417 197.614L219.13 198.744L220.761 211.555L217.477 224.688Z" fill="#2F2E41"/>
<path d="M199.204 336.667L186.713 334.106L206.677 279.034L213.509 260.25C213.509 260.25 217.843 245.189 219.801 239.361L220.983 231.54L248.953 234.635C248.953 234.635 256.766 246.105 254.392 264.8L255.466 335.066L242.975 335.707L232.512 264.839L214.15 303.688C214.15 303.688 208.362 320.267 204.221 323.86L199.204 336.667Z" fill="#2F2E41"/>
<path d="M237.736 237.244C237.956 237.238 238.176 237.251 238.394 237.28L251.443 222.501L249.925 217.959L256.483 214.773L259.951 222.553C260.232 223.181 260.3 223.884 260.147 224.555C259.994 225.226 259.628 225.829 259.102 226.274L241.987 240.772C242.118 241.609 241.99 242.466 241.621 243.229C241.253 243.992 240.66 244.625 239.923 245.043C239.186 245.461 238.339 245.645 237.495 245.57C236.651 245.496 235.849 245.166 235.197 244.625C234.545 244.083 234.073 243.356 233.844 242.541C233.616 241.725 233.641 240.859 233.916 240.057C234.192 239.256 234.705 238.558 235.387 238.055C236.07 237.553 236.889 237.269 237.736 237.244V237.244Z" fill="#FFB7B7"/>
<path d="M250.402 223.939L244.959 211.139L247.082 202.223L249.369 199.334C249.537 199.262 249.718 199.226 249.9 199.228C250.082 199.23 250.262 199.269 250.428 199.344C251.272 199.683 251.99 200.724 252.563 202.436L257.665 216.962L250.402 223.939Z" fill="#2F2E41"/>
<path d="M222.162 186.055V176.404C222.162 172.975 223.525 169.686 225.951 167.261C228.377 164.836 231.667 163.473 235.097 163.473C238.528 163.473 241.818 164.836 244.244 167.261C246.669 169.686 248.032 172.975 248.032 176.404V186.055C248.032 186.515 247.848 186.957 247.523 187.282C247.197 187.608 246.755 187.791 246.295 187.792H223.9C223.439 187.791 222.997 187.608 222.672 187.282C222.346 186.957 222.163 186.515 222.162 186.055V186.055Z" fill="#2F2E41"/>
<path d="M232.439 187.567C237.676 187.567 241.922 183.322 241.922 178.086C241.922 172.85 237.676 168.606 232.439 168.606C227.201 168.606 222.955 172.85 222.955 178.086C222.955 183.322 227.201 187.567 232.439 187.567Z" fill="#FFB7B7"/>
<path d="M219.102 177.176C219.105 174.464 220.184 171.864 222.102 169.947C224.02 168.029 226.621 166.95 229.334 166.947H231.264C233.977 166.95 236.578 168.029 238.496 169.947C240.415 171.864 241.494 174.464 241.497 177.176V177.369H237.417L236.025 173.474L235.747 177.369H233.638L232.936 175.404L232.796 177.369H219.102L219.102 177.176Z" fill="#2F2E41"/>
<path d="M231.505 188.877C231.313 188.618 231.199 188.309 231.175 187.988C231.151 187.667 231.218 187.345 231.369 187.06C233.415 183.17 236.279 175.981 232.477 171.548L232.204 171.23H243.242V187.797L233.214 189.566C233.113 189.584 233.01 189.593 232.907 189.593C232.633 189.593 232.363 189.528 232.12 189.404C231.876 189.279 231.665 189.099 231.505 188.877V188.877Z" fill="#2F2E41"/>
<path d="M102.742 335.745L108.6 337.837L119.462 316.246L110.817 313.158L102.742 335.745Z" fill="#9F616A"/>
<path d="M99.2188 340.888L101.932 333.299L113.467 337.421C115.416 338.119 117.007 339.562 117.893 341.432C118.779 343.302 118.886 345.447 118.192 347.397L118.106 347.635L99.2188 340.888Z" fill="#2F2E41"/>
<path d="M140.833 341.537L147.053 341.536L150.013 317.55L140.832 317.551L140.833 341.537Z" fill="#9F616A"/>
<path d="M139.246 339.506L151.496 339.506H151.497C152.522 339.506 153.537 339.708 154.484 340.1C155.432 340.492 156.292 341.067 157.017 341.792C157.742 342.516 158.317 343.377 158.71 344.324C159.102 345.271 159.304 346.286 159.304 347.31V347.564L139.246 347.565L139.246 339.506Z" fill="#2F2E41"/>
<path d="M126.656 188.294L129.362 182.95C129.362 182.95 139.44 185.474 140.356 191.313L126.656 188.294Z" fill="#F1F1F1"/>
<path d="M115.492 249.399L122.849 290.441L103.314 324.978L114.985 329.543L134.773 296.065L137.31 286.935L138.832 334.615L149.357 334.296L154.182 289.774L146.443 248.384L115.492 249.399Z" fill="#2F2E41"/>
<path d="M129.459 259.101C118.651 259.101 111.789 257.035 111.636 257.002L111.387 256.949L117.016 230.856L117.27 206.788C117.27 196.588 123.984 189.069 124.916 188.375C125.073 187.756 125.363 187.178 125.766 186.683C126.17 186.188 126.676 185.786 127.251 185.507C129.49 184.491 132.227 185.71 132.343 185.762L140.558 188.842L140.596 188.956C140.695 189.247 151.515 224.759 151.515 224.759C151.515 224.759 150.861 255.786 150.632 256.803C150.632 256.803 135.465 259.101 129.459 259.101Z" fill="#3F3D56"/>
<path d="M137.763 181.267C143.895 181.267 148.866 176.298 148.866 170.167C148.866 164.037 143.895 159.067 137.763 159.067C131.631 159.067 126.66 164.037 126.66 170.167C126.66 176.298 131.631 181.267 137.763 181.267Z" fill="#9F616A"/>
<path opacity="0.2" d="M125.385 208.756L144.81 235.851L147.678 223.198L125.385 208.756Z" fill="black"/>
<path d="M186.284 227.192C185.738 227.624 185.103 227.931 184.425 228.091C183.747 228.251 183.043 228.261 182.361 228.12C181.678 227.979 181.036 227.689 180.477 227.273C179.919 226.856 179.459 226.322 179.13 225.709L162.41 228.384L166.032 220.368L181.354 219.056C182.422 218.571 183.631 218.494 184.751 218.841C185.871 219.187 186.826 219.932 187.434 220.935C188.041 221.938 188.26 223.128 188.048 224.282C187.836 225.435 187.208 226.47 186.284 227.192H186.284Z" fill="#9F616A"/>
<path d="M166.895 219.911L172.902 219.322L174.567 227.7L167.007 227.834L166.895 219.911Z" fill="#F1F1F1"/>
<path d="M171.819 230.62L142.396 228.001L127.54 204.38L127.494 204.172C127.072 202.242 127.368 200.225 128.325 198.497C129.282 196.769 130.835 195.449 132.695 194.782C134.554 194.115 136.593 194.148 138.43 194.874C140.268 195.6 141.778 196.969 142.679 198.727L151.4 215.733L169.001 218.393L171.819 230.62Z" fill="#3F3D56"/>
<path d="M128.307 179.805L137.522 180.135C138.084 180.155 139.609 174.095 139.808 172.837C139.966 172.019 140.416 171.286 141.075 170.775C141.734 170.264 142.556 170.011 143.389 170.062C144.079 170.127 145.818 168.838 147.613 167.313C151.021 164.416 150.844 158.976 147.1 156.529C146.998 156.462 146.897 156.401 146.799 156.345C144.437 155.024 141.675 154.58 138.968 154.546C136.515 154.516 133.992 154.824 131.831 155.985C127.956 158.066 125.894 162.614 125.713 167.008C125.532 171.401 126.941 175.697 128.54 179.794" fill="#2F2E41"/>
<path d="M359.326 348H0.482574C0.354587 348 0.231842 347.949 0.141342 347.859C0.0508421 347.768 0 347.646 0 347.518C0 347.39 0.0508421 347.267 0.141342 347.176C0.231842 347.086 0.354587 347.035 0.482574 347.035H359.517C359.645 347.035 359.768 347.086 359.859 347.176C359.949 347.267 360 347.39 360 347.518C360 347.784 359.592 348 359.326 348Z" fill="#CBCBCB"/>
</g>
<defs>
<clipPath id="clip0">
<rect width="360" height="348" fill="white"/>
</clipPath>
</defs>
</svg>
