<svg width="49" height="49" viewBox="0 0 49 49" fill="none" xmlns="http://www.w3.org/2000/svg">
<path fill-rule="evenodd" clip-rule="evenodd" d="M20.643 16.5C17.739 16.5 16.5 17.976 16.5 21.433V29.232C16.5 32.416 18.258 34.169 21.45 34.169H29.232C32.416 34.169 34.169 32.416 34.169 29.232V29.229L34.197 24.264C34.197 20.865 33.031 19.54 30.036 19.54H27.206C26.257 19.539 25.351 19.086 24.781 18.328L23.868 17.114C23.581 16.729 23.122 16.501 22.642 16.5H20.643ZM29.232 35.669H21.45C17.472 35.669 15 33.202 15 29.232V21.433C15 17.164 16.899 15 20.643 15H22.643C23.594 15.001 24.5 15.455 25.068 16.214L25.979 17.426C26.268 17.81 26.727 18.039 27.207 18.04H30.036C33.898 18.04 35.697 20.019 35.697 24.268L35.669 29.235C35.668 33.203 33.202 35.669 29.232 35.669Z" fill="#02014A"/>
<path fill-rule="evenodd" clip-rule="evenodd" d="M29.7164 28.7128H20.9814C20.5674 28.7128 20.2314 28.3768 20.2314 27.9628C20.2314 27.5488 20.5674 27.2128 20.9814 27.2128H29.7164C30.1304 27.2128 30.4664 27.5488 30.4664 27.9628C30.4664 28.3768 30.1304 28.7128 29.7164 28.7128Z" fill="#02014A"/>
</svg>
