<svg width="49" height="49" viewBox="0 0 49 49" fill="none" xmlns="http://www.w3.org/2000/svg">
<path d="M24.9951 29.6768V27.1398" stroke="#02014A" stroke-width="1.5" stroke-linecap="round" stroke-linejoin="round"/>
<path fill-rule="evenodd" clip-rule="evenodd" d="M31.19 18.3302C32.88 18.3302 34.24 19.7002 34.24 21.3902V24.8302C31.78 26.2702 28.53 27.1402 24.99 27.1402C21.45 27.1402 18.21 26.2702 15.75 24.8302V21.3802C15.75 19.6902 17.12 18.3302 18.81 18.3302H31.19Z" stroke="#02014A" stroke-width="1.5" stroke-linecap="round" stroke-linejoin="round"/>
<path d="M28.4951 18.3258V17.9598C28.4951 16.7398 27.5051 15.7498 26.2851 15.7498H23.7051C22.4851 15.7498 21.4951 16.7398 21.4951 17.9598V18.3258" stroke="#02014A" stroke-width="1.5" stroke-linecap="round" stroke-linejoin="round"/>
<path d="M15.7744 28.483L15.9634 30.992C16.0914 32.683 17.5004 33.99 19.1954 33.99H30.7944C32.4894 33.99 33.8984 32.683 34.0264 30.992L34.2154 28.483" stroke="#02014A" stroke-width="1.5" stroke-linecap="round" stroke-linejoin="round"/>
</svg>
