<svg width="49" height="49" viewBox="0 0 49 49" fill="none" xmlns="http://www.w3.org/2000/svg">
<path fill-rule="evenodd" clip-rule="evenodd" d="M16 19.5C16 16.8748 16.0281 16 19.5 16C22.9719 16 23 16.8748 23 19.5C23 22.1252 23.0111 23 19.5 23C15.9889 23 16 22.1252 16 19.5Z" stroke="#02014A" stroke-width="1.5" stroke-linecap="round" stroke-linejoin="round"/>
<path fill-rule="evenodd" clip-rule="evenodd" d="M27 19.5C27 16.8748 27.0281 16 30.5 16C33.9719 16 34 16.8748 34 19.5C34 22.1252 34.0111 23 30.5 23C26.9889 23 27 22.1252 27 19.5Z" stroke="#02014A" stroke-width="1.5" stroke-linecap="round" stroke-linejoin="round"/>
<path fill-rule="evenodd" clip-rule="evenodd" d="M16 30.5C16 27.8748 16.0281 27 19.5 27C22.9719 27 23 27.8748 23 30.5C23 33.1252 23.0111 34 19.5 34C15.9889 34 16 33.1252 16 30.5Z" stroke="#02014A" stroke-width="1.5" stroke-linecap="round" stroke-linejoin="round"/>
<path fill-rule="evenodd" clip-rule="evenodd" d="M27 30.5C27 27.8748 27.0281 27 30.5 27C33.9719 27 34 27.8748 34 30.5C34 33.1252 34.0111 34 30.5 34C26.9889 34 27 33.1252 27 30.5Z" stroke="#02014A" stroke-width="1.5" stroke-linecap="round" stroke-linejoin="round"/>
</svg>
