<svg width="704" height="700" viewBox="0 0 704 700" fill="none" xmlns="http://www.w3.org/2000/svg">
<rect width="704" height="700" fill="#6E17F2"/>
<rect x="106" y="404" width="10" height="10" fill="#FEC000"/>
<rect x="128" y="404" width="10" height="10" fill="#FEC000"/>
<rect x="150" y="404" width="10" height="10" fill="#FEC000"/>
<rect x="172" y="404" width="10" height="10" fill="#FEC000"/>
<rect x="194" y="404" width="10" height="10" fill="#FEC000"/>
<rect x="260" y="404" width="10" height="10" fill="#FEC000"/>
<rect x="216" y="404" width="10" height="10" fill="#FEC000"/>
<rect x="304" y="404" width="10" height="10" fill="#FEC000"/>
<rect x="282" y="404" width="10" height="10" fill="#FEC000"/>
<rect x="238" y="404" width="10" height="10" fill="#FEC000"/>
<rect x="106" y="422" width="10" height="10" fill="#FEC000"/>
<rect x="128" y="422" width="10" height="10" fill="#FEC000"/>
<rect x="150" y="422" width="10" height="10" fill="#FEC000"/>
<rect x="172" y="422" width="10" height="10" fill="#FEC000"/>
<rect x="194" y="422" width="10" height="10" fill="#FEC000"/>
<rect x="260" y="422" width="10" height="10" fill="#FEC000"/>
<rect x="216" y="422" width="10" height="10" fill="#FEC000"/>
<rect x="304" y="422" width="10" height="10" fill="#FEC000"/>
<rect x="282" y="422" width="10" height="10" fill="#FEC000"/>
<rect x="238" y="422" width="10" height="10" fill="#FEC000"/>
<rect x="106" y="440" width="10" height="10" fill="#FEC000"/>
<rect x="128" y="440" width="10" height="10" fill="#FEC000"/>
<rect x="150" y="440" width="10" height="10" fill="#FEC000"/>
<rect x="172" y="440" width="10" height="10" fill="#FEC000"/>
<rect x="194" y="440" width="10" height="10" fill="#FEC000"/>
<rect x="260" y="440" width="10" height="10" fill="#FEC000"/>
<rect x="216" y="440" width="10" height="10" fill="#FEC000"/>
<rect x="304" y="440" width="10" height="10" fill="#FEC000"/>
<rect x="282" y="440" width="10" height="10" fill="#FEC000"/>
<rect x="238" y="440" width="10" height="10" fill="#FEC000"/>
<rect x="106" y="458" width="10" height="10" fill="#FEC000"/>
<rect x="128" y="458" width="10" height="10" fill="#FEC000"/>
<rect x="150" y="458" width="10" height="10" fill="#FEC000"/>
<rect x="172" y="458" width="10" height="10" fill="#FEC000"/>
<rect x="194" y="458" width="10" height="10" fill="#FEC000"/>
<rect x="260" y="458" width="10" height="10" fill="#FEC000"/>
<rect x="216" y="458" width="10" height="10" fill="#FEC000"/>
<rect x="304" y="458" width="10" height="10" fill="#FEC000"/>
<rect x="282" y="458" width="10" height="10" fill="#FEC000"/>
<rect x="238" y="458" width="10" height="10" fill="#FEC000"/>
<rect x="106" y="476" width="10" height="10" fill="#FEC000"/>
<rect x="128" y="476" width="10" height="10" fill="#FEC000"/>
<rect x="150" y="476" width="10" height="10" fill="#FEC000"/>
<rect x="172" y="476" width="10" height="10" fill="#FEC000"/>
<rect x="194" y="476" width="10" height="10" fill="#FEC000"/>
<rect x="260" y="476" width="10" height="10" fill="#FEC000"/>
<rect x="216" y="476" width="10" height="10" fill="#FEC000"/>
<rect x="304" y="476" width="10" height="10" fill="#FEC000"/>
<rect x="282" y="476" width="10" height="10" fill="#FEC000"/>
<rect x="238" y="476" width="10" height="10" fill="#FEC000"/>
<rect x="106" y="494" width="10" height="10" fill="#FEC000"/>
<rect x="128" y="494" width="10" height="10" fill="#FEC000"/>
<rect x="150" y="494" width="10" height="10" fill="#FEC000"/>
<rect x="172" y="494" width="10" height="10" fill="#FEC000"/>
<rect x="194" y="494" width="10" height="10" fill="#FEC000"/>
<rect x="260" y="494" width="10" height="10" fill="#FEC000"/>
<rect x="216" y="494" width="10" height="10" fill="#FEC000"/>
<rect x="304" y="494" width="10" height="10" fill="#FEC000"/>
<rect x="282" y="494" width="10" height="10" fill="#FEC000"/>
<rect x="238" y="494" width="10" height="10" fill="#FEC000"/>
<rect x="106" y="512" width="10" height="10" fill="#FEC000"/>
<rect x="128" y="512" width="10" height="10" fill="#FEC000"/>
<rect x="150" y="512" width="10" height="10" fill="#FEC000"/>
<rect x="172" y="512" width="10" height="10" fill="#FEC000"/>
<rect x="194" y="512" width="10" height="10" fill="#FEC000"/>
<rect x="260" y="512" width="10" height="10" fill="#FEC000"/>
<rect x="216" y="512" width="10" height="10" fill="#FEC000"/>
<rect x="304" y="512" width="10" height="10" fill="#FEC000"/>
<rect x="282" y="512" width="10" height="10" fill="#FEC000"/>
<rect x="238" y="512" width="10" height="10" fill="#FEC000"/>
<rect x="106" y="530" width="10" height="10" fill="#FEC000"/>
<rect x="128" y="530" width="10" height="10" fill="#FEC000"/>
<rect x="150" y="530" width="10" height="10" fill="#FEC000"/>
<rect x="172" y="530" width="10" height="10" fill="#FEC000"/>
<rect x="194" y="530" width="10" height="10" fill="#FEC000"/>
<rect x="260" y="530" width="10" height="10" fill="#FEC000"/>
<rect x="216" y="530" width="10" height="10" fill="#FEC000"/>
<rect x="304" y="530" width="10" height="10" fill="#FEC000"/>
<rect x="282" y="530" width="10" height="10" fill="#FEC000"/>
<rect x="238" y="530" width="10" height="10" fill="#FEC000"/>
<rect x="106" y="548" width="10" height="10" fill="#FEC000"/>
<rect x="128" y="548" width="10" height="10" fill="#FEC000"/>
<rect x="150" y="548" width="10" height="10" fill="#FEC000"/>
<rect x="172" y="548" width="10" height="10" fill="#FEC000"/>
<rect x="194" y="548" width="10" height="10" fill="#FEC000"/>
<rect x="260" y="548" width="10" height="10" fill="#FEC000"/>
<rect x="216" y="548" width="10" height="10" fill="#FEC000"/>
<rect x="304" y="548" width="10" height="10" fill="#FEC000"/>
<rect x="282" y="548" width="10" height="10" fill="#FEC000"/>
<rect x="238" y="548" width="10" height="10" fill="#FEC000"/>
<rect x="106" y="566" width="10" height="10" fill="#FEC000"/>
<rect x="128" y="566" width="10" height="10" fill="#FEC000"/>
<rect x="150" y="566" width="10" height="10" fill="#FEC000"/>
<rect x="172" y="566" width="10" height="10" fill="#FEC000"/>
<rect x="194" y="566" width="10" height="10" fill="#FEC000"/>
<rect x="260" y="566" width="10" height="10" fill="#FEC000"/>
<rect x="216" y="566" width="10" height="10" fill="#FEC000"/>
<rect x="304" y="566" width="10" height="10" fill="#FEC000"/>
<rect x="282" y="566" width="10" height="10" fill="#FEC000"/>
<rect x="238" y="566" width="10" height="10" fill="#FEC000"/>
<rect x="409" y="126" width="10" height="10" fill="#FEC000"/>
<rect x="431" y="126" width="10" height="10" fill="#FEC000"/>
<rect x="453" y="126" width="10" height="10" fill="#FEC000"/>
<rect x="475" y="126" width="10" height="10" fill="#FEC000"/>
<rect x="497" y="126" width="10" height="10" fill="#FEC000"/>
<rect x="563" y="126" width="10" height="10" fill="#FEC000"/>
<rect x="519" y="126" width="10" height="10" fill="#FEC000"/>
<rect x="607" y="126" width="10" height="10" fill="#FEC000"/>
<rect x="585" y="126" width="10" height="10" fill="#FEC000"/>
<rect x="541" y="126" width="10" height="10" fill="#FEC000"/>
<rect x="409" y="144" width="10" height="10" fill="#FEC000"/>
<rect x="431" y="144" width="10" height="10" fill="#FEC000"/>
<rect x="453" y="144" width="10" height="10" fill="#FEC000"/>
<rect x="475" y="144" width="10" height="10" fill="#FEC000"/>
<rect x="497" y="144" width="10" height="10" fill="#FEC000"/>
<rect x="563" y="144" width="10" height="10" fill="#FEC000"/>
<rect x="519" y="144" width="10" height="10" fill="#FEC000"/>
<rect x="607" y="144" width="10" height="10" fill="#FEC000"/>
<rect x="585" y="144" width="10" height="10" fill="#FEC000"/>
<rect x="541" y="144" width="10" height="10" fill="#FEC000"/>
<rect x="409" y="162" width="10" height="10" fill="#FEC000"/>
<rect x="431" y="162" width="10" height="10" fill="#FEC000"/>
<rect x="453" y="162" width="10" height="10" fill="#FEC000"/>
<rect x="475" y="162" width="10" height="10" fill="#FEC000"/>
<rect x="497" y="162" width="10" height="10" fill="#FEC000"/>
<rect x="563" y="162" width="10" height="10" fill="#FEC000"/>
<rect x="519" y="162" width="10" height="10" fill="#FEC000"/>
<rect x="607" y="162" width="10" height="10" fill="#FEC000"/>
<rect x="585" y="162" width="10" height="10" fill="#FEC000"/>
<rect x="541" y="162" width="10" height="10" fill="#FEC000"/>
<rect x="409" y="180" width="10" height="10" fill="#FEC000"/>
<rect x="431" y="180" width="10" height="10" fill="#FEC000"/>
<rect x="453" y="180" width="10" height="10" fill="#FEC000"/>
<rect x="475" y="180" width="10" height="10" fill="#FEC000"/>
<rect x="497" y="180" width="10" height="10" fill="#FEC000"/>
<rect x="563" y="180" width="10" height="10" fill="#FEC000"/>
<rect x="519" y="180" width="10" height="10" fill="#FEC000"/>
<rect x="607" y="180" width="10" height="10" fill="#FEC000"/>
<rect x="585" y="180" width="10" height="10" fill="#FEC000"/>
<rect x="541" y="180" width="10" height="10" fill="#FEC000"/>
<rect x="409" y="198" width="10" height="10" fill="#FEC000"/>
<rect x="431" y="198" width="10" height="10" fill="#FEC000"/>
<rect x="453" y="198" width="10" height="10" fill="#FEC000"/>
<rect x="475" y="198" width="10" height="10" fill="#FEC000"/>
<rect x="497" y="198" width="10" height="10" fill="#FEC000"/>
<rect x="563" y="198" width="10" height="10" fill="#FEC000"/>
<rect x="519" y="198" width="10" height="10" fill="#FEC000"/>
<rect x="607" y="198" width="10" height="10" fill="#FEC000"/>
<rect x="585" y="198" width="10" height="10" fill="#FEC000"/>
<rect x="541" y="198" width="10" height="10" fill="#FEC000"/>
<rect x="409" y="216" width="10" height="10" fill="#FEC000"/>
<rect x="431" y="216" width="10" height="10" fill="#FEC000"/>
<rect x="453" y="216" width="10" height="10" fill="#FEC000"/>
<rect x="475" y="216" width="10" height="10" fill="#FEC000"/>
<rect x="497" y="216" width="10" height="10" fill="#FEC000"/>
<rect x="563" y="216" width="10" height="10" fill="#FEC000"/>
<rect x="519" y="216" width="10" height="10" fill="#FEC000"/>
<rect x="607" y="216" width="10" height="10" fill="#FEC000"/>
<rect x="585" y="216" width="10" height="10" fill="#FEC000"/>
<rect x="541" y="216" width="10" height="10" fill="#FEC000"/>
<rect x="409" y="234" width="10" height="10" fill="#FEC000"/>
<rect x="431" y="234" width="10" height="10" fill="#FEC000"/>
<rect x="453" y="234" width="10" height="10" fill="#FEC000"/>
<rect x="475" y="234" width="10" height="10" fill="#FEC000"/>
<rect x="497" y="234" width="10" height="10" fill="#FEC000"/>
<rect x="563" y="234" width="10" height="10" fill="#FEC000"/>
<rect x="519" y="234" width="10" height="10" fill="#FEC000"/>
<rect x="607" y="234" width="10" height="10" fill="#FEC000"/>
<rect x="585" y="234" width="10" height="10" fill="#FEC000"/>
<rect x="541" y="234" width="10" height="10" fill="#FEC000"/>
<rect x="409" y="252" width="10" height="10" fill="#FEC000"/>
<rect x="431" y="252" width="10" height="10" fill="#FEC000"/>
<rect x="453" y="252" width="10" height="10" fill="#FEC000"/>
<rect x="475" y="252" width="10" height="10" fill="#FEC000"/>
<rect x="497" y="252" width="10" height="10" fill="#FEC000"/>
<rect x="563" y="252" width="10" height="10" fill="#FEC000"/>
<rect x="519" y="252" width="10" height="10" fill="#FEC000"/>
<rect x="607" y="252" width="10" height="10" fill="#FEC000"/>
<rect x="585" y="252" width="10" height="10" fill="#FEC000"/>
<rect x="541" y="252" width="10" height="10" fill="#FEC000"/>
<rect x="409" y="270" width="10" height="10" fill="#FEC000"/>
<rect x="431" y="270" width="10" height="10" fill="#FEC000"/>
<rect x="453" y="270" width="10" height="10" fill="#FEC000"/>
<rect x="475" y="270" width="10" height="10" fill="#FEC000"/>
<rect x="497" y="270" width="10" height="10" fill="#FEC000"/>
<rect x="563" y="270" width="10" height="10" fill="#FEC000"/>
<rect x="519" y="270" width="10" height="10" fill="#FEC000"/>
<rect x="607" y="270" width="10" height="10" fill="#FEC000"/>
<rect x="585" y="270" width="10" height="10" fill="#FEC000"/>
<rect x="541" y="270" width="10" height="10" fill="#FEC000"/>
<rect x="409" y="288" width="10" height="10" fill="#FEC000"/>
<rect x="431" y="288" width="10" height="10" fill="#FEC000"/>
<rect x="453" y="288" width="10" height="10" fill="#FEC000"/>
<rect x="475" y="288" width="10" height="10" fill="#FEC000"/>
<rect x="497" y="288" width="10" height="10" fill="#FEC000"/>
<rect x="563" y="288" width="10" height="10" fill="#FEC000"/>
<rect x="519" y="288" width="10" height="10" fill="#FEC000"/>
<rect x="607" y="288" width="10" height="10" fill="#FEC000"/>
<rect x="585" y="288" width="10" height="10" fill="#FEC000"/>
<rect x="541" y="288" width="10" height="10" fill="#FEC000"/>
</svg>
