<svg width="50" height="50" viewBox="0 0 50 50" fill="none" xmlns="http://www.w3.org/2000/svg">
<path d="M45.0999 11.135L38.8649 4.90002C38.6587 4.69381 38.414 4.53023 38.1446 4.41862C37.8752 4.30702 37.5865 4.24957 37.2949 4.24957C37.0033 4.24957 36.7146 4.30702 36.4452 4.41862C36.1758 4.53023 35.9311 4.69381 35.7249 4.90002L23.8999 16.725C23.6937 16.9312 23.5301 17.1759 23.4185 17.4453C23.3069 17.7147 23.2495 18.0034 23.2495 18.295C23.2495 18.5866 23.3069 18.8753 23.4185 19.1447C23.5301 19.4141 23.6937 19.6589 23.8999 19.865L26.4999 22.45L22.2149 26.735L19.3699 23.9C18.9527 23.4832 18.3871 23.2491 17.7974 23.2491C17.2077 23.2491 16.6421 23.4832 16.2249 23.9L4.3999 35.72C3.98313 36.1372 3.74902 36.7028 3.74902 37.2925C3.74902 37.8822 3.98313 38.4478 4.3999 38.865L10.6299 45.1C11.0477 45.5156 11.6131 45.7488 12.2024 45.7488C12.7917 45.7488 13.3571 45.5156 13.7749 45.1L25.5999 33.28C26.0167 32.8628 26.2508 32.2972 26.2508 31.7075C26.2508 31.1178 26.0167 30.5522 25.5999 30.135L23.2649 27.8L27.5499 23.5L30.1349 26.085C30.3411 26.2912 30.5858 26.4548 30.8552 26.5664C31.1246 26.678 31.4133 26.7355 31.7049 26.7355C31.9965 26.7355 32.2852 26.678 32.5546 26.5664C32.824 26.4548 33.0687 26.2912 33.2749 26.085L45.0999 14.275C45.3061 14.0689 45.4697 13.8241 45.5813 13.5547C45.6929 13.2853 45.7503 12.9966 45.7503 12.705C45.7503 12.4134 45.6929 12.1247 45.5813 11.8553C45.4697 11.5859 45.3061 11.3412 45.0999 11.135ZM24.5399 31.19C24.6758 31.326 24.7521 31.5103 24.7521 31.7025C24.7521 31.8947 24.6758 32.0791 24.5399 32.215L12.7149 44.04C12.5789 44.1759 12.3946 44.2522 12.2024 44.2522C12.0102 44.2522 11.8258 44.1759 11.6899 44.04L5.4599 37.81C5.32403 37.6741 5.2477 37.4897 5.2477 37.2975C5.2477 37.1053 5.32403 36.921 5.4599 36.785L17.2849 24.96C17.4208 24.8241 17.6052 24.7478 17.7974 24.7478C17.9896 24.7478 18.1739 24.8241 18.3099 24.96L21.1449 27.795L17.7199 31.22C17.6462 31.2887 17.5871 31.3715 17.5461 31.4635C17.5051 31.5555 17.4831 31.6548 17.4813 31.7555C17.4795 31.8562 17.4981 31.9562 17.5358 32.0496C17.5735 32.143 17.6296 32.2278 17.7009 32.2991C17.7721 32.3703 17.8569 32.4264 17.9503 32.4641C18.0437 32.5019 18.1437 32.5204 18.2444 32.5186C18.3451 32.5168 18.4444 32.4948 18.5364 32.4538C18.6284 32.4128 18.7112 32.3537 18.7799 32.28L22.2049 28.855L24.5399 31.19ZM44.0399 13.19L32.2149 25.04C32.079 25.1662 31.9004 25.2363 31.7149 25.2363C31.5294 25.2363 31.3508 25.1662 31.2149 25.04L28.6099 22.45L32.2799 18.78C32.4124 18.6378 32.4845 18.4498 32.4811 18.2555C32.4776 18.0612 32.3989 17.8758 32.2615 17.7384C32.1241 17.601 31.9387 17.5223 31.7444 17.5188C31.5501 17.5154 31.3621 17.5875 31.2199 17.72L27.5499 21.39L24.9649 18.805C24.8354 18.6708 24.763 18.4916 24.763 18.305C24.763 18.1185 24.8354 17.9392 24.9649 17.805L36.7849 5.96002C36.9191 5.83048 37.0984 5.75809 37.2849 5.75809C37.4714 5.75809 37.6507 5.83048 37.7849 5.96002L44.0399 12.195C44.1694 12.3292 44.2418 12.5085 44.2418 12.695C44.2418 12.8815 44.1694 13.0608 44.0399 13.195V13.19Z" fill="#02014A"/>
</svg>
