<svg width="161" height="120" viewBox="0 0 161 120" fill="none" xmlns="http://www.w3.org/2000/svg">
<rect width="161" height="120" rx="14" fill="#F9F6FD"/>
<path d="M22.344 11.2835C21.2566 12.5335 17.2454 12.8125 15.9954 11.725C14.7454 10.6375 14.2998 9.6451 15.3873 8.39507C16.4747 7.14504 20.4859 6.86609 21.7359 7.95356C22.9859 9.04103 23.4315 10.0335 22.344 11.2835Z" fill="#FEC000"/>
<path d="M44.344 11.2835C43.2566 12.5335 39.2454 12.8125 37.9954 11.725C36.7454 10.6375 36.2998 9.6451 37.3873 8.39507C38.4747 7.14504 42.4859 6.86609 43.7359 7.95356C44.9859 9.04103 45.4315 10.0335 44.344 11.2835Z" fill="#FEC000"/>
<path d="M64.344 11.2835C63.2566 12.5335 59.2454 12.8125 57.9954 11.725C56.7454 10.6375 56.2998 9.6451 57.3873 8.39507C58.4747 7.14504 62.4859 6.86609 63.7359 7.95356C64.9859 9.04103 65.4315 10.0335 64.344 11.2835Z" fill="#FEC000"/>
<path d="M84.344 11.2835C83.2566 12.5335 79.2454 12.8125 77.9954 11.725C76.7454 10.6375 76.2998 9.6451 77.3873 8.39507C78.4747 7.14504 82.4859 6.86609 83.7359 7.95356C84.9859 9.04103 85.4315 10.0335 84.344 11.2835Z" fill="#FEC000"/>
<path d="M143.344 11.2835C142.257 12.5335 138.245 12.8125 136.995 11.725C135.745 10.6375 135.3 9.6451 136.387 8.39507C137.475 7.14504 141.486 6.86609 142.736 7.95356C143.986 9.04103 144.432 10.0335 143.344 11.2835Z" fill="#FEC000"/>
<path d="M103.344 11.2835C102.257 12.5335 98.2454 12.8125 96.9954 11.725C95.7454 10.6375 95.2998 9.6451 96.3873 8.39507C97.4747 7.14504 101.486 6.86609 102.736 7.95356C103.986 9.04103 104.432 10.0335 103.344 11.2835Z" fill="#FEC000"/>
<path d="M122.344 11.2835C121.257 12.5335 117.245 12.8125 115.995 11.725C114.745 10.6375 114.3 9.6451 115.387 8.39507C116.475 7.14504 120.486 6.86609 121.736 7.95356C122.986 9.04103 123.432 10.0335 122.344 11.2835Z" fill="#FEC000"/>
</svg>
