<svg width="500" height="330" viewBox="0 0 500 330" fill="none" xmlns="http://www.w3.org/2000/svg">
<rect width="500" height="304" fill="white"/>
<circle opacity="0.7" cx="472" cy="257" r="11" fill="#FEC000"/>
<circle opacity="0.5" cx="482.5" cy="219.5" r="6.5" fill="#FEC000"/>
<path d="M407.15 303.657C407.17 300.288 407.884 296.955 409.251 293.85C410.619 290.745 412.613 287.929 415.121 285.561C417.628 283.193 420.599 281.32 423.864 280.05C427.129 278.78 430.624 278.137 434.15 278.157C437.676 278.178 441.164 278.862 444.414 280.171C447.664 281.479 450.613 283.386 453.092 285.783C455.571 288.18 457.532 291.02 458.863 294.141C460.194 297.262 460.869 300.602 460.85 303.972L434 303.814L407.15 303.657Z" fill="#FEC000"/>
</svg>
