<svg width="50" height="50" viewBox="0 0 50 50" fill="none" xmlns="http://www.w3.org/2000/svg">
<path d="M43.7914 6H13.3964C11.5815 6 10.1272 7.27612 10.0854 8.92438V15.2995C10.0854 15.7119 10.4193 16.0458 10.8317 16.0458C11.2442 16.0458 11.578 15.7119 11.578 15.2995V8.94328C11.5984 8.14328 12.4143 7.49254 13.3964 7.49254H43.7914C44.7954 7.49254 45.6118 8.15672 45.6118 8.97363V33.3249C45.6118 34.1423 44.7949 34.807 43.7914 34.807H13.3964C12.3939 34.807 11.578 34.1423 11.578 33.3249V29.8388C11.578 29.4269 11.2442 29.0925 10.8317 29.0925C10.4193 29.0925 10.0854 29.4269 10.0854 29.8388V33.3249C10.0854 34.9652 11.5705 36.2995 13.3964 36.2995H27.7337V42.7348H18.2606C17.8481 42.7348 17.5143 43.0692 17.5143 43.4811C17.5143 43.893 17.8481 44.2274 18.2606 44.2274H38.6158C39.0277 44.2274 39.3621 43.893 39.3621 43.4811C39.3621 43.0692 39.0277 42.7348 38.6158 42.7348H29.2262V36.299H43.7914C45.6183 36.299 47.1043 34.9647 47.1043 33.3244V8.97363C47.1043 7.33383 45.6183 6 43.7914 6Z" fill="#02014A"/>
<path d="M23.6237 18.1766H39.6192C40.0312 18.1766 40.3655 17.8428 40.3655 17.4303C40.3655 17.0179 40.0312 16.6841 39.6192 16.6841H23.6237C23.2113 16.6841 22.8774 17.0179 22.8774 17.4303C22.8774 17.8428 23.2113 18.1766 23.6237 18.1766Z" fill="#02014A"/>
<path d="M23.6237 22.9025H39.6192C40.0312 22.9025 40.3655 22.5686 40.3655 22.1562C40.3655 21.7437 40.0312 21.4099 39.6192 21.4099H23.6237C23.2113 21.4099 22.8774 21.7437 22.8774 22.1562C22.8774 22.5686 23.2113 22.9025 23.6237 22.9025Z" fill="#02014A"/>
<path d="M23.6237 27.8895H39.6192C40.0312 27.8895 40.3655 27.5552 40.3655 27.1432C40.3655 26.7313 40.0312 26.397 39.6192 26.397H23.6237C23.2113 26.397 22.8774 26.7313 22.8774 27.1432C22.8774 27.5552 23.2113 27.8895 23.6237 27.8895Z" fill="#02014A"/>
<path d="M10.6796 24.4791C10.8721 24.4791 11.0632 24.405 11.2074 24.2607L21.9895 13.4781C22.2811 13.1866 22.2811 12.7139 21.9895 12.4229C21.698 12.1313 21.2258 12.1313 20.9343 12.4229L10.5985 22.7592L4.17907 18.189C3.84276 17.9502 3.37758 18.0288 3.13828 18.3642C2.89947 18.7 2.97758 19.1662 3.3139 19.405L10.2477 24.3408C10.3776 24.4338 10.5293 24.4791 10.6796 24.4791Z" fill="#02014A"/>
</svg>
