<svg width="35" height="37" viewBox="0 0 35 37" fill="none" xmlns="http://www.w3.org/2000/svg">
<rect y="0.5" width="34.1695" height="36" rx="11" fill="#F6F7FA"/>
<path fill-rule="evenodd" clip-rule="evenodd" d="M24.9213 14.3971L24.3674 13.3845C23.8988 12.5277 22.8605 12.2321 22.0461 12.7238V12.7238C21.6585 12.9643 21.1959 13.0326 20.7604 12.9135C20.325 12.7944 19.9524 12.4976 19.7248 12.0887C19.5784 11.8289 19.4997 11.5328 19.4967 11.2306V11.2306C19.51 10.7461 19.3365 10.2766 19.0158 9.92903C18.6951 9.58147 18.2545 9.38546 17.7945 9.38566H16.6786C16.2279 9.38565 15.7957 9.57488 15.4778 9.91147C15.1598 10.2481 14.9823 10.7043 14.9845 11.1791V11.1791C14.9711 12.1596 14.2129 12.947 13.2822 12.9469C12.9953 12.9437 12.7144 12.8608 12.4677 12.7066V12.7066C11.6533 12.215 10.615 12.5106 10.1464 13.3674L9.55182 14.3971C9.08383 15.2528 9.36056 16.3462 10.1708 16.8428V16.8428C10.6975 17.1631 11.022 17.7552 11.022 18.396C11.022 19.0367 10.6975 19.6288 10.1708 19.9492V19.9492C9.36158 20.4424 9.08455 21.5331 9.55182 22.3862V22.3862L10.1138 23.4074C10.3334 23.8248 10.7017 24.1327 11.1374 24.2632C11.573 24.3936 12.04 24.3358 12.4351 24.1025V24.1025C12.8235 23.8637 13.2863 23.7983 13.7207 23.9208C14.155 24.0432 14.525 24.3434 14.7483 24.7547C14.8947 25.0145 14.9733 25.3106 14.9763 25.6128V25.6128C14.9763 26.6033 15.7385 27.4063 16.6786 27.4063H17.7945C18.7314 27.4063 19.4923 26.6085 19.4967 25.6214V25.6214C19.4946 25.145 19.6732 24.6875 19.9929 24.3506C20.3126 24.0138 20.7469 23.8256 21.199 23.8279C21.4852 23.8359 21.765 23.9185 22.0135 24.0682V24.0682C22.8257 24.5612 23.8635 24.2697 24.3348 23.416V23.416L24.9213 22.3862C25.1482 21.9757 25.2105 21.4868 25.0944 21.0278C24.9782 20.5688 24.6931 20.1775 24.3022 19.9406V19.9406C23.9114 19.7037 23.6263 19.3124 23.5101 18.8533C23.3939 18.3943 23.4562 17.9054 23.6832 17.4949C23.8308 17.2234 24.0445 16.9983 24.3022 16.8428V16.8428C25.1077 16.3464 25.3837 15.2595 24.9213 14.4057V14.4057V14.3971Z" stroke="#ACA2BB" stroke-width="1.2" stroke-linecap="round" stroke-linejoin="round"/>
<ellipse cx="17.2403" cy="18.3959" rx="2.34573" ry="2.4714" stroke="#ACA2BB" stroke-width="1.2" stroke-linecap="round" stroke-linejoin="round"/>
</svg>
