<svg width="49" height="49" viewBox="0 0 49 49" fill="none" xmlns="http://www.w3.org/2000/svg">
<path d="M23.33 30.5929H17.0293" stroke="#02014A" stroke-width="1.5" stroke-linecap="round" stroke-linejoin="round"/>
<path d="M26.1406 20.9004H32.4413" stroke="#02014A" stroke-width="1.5" stroke-linecap="round" stroke-linejoin="round"/>
<path fill-rule="evenodd" clip-rule="evenodd" d="M21.7263 20.8463C21.7263 19.5506 20.6681 18.5 19.3631 18.5C18.0582 18.5 17 19.5506 17 20.8463C17 22.1419 18.0582 23.1925 19.3631 23.1925C20.6681 23.1925 21.7263 22.1419 21.7263 20.8463Z" stroke="#02014A" stroke-width="1.5" stroke-linecap="round" stroke-linejoin="round"/>
<path fill-rule="evenodd" clip-rule="evenodd" d="M32.9997 30.5537C32.9997 29.2581 31.9424 28.2075 30.6374 28.2075C29.3316 28.2075 28.2734 29.2581 28.2734 30.5537C28.2734 31.8494 29.3316 32.9 30.6374 32.9C31.9424 32.9 32.9997 31.8494 32.9997 30.5537Z" stroke="#02014A" stroke-width="1.5" stroke-linecap="round" stroke-linejoin="round"/>
</svg>
