<svg width="40" height="41" viewBox="0 0 40 41" fill="none" xmlns="http://www.w3.org/2000/svg">
<g clip-path="url(#clip0)">
<path d="M25.2118 10.6919H14.6899C12.0568 10.6919 9.91455 12.8342 9.91455 15.4672V26.0857C9.91455 28.7187 12.0568 30.861 14.6899 30.861H25.2118C27.8449 30.861 29.9871 28.7187 29.9871 26.0857V15.4672C29.9871 12.8342 27.8449 10.6919 25.2118 10.6919ZM19.9709 27.1345C16.4018 27.1345 13.4983 24.2618 13.4983 20.7308C13.4983 17.1998 16.4022 14.3271 19.9709 14.3271C23.5396 14.3271 26.4436 17.1998 26.4436 20.7308C26.4436 24.2618 23.54 27.1345 19.9709 27.1345ZM26.5588 15.5881C25.7176 15.5881 25.0358 14.9063 25.0358 14.0651C25.0358 13.2239 25.7176 12.5422 26.5588 12.5422C27.4 12.5422 28.0817 13.2239 28.0817 14.0651C28.0817 14.9063 27.4 15.5881 26.5588 15.5881Z" fill="white"/>
<path d="M20.0005 0.767334C8.9549 0.767334 0.000488281 9.72175 0.000488281 20.7673C0.000488281 31.8129 8.9549 40.7673 20.0005 40.7673C31.0461 40.7673 40.0005 31.8129 40.0005 20.7673C40.0005 9.72175 31.0461 0.767334 20.0005 0.767334ZM32.3492 26.0857C32.3492 30.0215 29.1471 33.2231 25.2118 33.2231H14.6898C10.7541 33.2231 7.5524 30.0211 7.5524 26.0857V15.4672C7.5524 11.5314 10.7545 8.32979 14.6898 8.32979H25.2118C29.1476 8.32979 32.3492 11.5319 32.3492 15.4672V26.0857Z" fill="white"/>
<path d="M19.971 16.6848C17.7018 16.6848 15.856 18.4998 15.856 20.7309C15.856 22.962 17.7018 24.777 19.971 24.777C22.2402 24.777 24.086 22.962 24.086 20.7309C24.086 18.4998 22.2402 16.6848 19.971 16.6848Z" fill="white"/>
</g>
<defs>
<clipPath id="clip0">
<rect width="40" height="40" fill="white" transform="translate(0.000488281 0.767334)"/>
</clipPath>
</defs>
</svg>
