<svg width="40" height="41" viewBox="0 0 40 41" fill="none" xmlns="http://www.w3.org/2000/svg">
<path d="M23.1266 14.7874H16.8134C15.2336 14.7874 13.9482 16.0727 13.9482 17.6525V24.0236C13.9482 25.6035 15.2336 26.8888 16.8134 26.8888H23.1266C24.7064 26.8888 25.9918 25.6035 25.9918 24.0236V17.6525C25.9918 16.0727 24.7064 14.7874 23.1266 14.7874ZM19.9821 24.6529C17.8406 24.6529 16.0985 22.9293 16.0985 20.8107C16.0985 18.6921 17.8408 16.9685 19.9821 16.9685C22.1233 16.9685 23.8657 18.6921 23.8657 20.8107C23.8657 22.9293 22.1235 24.6529 19.9821 24.6529ZM23.9348 17.7251C23.4301 17.7251 23.021 17.316 23.021 16.8113C23.021 16.3066 23.4301 15.8975 23.9348 15.8975C24.4395 15.8975 24.8486 16.3066 24.8486 16.8113C24.8486 17.316 24.4395 17.7251 23.9348 17.7251Z" fill="#02014A"/>
<path d="M20 8.83264C13.3726 8.83264 8 14.2053 8 20.8326C8 27.46 13.3726 32.8326 20 32.8326C26.6274 32.8326 32 27.46 32 20.8326C32 14.2053 26.6274 8.83264 20 8.83264ZM27.4092 24.0237C27.4092 26.3851 25.488 28.3061 23.1268 28.3061H16.8136C14.4521 28.3061 12.5311 26.3849 12.5311 24.0237V17.6526C12.5311 15.2911 14.4524 13.3701 16.8136 13.3701H23.1268C25.4882 13.3701 27.4092 15.2914 27.4092 17.6526V24.0237Z" fill="#02014A"/>
<path d="M19.9827 18.3831C18.6212 18.3831 17.5137 19.472 17.5137 20.8107C17.5137 22.1494 18.6212 23.2383 19.9827 23.2383C21.3442 23.2383 22.4517 22.1494 22.4517 20.8107C22.4517 19.472 21.3442 18.3831 19.9827 18.3831Z" fill="#02014A"/>
</svg>
