<svg width="100" height="56" viewBox="0 0 100 56" fill="none" xmlns="http://www.w3.org/2000/svg">
<path d="M20.953 55.8041C20.1248 55.8069 19.3128 55.5645 18.6111 55.105H18.6104L5.34632 47.1037C4.53226 46.6133 3.78387 46.0126 3.12076 45.3172C2.46865 44.6337 1.90461 43.8644 1.44274 43.0288C0.979975 42.1934 0.623311 41.2987 0.381703 40.3672C0.136156 39.4204 0.0113429 38.4438 0.0106542 37.4629L2.07851e-06 19.9052C-0.000584898 18.9227 0.123154 17.9444 0.367918 16.9956C0.609696 16.0629 0.966554 15.1669 1.42958 14.3302C1.89239 13.4928 2.45753 12.7218 3.11084 12.0367C3.77554 11.3406 4.52545 10.7393 5.34099 10.2483L19.876 1.49451C20.6911 1.00289 21.5648 0.62605 22.4746 0.373821C23.3691 0.125974 24.2907 0.000319655 25.2162 0C26.1432 0.0002474 27.0662 0.126283 27.9621 0.374939C28.8729 0.628211 29.7478 1.00585 30.564 1.49808L45.1339 10.2871C45.9478 10.7775 46.6962 11.378 47.3596 12.0728C48.0113 12.7571 48.5757 13.5265 49.0386 14.3618C49.5008 15.1973 49.857 16.0919 50.0985 17.0232C50.3445 17.9698 50.4692 18.9463 50.4695 19.9271L50.4669 24.6661C50.4678 25.2026 50.3651 25.7338 50.165 26.2278C49.9721 26.7045 49.6921 27.1373 49.3407 27.5022C48.9905 27.8687 48.5755 28.1609 48.1188 28.3626C47.645 28.5712 47.1359 28.6781 46.6217 28.6769H42.3478C42.3461 27.5569 42.2431 26.4396 42.0401 25.3398C41.8331 24.22 41.5226 23.1239 41.1129 22.0667C40.6956 20.9915 40.1774 19.9622 39.5657 18.9938C38.9346 17.9964 38.2085 17.068 37.3987 16.223C36.5903 15.3779 35.7022 14.6202 34.7481 13.9614C33.822 13.3231 32.8378 12.7821 31.8096 12.3463C30.7983 11.9183 29.7497 11.5937 28.6784 11.377C27.615 11.1625 26.5345 11.0545 25.4514 11.0545C24.3683 11.0547 23.2877 11.1629 22.2243 11.3777C21.1531 11.5943 20.1045 11.9189 19.0934 12.347C18.0651 12.7828 17.0808 13.3238 16.1545 13.9621C15.2006 14.6211 14.3125 15.3788 13.504 16.2236C12.695 17.068 11.9697 17.9953 11.339 18.9917C10.7276 19.9588 10.2096 20.9869 9.79253 22.0607C9.38284 23.1168 9.07204 24.2119 8.86465 25.3306C8.65892 26.4413 8.5553 27.5699 8.55511 28.7012C8.55525 29.8324 8.65884 30.961 8.86454 32.0715C9.07187 33.1902 9.38267 34.2853 9.79242 35.3414C10.2095 36.4153 10.7275 37.4434 11.3389 38.4107C11.9696 39.4069 12.6949 40.3341 13.5037 41.1785C13.5976 41.2769 13.7091 41.3549 13.832 41.408C13.9548 41.4612 14.0865 41.4884 14.2195 41.4882C14.3524 41.4885 14.484 41.4613 14.6068 41.4081C14.7295 41.3549 14.841 41.2769 14.9347 41.1785C15.029 41.0807 15.1038 40.9643 15.1547 40.8361C15.2056 40.7079 15.2316 40.5704 15.2312 40.4316C15.2315 40.2928 15.2055 40.1553 15.1546 40.0271C15.1037 39.8988 15.029 39.7824 14.9347 39.6845C9.13613 33.6279 9.13613 23.7737 14.9347 17.7175C16.3124 16.2707 17.9513 15.1236 19.7565 14.3428C21.5618 13.5619 23.4974 13.1627 25.4514 13.1683C27.4055 13.1628 29.3412 13.562 31.1465 14.3429C32.9517 15.1238 34.5906 16.2709 35.9684 17.7177C37.3511 19.1541 38.4478 20.862 39.1954 22.743C39.9429 24.624 40.3265 26.6409 40.3241 28.6774H38.5743C38.5737 27.1565 38.3311 25.6462 37.8563 24.2083C37.37 22.7322 36.6458 21.3537 35.7151 20.1321C35.0913 19.3122 34.38 18.5694 33.5949 17.918C32.8241 17.2788 31.9871 16.732 31.0995 16.2878C30.2168 15.8461 29.2897 15.5084 28.3353 15.2811C27.3755 15.0523 26.3942 14.9367 25.4097 14.9365C24.4343 14.9368 23.462 15.0501 22.5106 15.2744C22.249 15.3365 22.0217 15.5043 21.8785 15.7411C21.7353 15.9779 21.6879 16.2644 21.7467 16.5376C21.7979 16.7735 21.9247 16.9841 22.1063 17.1344C22.2848 17.2815 22.5055 17.3619 22.733 17.3625C22.8081 17.3624 22.8829 17.3536 22.9561 17.3363C23.7644 17.1456 24.5904 17.0491 25.4191 17.0484C30.5741 17.0484 35.1406 20.8659 36.2771 26.126C36.4585 26.9633 36.551 27.819 36.5531 28.6774H34.5519C34.551 28.0779 34.4964 27.4798 34.3889 26.891C34.2779 26.2858 34.1108 25.6933 33.89 25.1219C33.4329 23.9386 32.7509 22.8643 31.8851 21.9638C31.0258 21.0629 30.0012 20.3523 28.8726 19.8746C28.3277 19.6443 27.7626 19.4694 27.1854 19.3523C26.6124 19.2369 26.0301 19.1787 25.4464 19.1785C24.8628 19.1787 24.2805 19.2369 23.7074 19.3523C23.1303 19.4695 22.5653 19.6444 22.0203 19.8746C20.892 20.3522 19.8676 21.0627 19.0086 21.9635C18.1458 22.8607 17.4654 23.9306 17.0082 25.1089C16.7874 25.6781 16.6199 26.2683 16.5079 26.8712C16.3973 27.4696 16.3414 28.0777 16.3414 28.6872C16.3414 29.2966 16.3972 29.9047 16.5079 30.5031C16.6196 31.106 16.7871 31.696 17.0082 32.265C17.4653 33.4434 18.1455 34.5133 19.008 35.4108C19.1016 35.5094 19.2132 35.5875 19.336 35.6407C19.4588 35.6939 19.5904 35.7211 19.7234 35.7208C19.8563 35.7211 19.9881 35.6939 20.1109 35.6407C20.2336 35.5874 20.345 35.5093 20.4387 35.4108C20.6281 35.2124 20.7344 34.9438 20.7344 34.6637C20.7344 34.3836 20.6281 34.1149 20.4387 33.9165C19.1126 32.5284 18.3679 30.6479 18.3679 28.6873C18.3679 26.7267 19.1126 24.8461 20.4387 23.458C21.0946 22.7691 21.8749 22.223 22.7344 21.8511C23.5939 21.4793 24.5156 21.2892 25.4459 21.2919C26.3763 21.2892 27.2978 21.4793 28.1573 21.8511C29.0168 22.223 29.7972 22.7691 30.4531 23.458C31.1118 24.1418 31.6342 24.9551 31.9903 25.8509C32.3463 26.7466 32.529 27.7071 32.5277 28.677H29.8615C29.8598 28.0667 29.7416 27.4629 29.5138 26.9009C29.2917 26.3516 28.9696 25.8525 28.5653 25.4314C28.1622 25.0092 27.6843 24.6728 27.1583 24.4409C26.6132 24.1998 26.0271 24.0761 25.4351 24.0775C24.8431 24.0762 24.257 24.1998 23.7119 24.4409C23.1858 24.6728 22.7078 25.0092 22.3046 25.4314C21.9004 25.8526 21.5783 26.3517 21.3561 26.9009C21.1253 27.4701 21.0069 28.0821 21.008 28.7002C21.0063 29.8779 21.4369 31.0116 22.2112 31.868C22.9782 32.7222 24.0283 33.2389 25.1475 33.3129H25.1977V40.3237H25.1475C22.6625 40.2664 20.2675 39.3416 18.3448 37.6968C16.4221 36.052 15.0826 33.7821 14.5401 31.2494C14.489 31.0138 14.3623 30.8035 14.1809 30.6535C14.0025 30.506 13.7817 30.4256 13.5542 30.4251C13.4789 30.4253 13.4039 30.4341 13.3304 30.4513C13.2007 30.4815 13.0779 30.5383 12.9694 30.6184C12.8608 30.6984 12.7686 30.8002 12.6979 30.9177C12.6267 31.0349 12.5784 31.1658 12.5558 31.3026C12.5333 31.4395 12.5368 31.5796 12.5665 31.715C12.8918 33.2255 13.4596 34.6676 14.2459 35.9803C15.0111 37.2578 15.9726 38.395 17.0917 39.3462C18.2092 40.2984 19.4691 41.0521 20.821 41.5771C22.2069 42.1156 23.67 42.4056 25.1485 42.4347H25.1986V44.2246H25.1485C22.3088 44.1682 19.5444 43.2613 17.184 41.6118C17.0181 41.4958 16.8229 41.4339 16.6232 41.434C16.4566 41.4337 16.2924 41.4765 16.1455 41.5586C15.9985 41.6406 15.8733 41.7593 15.7809 41.9041C15.7069 42.0193 15.6554 42.1487 15.6296 42.2848C15.6037 42.4208 15.6039 42.5609 15.6301 42.6969C15.6558 42.8331 15.707 42.9626 15.7809 43.078C15.8548 43.1934 15.9497 43.2924 16.0605 43.3693C17.401 44.3048 18.8632 45.0347 20.4022 45.5367C21.9397 46.039 23.5382 46.3087 25.1489 46.3376H25.199V51.1347L25.1793 51.1466C25.1939 51.2908 25.2013 51.4357 25.2014 51.5807C25.2022 52.1471 25.0885 52.7072 24.8677 53.2245C24.6519 53.7302 24.3425 54.1864 23.9574 54.567C23.5665 54.9554 23.1082 55.2626 22.6072 55.472C22.0814 55.6928 21.5197 55.8056 20.953 55.8041ZM20.2007 16.2843C20.0591 16.2842 19.919 16.3154 19.7897 16.3757C18.6568 16.901 17.6054 17.6 16.6702 18.4496C15.7544 19.2816 14.9599 20.2488 14.3116 21.3205C13.6631 22.3921 13.1679 23.5568 12.8415 24.7778C12.5085 26.0247 12.3555 27.3165 12.3878 28.6106C12.3935 28.8861 12.5029 29.1481 12.6924 29.34C12.8809 29.5332 13.1346 29.6411 13.3987 29.6405H13.4248C13.5577 29.6374 13.6887 29.6068 13.8101 29.5505C13.9316 29.4941 14.0413 29.4131 14.1325 29.3122C14.2243 29.2118 14.2961 29.0934 14.3438 28.9638C14.3915 28.8343 14.4142 28.6962 14.4105 28.5574C14.3534 26.3993 14.9126 24.2722 16.0169 22.4469C17.1212 20.6216 18.7207 19.1807 20.6118 18.3075C20.8568 18.1931 21.0484 17.9819 21.1446 17.7203C21.2409 17.4587 21.2338 17.168 21.1251 16.9118C21.0455 16.7252 20.9158 16.5666 20.7518 16.4553C20.5877 16.3439 20.3964 16.2845 20.2008 16.2843H20.2007Z" fill="white"/>
<path d="M34.4318 44.9282V51.9419H30.3628V32.0356H38.0668C39.5497 32.0356 40.8518 32.3091 41.973 32.856C43.1033 33.4028 43.9714 34.1821 44.5772 35.1938C45.183 36.1965 45.4859 37.3403 45.4859 38.6255C45.4859 40.576 44.8213 42.1164 43.4921 43.2466C42.172 44.3677 40.3409 44.9282 37.999 44.9282H34.4318ZM34.4318 41.606H38.0668C39.1428 41.606 39.9611 41.3507 40.5218 40.8403C41.0914 40.3299 41.3762 39.6007 41.3762 38.6528C41.3762 37.6776 41.0914 36.8892 40.5218 36.2876C39.9521 35.686 39.1654 35.3761 38.1617 35.3579H34.4318V41.606Z" fill="white"/>
<path d="M54.7362 43.8071H52.3897V51.9419H48.3207V32.0356H52.3897V40.0063H54.2479L59.0764 32.0356H64.0406L57.9507 41.4556L64.6781 51.9419H59.8224L54.7362 43.8071Z" fill="white"/>
<path d="M81.3204 45.311C81.1666 47.453 80.38 49.1392 78.9603 50.3696C77.5497 51.6001 75.687 52.2153 73.3722 52.2153C70.8404 52.2153 68.8466 51.3586 67.3908 49.645C65.944 47.9224 65.2206 45.5617 65.2206 42.563V41.3462C65.2206 39.4321 65.5552 37.7459 66.2243 36.2876C66.8935 34.8293 67.8474 33.7127 69.0862 32.938C70.334 32.1541 71.7808 31.7622 73.4265 31.7622C75.7051 31.7622 77.5407 32.3774 78.9332 33.6079C80.3257 34.8384 81.1305 36.5656 81.3475 38.7895H77.2785C77.179 37.5044 76.8218 36.5747 76.207 36.0005C75.6011 35.4172 74.6743 35.1255 73.4265 35.1255C72.0701 35.1255 71.0529 35.6177 70.3747 36.6021C69.7056 37.5773 69.362 39.0949 69.3439 41.1548V42.6587C69.3439 44.8097 69.6649 46.382 70.3069 47.3755C70.958 48.369 71.9797 48.8657 73.3722 48.8657C74.6291 48.8657 75.565 48.5786 76.1798 48.0044C76.8038 47.4211 77.1609 46.5233 77.2514 45.311H81.3204Z" fill="white"/>
<path d="M95.8332 32.0356H99.9157V51.9419H95.8332V38.7212L87.9257 51.9419H83.8567V32.0356H87.9257V45.2837L95.8332 32.0356Z" fill="white"/>
</svg>
