<svg width="27" height="27" viewBox="0 0 27 27" fill="none" xmlns="http://www.w3.org/2000/svg">
<path d="M24 21.75H3C2.80109 21.75 2.61032 21.671 2.46967 21.5303C2.32902 21.3897 2.25 21.1989 2.25 21C2.25 20.8011 2.32902 20.6103 2.46967 20.4697C2.61032 20.329 2.80109 20.25 3 20.25H24C24.1989 20.25 24.3897 20.329 24.5303 20.4697C24.671 20.6103 24.75 20.8011 24.75 21C24.75 21.1989 24.671 21.3897 24.5303 21.5303C24.3897 21.671 24.1989 21.75 24 21.75Z" fill="white"/>
<path d="M24 14.25H3C2.80109 14.25 2.61032 14.171 2.46967 14.0303C2.32902 13.8897 2.25 13.6989 2.25 13.5C2.25 13.3011 2.32902 13.1103 2.46967 12.9697C2.61032 12.829 2.80109 12.75 3 12.75H24C24.1989 12.75 24.3897 12.829 24.5303 12.9697C24.671 13.1103 24.75 13.3011 24.75 13.5C24.75 13.6989 24.671 13.8897 24.5303 14.0303C24.3897 14.171 24.1989 14.25 24 14.25Z" fill="white"/>
<path d="M24 6.75H3C2.80109 6.75 2.61032 6.67098 2.46967 6.53033C2.32902 6.38968 2.25 6.19891 2.25 6C2.25 5.80109 2.32902 5.61032 2.46967 5.46967C2.61032 5.32902 2.80109 5.25 3 5.25H24C24.1989 5.25 24.3897 5.32902 24.5303 5.46967C24.671 5.61032 24.75 5.80109 24.75 6C24.75 6.19891 24.671 6.38968 24.5303 6.53033C24.3897 6.67098 24.1989 6.75 24 6.75Z" fill="white"/>
</svg>
