<svg width="16" height="16" viewBox="0 0 16 16" fill="none" xmlns="http://www.w3.org/2000/svg">
<path d="M14.6691 8.96421C14.526 8.92842 14.3828 8.96421 14.2576 9.05366C13.7924 9.44728 13.2557 9.76932 12.6652 9.98402C12.1106 10.1987 11.5023 10.3061 10.8582 10.3061C9.409 10.3061 8.08503 9.71565 7.13678 8.7674C6.18853 7.81915 5.59811 6.49518 5.59811 5.04597C5.59811 4.43766 5.70546 3.84724 5.88438 3.3105C6.08118 2.73797 6.36744 2.21912 6.74317 1.77183C6.90419 1.57502 6.86841 1.28876 6.6716 1.12774C6.54636 1.03828 6.40323 1.0025 6.2601 1.03828C4.73932 1.44978 3.41535 2.36225 2.4671 3.57887C1.55464 4.7776 1 6.26259 1 7.89072C1 9.84089 1.78723 11.6121 3.07541 12.9003C4.3636 14.1885 6.13486 14.9757 8.08503 14.9757C9.73104 14.9757 11.2518 14.4032 12.4684 13.455C13.703 12.4888 14.5975 11.1112 14.9732 9.53673C15.0627 9.26836 14.9196 9.01788 14.6691 8.96421ZM11.9317 12.7035C10.894 13.5265 9.57002 14.0275 8.12081 14.0275C6.42112 14.0275 4.88245 13.3297 3.77318 12.2205C2.66391 11.1112 1.96614 9.57252 1.96614 7.87283C1.96614 6.4594 2.43132 5.17121 3.23644 4.13351C3.79107 3.41785 4.48884 2.82743 5.29396 2.41592C5.2045 2.61273 5.11504 2.80954 5.04348 3.02423C4.81089 3.66833 4.70354 4.3482 4.70354 5.06386C4.70354 6.76355 5.40131 8.32011 6.51058 9.42938C7.61985 10.5387 9.17641 11.2364 10.8761 11.2364C11.6275 11.2364 12.3432 11.1112 13.0052 10.8607C13.2378 10.7712 13.4704 10.6818 13.6851 10.5744C13.2557 11.3974 12.6652 12.131 11.9317 12.7035Z" fill="#02014A"/>
</svg>
