<svg width="260" height="170" viewBox="0 0 260 170" fill="none" xmlns="http://www.w3.org/2000/svg">
<rect opacity="0.7" width="260" height="170" rx="16" fill="#FEC000"/>
<g clip-path="url(#clip0)">
<path d="M143.763 16.8625C145.367 20.272 141.968 21.2378 138.074 23.0653C134.181 24.8927 131.267 26.8899 129.663 23.4804C128.059 20.0708 126.758 13.3035 132.266 10.7182C137.963 8.0439 142.159 13.453 143.763 16.8625Z" fill="#2F2E41"/>
<path d="M135.819 23.5677C138.713 23.5677 141.06 21.2237 141.06 18.3323C141.06 15.4408 138.713 13.0968 135.819 13.0968C132.924 13.0968 130.577 15.4408 130.577 18.3323C130.577 21.2237 132.924 23.5677 135.819 23.5677Z" fill="#FFB8B8"/>
<path d="M161.787 41.5504C161.605 41.3138 161.424 41.0815 161.24 40.8555C161.003 40.5613 160.765 40.2764 160.525 40.0007C157.809 36.8694 154.919 34.8977 151.737 34.6866H151.733L151.686 34.6824L145.346 40.8555L143.19 42.953L143.237 43.0681L144.4 45.9607H164.778C163.86 44.4386 162.861 42.9664 161.787 41.5504Z" fill="#2F2E41"/>
<path d="M130.119 20.44L131.995 19.5594L131.733 16.8558L132.988 19.0932L133.885 18.6723L133.732 17.0952L134.464 18.4003L141.128 15.2727C140.502 13.9424 139.373 12.9148 137.988 12.4162C136.604 11.9176 135.078 11.9886 133.746 12.6137L132.781 13.067C131.449 13.6921 130.42 14.8201 129.921 16.2028C129.422 17.5856 129.493 19.1097 130.119 20.44Z" fill="#2F2E41"/>
<path d="M173.545 115.472H64.1032C63.1697 115.471 62.2746 115.1 61.6145 114.441C60.9544 113.781 60.5831 112.887 60.582 111.955V46.2685C60.5828 45.5854 60.8548 44.9304 61.3384 44.4473C61.822 43.9643 62.4777 43.6925 63.1616 43.6917H174.442C175.138 43.6925 175.805 43.969 176.297 44.4604C176.789 44.9518 177.065 45.6181 177.066 46.3131V111.955C177.065 112.887 176.694 113.781 176.034 114.441C175.374 115.1 174.479 115.471 173.545 115.472Z" fill="#F2F2F2"/>
<path d="M67.517 111.955H170.13C171.036 111.955 171.904 111.595 172.544 110.956C173.185 110.316 173.544 109.449 173.544 108.544V52.7925C173.544 51.888 173.185 51.0205 172.544 50.3809C171.904 49.7413 171.036 49.3819 170.13 49.3819H67.517C66.6114 49.3819 65.7429 49.7413 65.1026 50.3809C64.4623 51.0205 64.1025 51.888 64.1025 52.7925V108.544C64.1025 109.449 64.4623 110.316 65.1026 110.956C65.7429 111.595 66.6114 111.955 67.517 111.955Z" fill="white"/>
<path d="M177.017 46.0673H60.5322V44.2767C60.5336 43.3411 60.9064 42.4443 61.5689 41.7829C62.2315 41.1216 63.1296 40.7497 64.0662 40.7489H173.483C174.419 40.7497 175.318 41.1216 175.98 41.7829C176.643 42.4443 177.015 43.3411 177.017 44.2767V46.0673Z" fill="#6E17F2"/>
<path d="M66.9541 44.3265C67.459 44.3265 67.8682 43.9177 67.8682 43.4134C67.8682 42.9092 67.459 42.5004 66.9541 42.5004C66.4493 42.5004 66.04 42.9092 66.04 43.4134C66.04 43.9177 66.4493 44.3265 66.9541 44.3265Z" fill="white"/>
<path d="M70.4239 44.3265C70.9287 44.3265 71.338 43.9177 71.338 43.4134C71.338 42.9092 70.9287 42.5004 70.4239 42.5004C69.919 42.5004 69.5098 42.9092 69.5098 43.4134C69.5098 43.9177 69.919 44.3265 70.4239 44.3265Z" fill="white"/>
<path d="M73.8936 44.3265C74.3984 44.3265 74.8077 43.9177 74.8077 43.4134C74.8077 42.9092 74.3984 42.5004 73.8936 42.5004C73.3887 42.5004 72.9795 42.9092 72.9795 43.4134C72.9795 43.9177 73.3887 44.3265 73.8936 44.3265Z" fill="white"/>
<path d="M122.026 99.8641H112.85C112.312 99.8635 111.797 99.65 111.417 99.2703C111.037 98.8907 110.823 98.376 110.822 97.8391V88.6732C110.823 88.1363 111.037 87.6216 111.417 87.2419C111.797 86.8623 112.312 86.6487 112.85 86.6481H122.026C122.563 86.6487 123.079 86.8623 123.459 87.2419C123.839 87.6216 124.053 88.1363 124.053 88.6732V97.8391C124.053 98.376 123.839 98.8907 123.459 99.2703C123.079 99.65 122.563 99.8635 122.026 99.8641ZM112.85 87.0745C112.425 87.0749 112.018 87.2435 111.718 87.5432C111.418 87.8429 111.25 88.2493 111.249 88.6732V97.8391C111.25 98.2629 111.418 98.6693 111.718 98.969C112.018 99.2687 112.425 99.4373 112.85 99.4378H122.026C122.45 99.4373 122.857 99.2687 123.157 98.969C123.457 98.6693 123.626 98.2629 123.627 97.8391V88.6732C123.626 88.2493 123.457 87.8429 123.157 87.5432C122.857 87.2435 122.45 87.0749 122.026 87.0745H112.85Z" fill="#CCCCCC"/>
<path d="M120.212 97.3062H114.664C114.494 97.306 114.331 97.2385 114.211 97.1187C114.091 96.9988 114.024 96.8362 114.023 96.6667V89.8455C114.024 89.676 114.091 89.5134 114.211 89.3936C114.331 89.2737 114.494 89.2062 114.664 89.2061H118.684C118.83 89.2062 118.971 89.2559 119.085 89.3471L120.613 90.5736C120.688 90.6333 120.748 90.7092 120.79 90.7955C120.831 90.8818 120.853 90.9763 120.852 91.072V96.6667C120.852 96.8362 120.785 96.9988 120.665 97.1187C120.545 97.2385 120.382 97.306 120.212 97.3062ZM114.664 89.6324C114.607 89.6324 114.553 89.6549 114.513 89.6949C114.473 89.7349 114.45 89.789 114.45 89.8455V96.6667C114.45 96.7232 114.473 96.7774 114.513 96.8173C114.553 96.8573 114.607 96.8798 114.664 96.8798H120.212C120.269 96.8798 120.323 96.8573 120.363 96.8173C120.403 96.7774 120.425 96.7232 120.426 96.6667V91.072C120.426 91.0401 120.419 91.0086 120.405 90.9799C120.391 90.9511 120.371 90.9258 120.346 90.9059L118.818 89.6793C118.78 89.649 118.733 89.6324 118.684 89.6324H114.664Z" fill="#CCCCCC"/>
<path d="M119.144 92.1903H115.73C115.673 92.1903 115.619 92.1678 115.579 92.1279C115.539 92.0879 115.517 92.0337 115.517 91.9771C115.517 91.9206 115.539 91.8664 115.579 91.8264C115.619 91.7864 115.673 91.764 115.73 91.764H119.144C119.201 91.764 119.255 91.7864 119.295 91.8264C119.335 91.8664 119.358 91.9206 119.358 91.9771C119.358 92.0337 119.335 92.0879 119.295 92.1279C119.255 92.1678 119.201 92.1903 119.144 92.1903Z" fill="#CCCCCC"/>
<path d="M119.144 93.4693H115.73C115.673 93.4693 115.619 93.4468 115.579 93.4068C115.539 93.3669 115.517 93.3126 115.517 93.2561C115.517 93.1996 115.539 93.1454 115.579 93.1054C115.619 93.0654 115.673 93.043 115.73 93.043H119.144C119.201 93.043 119.255 93.0654 119.295 93.1054C119.335 93.1454 119.358 93.1996 119.358 93.2561C119.358 93.3126 119.335 93.3669 119.295 93.4068C119.255 93.4468 119.201 93.4693 119.144 93.4693Z" fill="#CCCCCC"/>
<path d="M119.144 94.7482H115.73C115.673 94.7482 115.619 94.7258 115.579 94.6858C115.539 94.6458 115.517 94.5916 115.517 94.5351C115.517 94.4785 115.539 94.4243 115.579 94.3843C115.619 94.3444 115.673 94.3219 115.73 94.3219H119.144C119.201 94.3219 119.255 94.3444 119.295 94.3843C119.335 94.4243 119.358 94.4785 119.358 94.5351C119.358 94.5916 119.335 94.6458 119.295 94.6858C119.255 94.7258 119.201 94.7482 119.144 94.7482Z" fill="#CCCCCC"/>
<path d="M143.793 99.8641H134.616C134.079 99.8635 133.563 99.65 133.183 99.2703C132.803 98.8907 132.589 98.376 132.589 97.8391V88.6732C132.589 88.1363 132.803 87.6216 133.183 87.2419C133.563 86.8623 134.079 86.6487 134.616 86.6481H143.793C144.33 86.6487 144.845 86.8623 145.225 87.2419C145.606 87.6216 145.819 88.1363 145.82 88.6732V97.8391C145.819 98.376 145.606 98.8907 145.225 99.2703C144.845 99.65 144.33 99.8635 143.793 99.8641ZM134.616 87.0745C134.192 87.0749 133.785 87.2435 133.485 87.5432C133.185 87.8429 133.016 88.2493 133.016 88.6732V97.8391C133.016 98.2629 133.185 98.6693 133.485 98.969C133.785 99.2687 134.192 99.4373 134.616 99.4378H143.793C144.217 99.4373 144.624 99.2687 144.924 98.969C145.224 98.6693 145.393 98.2629 145.393 97.8391V88.6732C145.393 88.2493 145.224 87.8429 144.924 87.5432C144.624 87.2435 144.217 87.0749 143.793 87.0745H134.616Z" fill="#CCCCCC"/>
<path d="M142.193 95.6009H136.217C136.048 95.6007 135.885 95.5333 135.765 95.4134C135.645 95.2935 135.577 95.1309 135.577 94.9614V91.5508C135.577 91.3813 135.645 91.2187 135.765 91.0988C135.885 90.9789 136.048 90.9115 136.217 90.9113H142.193C142.362 90.9115 142.525 90.9789 142.645 91.0988C142.765 91.2187 142.833 91.3813 142.833 91.5508V94.9614C142.833 95.1309 142.765 95.2935 142.645 95.4134C142.525 95.5333 142.362 95.6007 142.193 95.6009ZM136.217 91.3377C136.161 91.3377 136.107 91.3602 136.067 91.4001C136.027 91.4401 136.004 91.4943 136.004 91.5508V94.9614C136.004 95.0179 136.027 95.0721 136.067 95.1121C136.107 95.152 136.161 95.1745 136.217 95.1746H142.193C142.249 95.1745 142.304 95.152 142.344 95.1121C142.384 95.0721 142.406 95.0179 142.406 94.9614V91.5508C142.406 91.4943 142.384 91.4401 142.344 91.4001C142.304 91.3602 142.249 91.3377 142.193 91.3377H136.217Z" fill="#CCCCCC"/>
<path d="M139.205 93.8185C139.085 93.8187 138.967 93.7852 138.865 93.722L135.677 91.7316C135.629 91.7016 135.595 91.6538 135.583 91.5988C135.57 91.5437 135.58 91.4859 135.61 91.438C135.64 91.3901 135.687 91.3561 135.742 91.3433C135.798 91.3306 135.855 91.3402 135.903 91.37L139.092 93.3604C139.126 93.3814 139.165 93.3926 139.205 93.3926C139.245 93.3926 139.284 93.3814 139.318 93.3604L142.506 91.37C142.554 91.3402 142.612 91.3306 142.667 91.3433C142.722 91.3561 142.77 91.3901 142.8 91.438C142.83 91.4859 142.84 91.5437 142.827 91.5988C142.814 91.6538 142.78 91.7016 142.732 91.7316L139.544 93.722C139.442 93.7853 139.325 93.8187 139.205 93.8185Z" fill="#CCCCCC"/>
<path d="M100.258 99.8641H91.082C90.5445 99.8635 90.0292 99.65 89.6492 99.2703C89.2691 98.8907 89.0553 98.376 89.0547 97.8391V88.6732C89.0553 88.1363 89.2691 87.6216 89.6492 87.2419C90.0292 86.8623 90.5445 86.6487 91.082 86.6481H100.258C100.796 86.6487 101.311 86.8623 101.691 87.2419C102.071 87.6216 102.285 88.1363 102.286 88.6732V97.8391C102.285 98.376 102.071 98.8907 101.691 99.2703C101.311 99.65 100.796 99.8635 100.258 99.8641ZM91.082 87.0745C90.6577 87.0749 90.2509 87.2435 89.9508 87.5432C89.6508 87.8429 89.482 88.2493 89.4815 88.6732V97.8391C89.482 98.2629 89.6508 98.6693 89.9508 98.969C90.2509 99.2687 90.6577 99.4373 91.082 99.4378H100.258C100.683 99.4373 101.09 99.2687 101.39 98.969C101.69 98.6693 101.858 98.2629 101.859 97.8391V88.6732C101.858 88.2493 101.69 87.8429 101.39 87.5432C101.09 87.2435 100.683 87.0749 100.258 87.0745H91.082Z" fill="#CCCCCC"/>
<path d="M98.6575 95.6009H92.6822C92.5125 95.6007 92.3497 95.5333 92.2297 95.4134C92.1097 95.2935 92.0422 95.1309 92.042 94.9614V91.5508C92.0422 91.3813 92.1097 91.2187 92.2297 91.0988C92.3497 90.9789 92.5125 90.9115 92.6822 90.9113H98.6575C98.8273 90.9115 98.99 90.9789 99.11 91.0988C99.23 91.2187 99.2975 91.3813 99.2977 91.5508V94.9614C99.2975 95.1309 99.23 95.2935 99.11 95.4134C98.99 95.5333 98.8273 95.6007 98.6575 95.6009ZM92.6822 91.3377C92.6256 91.3377 92.5714 91.3602 92.5314 91.4001C92.4914 91.4401 92.4689 91.4943 92.4688 91.5508V94.9614C92.4689 95.0179 92.4914 95.0721 92.5314 95.1121C92.5714 95.152 92.6256 95.1745 92.6822 95.1746H98.6575C98.7141 95.1745 98.7683 95.152 98.8084 95.1121C98.8484 95.0721 98.8709 95.0179 98.8709 94.9614V91.5508C98.8709 91.4943 98.8484 91.4401 98.8084 91.4001C98.7683 91.3602 98.7141 91.3377 98.6575 91.3377H92.6822Z" fill="#CCCCCC"/>
<path d="M97.7107 95.6009H93.4161C93.3412 95.6009 93.2676 95.5812 93.2027 95.5438C93.1378 95.5064 93.0839 95.4526 93.0464 95.3877C93.009 95.3229 92.9892 95.2494 92.9893 95.1746C92.9893 95.0997 93.009 95.0262 93.0465 94.9614L94.3401 92.7232C94.3775 92.6584 94.4314 92.6046 94.4963 92.5672C94.5612 92.5297 94.6348 92.51 94.7097 92.51C94.7846 92.51 94.8582 92.5297 94.9231 92.5672C94.988 92.6046 95.0419 92.6584 95.0794 92.7232L95.9148 94.1687L96.3989 93.3313C96.4363 93.2664 96.4902 93.2126 96.5551 93.1752C96.62 93.1378 96.6936 93.1181 96.7685 93.1181C96.8434 93.1181 96.917 93.1378 96.9819 93.1752C97.0468 93.2126 97.1007 93.2664 97.1382 93.3313L98.0803 94.9614C98.1178 95.0262 98.1375 95.0997 98.1375 95.1746C98.1375 95.2494 98.1178 95.3229 98.0803 95.3877C98.0429 95.4526 97.989 95.5064 97.9241 95.5438C97.8592 95.5812 97.7856 95.6009 97.7106 95.6009H97.7107ZM97.7107 95.1746L96.7685 93.5444L96.0997 94.7016C96.081 94.734 96.054 94.7609 96.0216 94.7796C95.9891 94.7983 95.9523 94.8082 95.9149 94.8082C95.8774 94.8082 95.8406 94.7983 95.8081 94.7796C95.7757 94.7609 95.7487 94.734 95.73 94.7016L94.7098 92.9364L93.4161 95.1746H97.7107Z" fill="#CCCCCC"/>
<path d="M98.0176 92.6166C98.2534 92.6166 98.4444 92.4257 98.4444 92.1903C98.4444 91.9548 98.2534 91.7639 98.0176 91.7639C97.7819 91.7639 97.5908 91.9548 97.5908 92.1903C97.5908 92.4257 97.7819 92.6166 98.0176 92.6166Z" fill="#CCCCCC"/>
<path d="M200.071 148.16L197.455 148.16L196.21 138.08L200.071 138.08L200.071 148.16Z" fill="#FFB8B8"/>
<path d="M200.737 150.693L192.301 150.693V150.586C192.301 150.156 192.386 149.729 192.551 149.331C192.716 148.933 192.958 148.572 193.262 148.267C193.567 147.963 193.929 147.721 194.328 147.556C194.726 147.391 195.153 147.307 195.584 147.307H195.585L200.737 147.307L200.737 150.693Z" fill="#2F2E41"/>
<path d="M210.741 148.16L208.124 148.16L206.88 138.08L210.741 138.08L210.741 148.16Z" fill="#FFB8B8"/>
<path d="M211.408 150.693L202.972 150.693V150.586C202.972 150.156 203.057 149.729 203.222 149.331C203.387 148.933 203.628 148.572 203.933 148.267C204.238 147.963 204.6 147.721 204.999 147.556C205.397 147.391 205.824 147.307 206.255 147.307H206.255L211.408 147.307L211.408 150.693Z" fill="#2F2E41"/>
<path d="M209.956 143.79L207.533 143.054C207.352 142.999 207.192 142.893 207.072 142.747C206.951 142.602 206.877 142.425 206.857 142.237L204.598 120.851C204.596 120.826 204.585 120.801 204.566 120.784C204.547 120.766 204.522 120.756 204.496 120.756C204.47 120.754 204.444 120.761 204.424 120.778C204.403 120.794 204.39 120.817 204.387 120.843L200.603 141.562C200.58 141.688 200.532 141.808 200.462 141.915C200.392 142.022 200.302 142.114 200.196 142.185C200.09 142.257 199.97 142.306 199.845 142.331C199.719 142.356 199.59 142.355 199.465 142.33L196.368 141.692C196.141 141.645 195.938 141.517 195.798 141.333C195.658 141.148 195.589 140.919 195.604 140.688L197.905 106.729L213.513 105.047L211.194 142.931C211.179 143.175 211.072 143.403 210.894 143.571C210.716 143.738 210.481 143.832 210.237 143.832C210.142 143.832 210.047 143.818 209.956 143.79Z" fill="#2F2E41"/>
<path d="M209.942 77.1558C212.836 77.1558 215.183 74.8119 215.183 71.9204C215.183 69.0289 212.836 66.685 209.942 66.685C207.047 66.685 204.7 69.0289 204.7 71.9204C204.7 74.8119 207.047 77.1558 209.942 77.1558Z" fill="#FFB8B8"/>
<path d="M197.882 106.928L201.266 85.6441C201.446 84.5124 201.865 83.432 202.496 82.4747C203.126 81.5175 203.954 80.7053 204.923 80.0923C205.892 79.4793 206.981 79.0794 208.117 78.9194C209.252 78.7593 210.409 78.8428 211.511 79.1641C213.436 79.7203 215.084 80.9734 216.134 82.6787C217.184 84.3839 217.559 86.4188 217.187 88.3859L213.647 107.394L197.882 106.928Z" fill="#6E17F2"/>
<path d="M211.388 110.737C211.65 110.564 211.871 110.336 212.035 110.069C212.199 109.802 212.302 109.502 212.338 109.191C212.374 108.879 212.34 108.564 212.241 108.267C212.141 107.97 211.977 107.698 211.761 107.471L215.26 100.703L211.32 101.123L208.601 107.486C208.243 107.874 208.04 108.379 208.031 108.907C208.021 109.434 208.206 109.947 208.549 110.348C208.893 110.749 209.371 111.009 209.895 111.081C210.418 111.153 210.949 111.03 211.388 110.737V110.737Z" fill="#FFB8B8"/>
<path d="M212.138 106.277C211.945 106.25 211.764 106.164 211.62 106.032L210.282 104.796C210.137 104.662 210.037 104.487 209.995 104.294C209.954 104.102 209.972 103.901 210.049 103.719L212.724 97.3842L212.345 84.8675C212.399 84.4651 212.533 84.0774 212.737 83.7266C212.942 83.3758 213.214 83.0687 213.537 82.8228C213.861 82.577 214.23 82.3973 214.623 82.2939C215.016 82.1906 215.426 82.1656 215.828 82.2205C216.231 82.2754 216.619 82.409 216.97 82.6138C217.321 82.8185 217.628 83.0904 217.874 83.4137C218.12 83.7371 218.3 84.1058 218.403 84.4985C218.506 84.8913 218.53 85.3005 218.475 85.7027L219.124 93.571C219.321 95.959 218.643 98.3374 217.217 100.264L213.044 105.898C212.964 106.006 212.862 106.096 212.744 106.163C212.627 106.229 212.497 106.27 212.362 106.282C212.288 106.29 212.212 106.288 212.138 106.277Z" fill="#6E17F2"/>
<path d="M179.758 69.0679C179.815 69.3761 179.94 69.6679 180.122 69.923C180.304 70.178 180.54 70.3901 180.813 70.5442C181.086 70.6983 181.39 70.7906 181.703 70.8148C182.016 70.839 182.33 70.7944 182.624 70.6841L187.499 76.5414L188.648 72.7531L183.842 67.7717C183.624 67.2912 183.237 66.9074 182.754 66.6929C182.272 66.4784 181.727 66.4482 181.224 66.608C180.721 66.7677 180.293 67.1064 180.023 67.5598C179.753 68.0132 179.659 68.5498 179.758 69.0679Z" fill="#FFB8B8"/>
<path d="M183.576 71.4958C183.677 71.3284 183.826 71.1956 184.004 71.1152L185.665 70.3655C185.845 70.2848 186.046 70.2612 186.24 70.298C186.434 70.3348 186.612 70.4302 186.749 70.5713L191.546 75.5021L203.234 80.0332C203.583 80.2402 203.889 80.5141 204.133 80.8391C204.376 81.1641 204.554 81.534 204.654 81.9274C204.755 82.3209 204.777 82.7303 204.719 83.1323C204.661 83.5342 204.524 83.9208 204.316 84.27C204.109 84.6191 203.834 84.9239 203.508 85.167C203.183 85.4101 202.812 85.5866 202.418 85.6866C202.024 85.7866 201.614 85.808 201.212 85.7496C200.81 85.6912 200.423 85.5542 200.073 85.3464L192.567 82.8755C190.288 82.1259 188.36 80.5752 187.14 78.5118L183.573 72.4771C183.504 72.361 183.461 72.2318 183.446 72.098C183.43 71.9641 183.443 71.8285 183.484 71.7C183.507 71.6285 183.538 71.56 183.576 71.4958Z" fill="#6E17F2"/>
<path opacity="0.1" d="M214.193 90.0742L213.979 96.8954L210.048 103.719L213.33 96.1148L214.193 90.0742Z" fill="black"/>
<path d="M209.342 72.9043C209.012 72.947 208.679 72.869 208.403 72.6846C208.127 72.5003 207.927 72.2222 207.841 71.902C207.758 71.5334 207.576 71.1944 207.315 70.9212C207.054 70.6481 206.723 70.4512 206.358 70.3515C205.396 70.1321 204.221 70.5841 203.517 69.8565C203.366 69.6904 203.257 69.4908 203.198 69.2743C203.14 69.0578 203.134 68.8305 203.181 68.6111C203.31 67.904 203.817 67.3699 204.368 66.9426C205.527 66.0477 206.931 65.5238 208.394 65.4397C209.151 65.4178 209.909 65.4555 210.66 65.5523C211.447 65.6019 212.225 65.744 212.979 65.9755C213.837 66.2991 214.6 66.8335 215.197 67.5295C215.794 68.2255 216.205 69.0605 216.394 69.9574C216.566 70.8571 216.539 71.7835 216.316 72.6719C216.093 73.5603 215.678 74.3893 215.101 75.1011C214.41 75.9605 213.519 76.638 212.506 77.0747C212.264 77.1885 211.988 77.2025 211.736 77.1136C211.105 76.863 211.208 76.0821 211.496 75.5613C211.804 75.0039 212.278 74.4643 212.03 73.786C211.906 73.4714 211.668 73.2152 211.363 73.0684C210.735 72.7488 210.034 72.8245 209.359 72.9023L209.342 72.9043Z" fill="#2F2E41"/>
<path d="M178.006 75.8608H113.132C112.198 75.8598 111.303 75.4889 110.643 74.8295C109.983 74.1701 109.611 73.2761 109.61 72.3437V58.4882C109.611 57.5557 109.983 56.6617 110.643 56.0024C111.303 55.343 112.198 54.9721 113.132 54.9711H178.006C178.94 54.9721 179.835 55.343 180.495 56.0024C181.155 56.6618 181.526 57.5557 181.528 58.4882V72.3437C181.526 73.2761 181.155 74.1701 180.495 74.8295C179.835 75.4888 178.94 75.8597 178.006 75.8608Z" fill="white"/>
<path d="M178.006 75.9674H113.131C112.169 75.9664 111.247 75.5842 110.567 74.9049C109.887 74.2255 109.504 73.3044 109.503 72.3437V58.4883C109.504 57.5275 109.887 56.6064 110.567 55.9271C111.247 55.2477 112.169 54.8656 113.131 54.8645H178.006C178.967 54.8656 179.89 55.2477 180.57 55.9271C181.25 56.6064 181.632 57.5275 181.634 58.4883V72.3437C181.632 73.3044 181.25 74.2255 180.57 74.9049C179.89 75.5842 178.967 75.9664 178.006 75.9674ZM113.131 55.2908C112.282 55.2918 111.468 55.629 110.868 56.2284C110.268 56.8278 109.931 57.6405 109.93 58.4883V72.3437C109.931 73.1914 110.268 74.0041 110.868 74.6036C111.468 75.203 112.282 75.5402 113.131 75.5411H178.006C178.854 75.5402 179.668 75.203 180.268 74.6036C180.868 74.0041 181.206 73.1914 181.207 72.3437V58.4883C181.206 57.6405 180.868 56.8278 180.268 56.2284C179.668 55.629 178.854 55.2918 178.006 55.2908H113.131Z" fill="#3F3D56"/>
<path d="M170.11 72.4503H121.027C120.093 72.4492 119.198 72.0784 118.538 71.419C117.878 70.7596 117.507 69.8656 117.506 68.9331V61.6857C117.507 60.7532 117.878 59.8592 118.538 59.1998C119.198 58.5405 120.093 58.1696 121.027 58.1685H170.11C171.044 58.1696 171.939 58.5405 172.599 59.1998C173.259 59.8592 173.63 60.7532 173.631 61.6857V68.9331C173.63 69.8656 173.259 70.7596 172.599 71.419C171.939 72.0784 171.044 72.4492 170.11 72.4503Z" fill="#F2F2F2"/>
<path d="M131.59 68.544C133.916 68.544 135.801 66.6608 135.801 64.3378C135.801 62.0148 133.916 60.1317 131.59 60.1317C129.264 60.1317 127.379 62.0148 127.379 64.3378C127.379 66.6608 129.264 68.544 131.59 68.544Z" fill="#FEC000"/>
<path d="M167.06 72.0258L161.116 67.0464L155.275 62.1531C155.121 62.0239 154.926 61.9533 154.725 61.9537C154.523 61.9541 154.329 62.0255 154.175 62.1552L148.353 67.071L146.931 68.2718L144.786 66.4754L138.27 61.0162C138.115 60.8871 137.921 60.8165 137.719 60.8169C137.518 60.8173 137.324 60.8886 137.17 61.0183L130.674 66.5026L124.077 72.0732C124.043 72.1014 124.019 72.1392 124.008 72.1815C123.997 72.2238 123.999 72.2684 124.014 72.3095C124.029 72.3505 124.056 72.3859 124.092 72.4109C124.128 72.4359 124.171 72.4493 124.215 72.4492L137.742 72.4231L142.024 72.4149L141.982 72.4503L154.745 72.4257L166.923 72.4023C166.967 72.4022 167.01 72.3887 167.045 72.3636C167.081 72.3385 167.108 72.3029 167.123 72.2618C167.138 72.2207 167.14 72.176 167.129 72.1338C167.118 72.0916 167.093 72.0539 167.06 72.0258Z" fill="#3F3D56"/>
<path d="M222.787 151H181.813C181.756 151 181.702 150.978 181.662 150.938C181.622 150.898 181.6 150.843 181.6 150.787C181.6 150.73 181.622 150.676 181.662 150.636C181.702 150.596 181.756 150.574 181.813 150.574H222.787C222.843 150.574 222.898 150.596 222.938 150.636C222.978 150.676 223 150.73 223 150.787C223 150.843 222.978 150.898 222.938 150.938C222.898 150.978 222.843 151 222.787 151Z" fill="#CCCCCC"/>
<path d="M164.908 38.1185C164.738 37.8419 164.513 37.6028 164.247 37.4159C163.981 37.229 163.68 37.0982 163.361 37.0314C163.245 37.0069 163.126 36.9919 163.007 36.9866L146.748 22.4661C146.428 22.1382 146.002 21.9349 145.546 21.8927C145.456 21.8824 145.366 21.8795 145.275 21.8842C144.9 21.9012 144.538 22.0271 144.233 22.2463C143.929 22.4656 143.695 22.7688 143.56 23.1189C143.425 23.4689 143.395 23.8506 143.474 24.2174C143.552 24.5841 143.737 24.92 144.003 25.1839L150.228 30.6046L160.45 39.5041C160.459 39.6717 160.484 39.838 160.525 40.0007C160.647 40.472 160.91 40.895 161.279 41.2136C161.647 41.5323 162.104 41.7315 162.589 41.7849C163.031 41.8364 163.478 41.7626 163.88 41.5717C164.198 41.4229 164.481 41.2069 164.708 40.9386C164.731 40.9109 164.753 40.8853 164.774 40.8555C165.072 40.4671 165.245 39.997 165.269 39.508C165.293 39.019 165.167 38.5342 164.908 38.1185H164.908Z" fill="#FFB8B8"/>
<path d="M137.097 52.1125L136.946 45.9607L136.818 40.8555L136.73 37.2829L136.557 30.319C136.523 29.9461 136.381 29.5913 136.148 29.2978C135.915 29.0042 135.602 28.7847 135.247 28.6661C134.891 28.5474 134.509 28.5347 134.146 28.6295C133.784 28.7243 133.456 28.9225 133.205 29.1999C133.145 29.2633 133.092 29.3317 133.045 29.4045C132.782 29.7804 132.664 30.2383 132.712 30.6941L133.092 40.8555L133.282 45.9607L133.525 52.4728C133.455 52.5685 133.391 52.6689 133.335 52.7733C133.183 53.0608 133.091 53.376 133.065 53.6999C133.039 54.0239 133.079 54.3497 133.183 54.6577C133.292 54.9806 133.467 55.277 133.699 55.5272C133.93 55.7774 134.212 55.9758 134.526 56.1093C134.839 56.2428 135.178 56.3084 135.519 56.3018C135.86 56.2952 136.196 56.2165 136.504 56.0709C136.862 55.9018 137.173 55.6472 137.409 55.3296C137.645 55.012 137.799 54.6412 137.858 54.2499C137.917 53.8586 137.878 53.4589 137.745 53.0861C137.613 52.7134 137.39 52.379 137.097 52.1125H137.097Z" fill="#FFB8B8"/>
<path d="M151.737 34.6866L150.228 30.6046L147.787 23.9924C147.611 23.5113 147.328 23.076 146.961 22.7187C146.593 22.3615 146.15 22.0916 145.663 21.929C145.625 21.9162 145.585 21.9034 145.546 21.8927C145.075 21.7499 144.579 21.7106 144.091 21.7776C143.603 21.8446 143.136 22.0162 142.721 22.2807L134.498 27.4903C133.745 27.9663 133.207 28.7161 132.997 29.5812C132.787 30.4463 132.922 31.359 133.374 32.1266C134.402 33.9026 135.522 35.6237 136.73 37.2829C137.689 38.5853 139.473 38.7239 139.782 40.8555H145.845L151.982 35.3517L151.737 34.6866Z" fill="#CCCCCC"/>
<path d="M57.5895 84.5751C60.3205 84.5751 62.5344 82.3637 62.5344 79.6358C62.5344 76.9079 60.3205 74.6965 57.5895 74.6965C54.8585 74.6965 52.6445 76.9079 52.6445 79.6358C52.6445 82.3637 54.8585 84.5751 57.5895 84.5751Z" fill="#A0616A"/>
<path d="M69.7286 76.2359C69.7774 76.2746 69.8246 76.3157 69.8703 76.3591C70.0975 76.5728 70.2769 76.8321 70.3967 77.1199C70.5166 77.4078 70.5742 77.7176 70.5658 78.0292C70.5574 78.3409 70.4832 78.6472 70.348 78.9281C70.2128 79.2091 70.0197 79.4584 69.7813 79.6596C69.7258 79.7062 69.6678 79.7498 69.6077 79.7903L69.9423 91.0761C69.9518 91.4456 69.8419 91.8082 69.6287 92.1103C69.4155 92.4124 69.1105 92.6378 68.759 92.753L68.7386 92.7574L59.5646 93.7333C59.3152 93.7598 59.063 93.7366 58.8226 93.6652C58.5822 93.5938 58.3583 93.4756 58.1639 93.3173C57.9695 93.159 57.8084 92.9638 57.69 92.7429C57.5715 92.5221 57.498 92.28 57.4738 92.0306C57.4495 91.7813 57.4749 91.5296 57.5486 91.2901C57.6222 91.0506 57.7426 90.8281 57.9029 90.6353C58.0631 90.4426 58.26 90.2835 58.4821 90.1671C58.7043 90.0508 58.9473 89.9796 59.1971 89.9576L65.7367 89.3823L66.8677 79.6087C66.7937 79.5433 66.7244 79.4727 66.6604 79.3976C66.3058 78.9784 66.1198 78.4426 66.1385 77.8941C66.1573 77.3456 66.3794 76.8237 66.7618 76.4296C67.1443 76.0356 67.6596 75.7975 68.2079 75.7617C68.7561 75.7259 69.2981 75.8949 69.7286 76.2359H69.7286Z" fill="#A0616A"/>
<path d="M65.7328 148.378H68.2013L69.3754 138.869H65.7324L65.7328 148.378Z" fill="#A0616A"/>
<path d="M65.1035 147.573L69.9644 147.573H69.9646C70.3714 147.573 70.7743 147.653 71.1501 147.809C71.526 147.964 71.8675 148.192 72.1551 148.48C72.4428 148.767 72.671 149.108 72.8266 149.483C72.9823 149.859 73.0624 150.261 73.0624 150.667V150.768L65.1037 150.768L65.1035 147.573Z" fill="#2F2E41"/>
<path d="M41.2002 144.97L43.321 146.231L49.2009 138.66L46.0707 136.798L41.2002 144.97Z" fill="#A0616A"/>
<path d="M41.0709 143.956L45.2475 146.44L45.2477 146.44C45.5972 146.648 45.9024 146.923 46.1456 147.248C46.3889 147.574 46.5656 147.944 46.6656 148.338C46.7656 148.732 46.7869 149.142 46.7284 149.544C46.6699 149.946 46.5326 150.333 46.3245 150.682L46.273 150.768L39.4346 146.701L41.0709 143.956Z" fill="#2F2E41"/>
<path d="M68.7838 145.02H66.0198C65.796 145.02 65.58 144.937 65.4136 144.788C65.2472 144.638 65.1422 144.433 65.1189 144.21L62.3325 118.047C62.3254 117.982 62.2969 117.92 62.2513 117.872C62.2056 117.824 62.1455 117.792 62.08 117.782C62.0145 117.771 61.9474 117.782 61.889 117.814C61.8306 117.845 61.7842 117.895 61.7569 117.955L56.7301 129.073L47.8303 143.569C47.7152 143.755 47.5368 143.893 47.328 143.958C47.1191 144.023 46.8938 144.011 46.6931 143.924L43.1378 142.361C43.0202 142.31 42.915 142.234 42.8291 142.138C42.7432 142.043 42.6786 141.93 42.6396 141.808C42.6005 141.686 42.5879 141.557 42.6026 141.429C42.6173 141.302 42.659 141.179 42.7249 141.069L50.9062 127.386L53.4153 115.857C52.6261 110.857 56.0092 103.424 56.0435 103.349L56.0603 103.313L65.3791 99.6748L65.4259 99.7319C69.1009 111.778 71.3404 124.743 69.6868 144.19C69.6664 144.416 69.5626 144.626 69.3957 144.779C69.2287 144.933 69.0105 145.018 68.7838 145.02Z" fill="#2F2E41"/>
<path d="M55.685 104.531L55.6416 104.44C55.6209 104.396 53.5487 100.031 51.9514 95.3654C51.6444 94.4632 51.5284 93.5071 51.6106 92.5577C51.6928 91.6084 51.9716 90.6864 52.4291 89.8502C52.8926 89.0054 53.5268 88.266 54.2913 87.6787C55.0559 87.0915 55.9342 86.6692 56.8706 86.4388C58.4963 86.0495 60.2079 86.2566 61.6936 87.0223C63.1792 87.788 64.3401 89.0613 64.9646 90.6103C66.2316 93.7751 65.8278 97.1531 65.4478 99.8097L65.4402 99.8629L65.3917 99.8861L55.685 104.531Z" fill="#3F3D56"/>
<path d="M63.5844 76.8457H55.7324V73.427C57.4558 72.7431 59.1423 72.1615 60.1617 73.427C61.0695 73.427 61.94 73.7872 62.5819 74.4283C63.2238 75.0694 63.5844 75.939 63.5844 76.8457V76.8457Z" fill="#2F2E41"/>
<path d="M55.298 72.8237C50.6039 72.8237 49.29 78.7008 49.29 82.0163C49.29 83.8654 50.1272 84.5267 51.4428 84.7505L51.9074 82.2755L52.9955 84.857C53.365 84.8588 53.7533 84.8517 54.1557 84.8442L54.5247 84.0854L55.3474 84.8306C58.6426 84.8355 61.3058 85.3153 61.3058 82.0163C61.3058 78.7008 60.1535 72.8237 55.298 72.8237Z" fill="#2F2E41"/>
<path d="M77.187 151H36.2134C36.1568 151 36.1025 150.978 36.0625 150.938C36.0225 150.898 36 150.843 36 150.787C36 150.73 36.0225 150.676 36.0625 150.636C36.1025 150.596 36.1568 150.574 36.2134 150.574H77.187C77.2436 150.574 77.2979 150.596 77.3379 150.636C77.3779 150.676 77.4004 150.73 77.4004 150.787C77.4004 150.843 77.3779 150.898 77.3379 150.938C77.2979 150.978 77.2436 151 77.187 151Z" fill="#CCCCCC"/>
<path d="M77.9576 80.8701H68.7812C68.2437 80.8695 67.7284 80.656 67.3484 80.2764C66.9683 79.8967 66.7545 79.382 66.7539 78.8451V69.6792C66.7545 69.1423 66.9683 68.6276 67.3484 68.248C67.7284 67.8683 68.2437 67.6548 68.7812 67.6542H77.9576C78.4951 67.6548 79.0104 67.8683 79.3905 68.248C79.7706 68.6276 79.9844 69.1423 79.985 69.6792V78.8451C79.9844 79.382 79.7706 79.8967 79.3905 80.2764C79.0104 80.656 78.4951 80.8695 77.9576 80.8701Z" fill="white"/>
<path d="M77.9576 80.8701H68.7812C68.2437 80.8695 67.7284 80.656 67.3484 80.2764C66.9683 79.8967 66.7545 79.382 66.7539 78.8451V69.6792C66.7545 69.1423 66.9683 68.6276 67.3484 68.248C67.7284 67.8683 68.2437 67.6548 68.7812 67.6542H77.9576C78.4951 67.6548 79.0104 67.8683 79.3905 68.248C79.7706 68.6276 79.9844 69.1423 79.985 69.6792V78.8451C79.9844 79.382 79.7706 79.8967 79.3905 80.2764C79.0104 80.656 78.4951 80.8695 77.9576 80.8701ZM68.7812 68.0805C68.3569 68.081 67.9501 68.2496 67.65 68.5493C67.35 68.849 67.1812 69.2553 67.1807 69.6792V78.8451C67.1812 79.269 67.35 79.6753 67.65 79.9751C67.9501 80.2748 68.3569 80.4433 68.7812 80.4438H77.9576C78.382 80.4433 78.7888 80.2748 79.0889 79.9751C79.3889 79.6753 79.5577 79.269 79.5582 78.8451V69.6792C79.5577 69.2553 79.3889 68.849 79.0889 68.5493C78.7888 68.2496 78.382 68.081 77.9576 68.0805H68.7812Z" fill="#3F3D56"/>
<path d="M76.3567 77.1398H70.3814C70.2117 77.1396 70.049 77.0722 69.9289 76.9523C69.8089 76.8324 69.7414 76.6699 69.7412 76.5003V72.024C69.7414 71.8544 69.8089 71.6919 69.9289 71.572C70.049 71.4521 70.2117 71.3847 70.3814 71.3845H72.0635C72.173 71.3841 72.2806 71.4119 72.3761 71.4652C72.4717 71.5184 72.5518 71.5954 72.6088 71.6887L73.0779 72.4503H76.3567C76.5265 72.4505 76.6892 72.5179 76.8092 72.6378C76.9293 72.7577 76.9968 72.9202 76.997 73.0898V76.5003C76.9968 76.6699 76.9293 76.8324 76.8092 76.9523C76.6892 77.0722 76.5265 77.1396 76.3567 77.1398Z" fill="#6E17F2"/>
<path d="M76.162 79.4013C76.1919 79.4559 76.2195 79.512 76.2448 79.5697C76.3711 79.8548 76.4357 80.1633 76.4343 80.475C76.433 80.7867 76.3657 81.0946 76.2369 81.3786C76.1081 81.6625 75.9207 81.9161 75.6869 82.1226C75.4532 82.3292 75.1784 82.4841 74.8805 82.5771C74.8112 82.5985 74.7409 82.6163 74.6697 82.6303L70.5938 93.1615C70.459 93.5057 70.2168 93.7973 69.903 93.9931C69.5892 94.1889 69.2205 94.2784 68.8517 94.2484L68.8312 94.2445L59.997 91.5881C59.7568 91.5158 59.5334 91.3968 59.3395 91.2378C59.1456 91.0788 58.9852 90.883 58.8675 90.6618C58.7498 90.4405 58.6772 90.1981 58.6538 89.9487C58.6304 89.6992 58.6567 89.4476 58.7312 89.2084C58.8057 88.9691 58.9269 88.747 59.0879 88.5548C59.2488 88.3626 59.4463 88.2042 59.6688 88.0886C59.8914 87.9731 60.1347 87.9028 60.3847 87.8817C60.6346 87.8606 60.8863 87.8892 61.1251 87.9658L67.3758 89.9703L72.215 81.4009C72.1722 81.3119 72.1358 81.2201 72.1059 81.126C71.942 80.6022 71.9788 80.0363 72.2091 79.5381C72.4395 79.0399 72.847 78.645 73.3525 78.43C73.858 78.215 74.4254 78.1954 74.9446 78.3749C75.4638 78.5544 75.8977 78.9202 76.162 79.4013H76.162Z" fill="#A0616A"/>
</g>
<defs>
<clipPath id="clip0">
<rect width="187" height="141" fill="white" transform="translate(36 10)"/>
</clipPath>
</defs>
</svg>
