<svg width="235" height="204" viewBox="0 0 235 204" fill="none" xmlns="http://www.w3.org/2000/svg">
<g clip-path="url(#clip0)">
<path d="M105.783 204C141.555 204 170.555 202.547 170.555 200.754C170.555 198.962 141.555 197.508 105.783 197.508C70.0109 197.508 41.0117 198.962 41.0117 200.754C41.0117 202.547 70.0109 204 105.783 204Z" fill="#E6E6E6"/>
<path d="M32.1429 64.1067C49.8949 64.1067 64.2857 49.7559 64.2857 32.0533C64.2857 14.3508 49.8949 0 32.1429 0C14.3908 0 0 14.3508 0 32.0533C0 49.7559 14.3908 64.1067 32.1429 64.1067Z" fill="#E6E6E6"/>
<path d="M32.1431 58.7645C46.9365 58.7645 58.9288 46.8055 58.9288 32.0534C58.9288 17.3012 46.9365 5.34222 32.1431 5.34222C17.3498 5.34222 5.35742 17.3012 5.35742 32.0534C5.35742 46.8055 17.3498 58.7645 32.1431 58.7645Z" fill="#6E17F2"/>
<path d="M117.5 64.1067C135.252 64.1067 149.643 49.7559 149.643 32.0533C149.643 14.3508 135.252 0 117.5 0C99.7483 0 85.3574 14.3508 85.3574 32.0533C85.3574 49.7559 99.7483 64.1067 117.5 64.1067Z" fill="#E6E6E6"/>
<path d="M117.501 58.7645C132.294 58.7645 144.286 46.8055 144.286 32.0534C144.286 17.3012 132.294 5.34222 117.501 5.34222C102.707 5.34222 90.7148 17.3012 90.7148 32.0534C90.7148 46.8055 102.707 58.7645 117.501 58.7645Z" fill="white"/>
<path d="M202.858 64.1067C220.61 64.1067 235.001 49.7559 235.001 32.0533C235.001 14.3508 220.61 0 202.858 0C185.106 0 170.715 14.3508 170.715 32.0533C170.715 49.7559 185.106 64.1067 202.858 64.1067Z" fill="#E6E6E6"/>
<path d="M202.858 58.7645C217.651 58.7645 229.644 46.8055 229.644 32.0534C229.644 17.3012 217.651 5.34222 202.858 5.34222C188.065 5.34222 176.072 17.3012 176.072 32.0534C176.072 46.8055 188.065 58.7645 202.858 58.7645Z" fill="white"/>
<path d="M29.659 43.0281L21.8555 33.0229L26.3934 29.5029L30.0883 34.2404L42.5703 21.1012L46.744 25.0445L29.659 43.0281Z" fill="white"/>
<path d="M89.1001 38.5894C86.9893 33.5053 86.6465 28.7069 89.6223 24.4447C89.6751 23.0125 90.0159 21.6055 90.6243 20.3071C91.2328 19.0088 92.0965 17.8455 93.1643 16.8863C94.2321 15.927 95.4822 15.1915 96.8404 14.7231C98.1987 14.2548 99.6374 14.0633 101.071 14.1599L103.011 14.2906C105.014 14.4203 106.94 15.1097 108.569 16.2799C110.197 17.4501 111.462 19.0539 112.22 20.9076C115.838 29.8555 115.951 41.7478 115.049 54.4944H88.513C90.0891 48.5332 90.8982 42.9385 89.1001 38.5894Z" fill="#2F2E41"/>
<path d="M54.8324 54.1882L47.8201 51.047C47.1214 50.734 46.4983 50.2749 45.9931 49.7008C45.4879 49.1266 45.1124 48.4509 44.892 47.7194C44.6716 46.9879 44.6115 46.2176 44.7157 45.4609C44.8199 44.7042 45.0861 43.9787 45.4961 43.3335C45.9495 42.62 46.5665 42.0242 47.2963 41.5953C48.026 41.1664 48.8475 40.9166 49.693 40.8665C50.5386 40.8164 51.384 40.9675 52.1595 41.3073C52.935 41.6471 53.6184 42.1659 54.1533 42.8209L57.3929 46.7876L72.4961 60.1453L82.5358 53.4642L87.0859 61.1572L70.8002 70.9672L54.8324 54.1882Z" fill="#9F616A"/>
<path d="M86.3546 63.4201L80.8184 52.8562L102.376 43.2808L102.562 45.3015C102.734 47.1609 102.416 49.0328 101.638 50.7316C100.861 52.4304 99.6519 53.8971 98.131 54.9863L86.3546 63.4201Z" fill="#FEC000"/>
<path d="M114.289 42.6497L92.3027 60.7948L91.0391 59.0307L97.1043 48.194L99.8842 46.9339C100.55 44.1199 98.8499 40.3463 96.5989 36.3493L107.213 34.8372C107.725 38.2701 110.058 40.8858 114.289 42.6497Z" fill="#9F616A"/>
<path d="M140.824 167.902L137.16 173.32L107.971 156.813L112.014 136.904L140.824 167.902Z" fill="#2F2E41"/>
<path d="M102.286 193.733L96.347 191.087L94.8307 121.783L89.1445 84.1062L111.257 79.948L115.806 89.7766C126.985 105.066 110.689 151.913 102.286 193.733Z" fill="#2F2E41"/>
<path d="M102.763 192.791L103.982 195.436C104.211 195.933 104.32 196.477 104.302 197.023C104.283 197.57 104.136 198.104 103.874 198.585C103.611 199.065 103.24 199.477 102.79 199.789C102.339 200.101 101.822 200.304 101.279 200.381L85.1679 202.676C84.3758 202.789 83.5696 202.612 82.8982 202.178C82.2269 201.744 81.7359 201.082 81.5161 200.315C81.3137 199.608 81.3533 198.855 81.6286 198.174C81.904 197.492 82.3993 196.922 83.0362 196.553L96.5709 189.797L102.763 192.791Z" fill="#2F2E41"/>
<path d="M140.071 166.878L142.982 166.664C143.529 166.624 144.078 166.712 144.585 166.921C145.091 167.13 145.543 167.454 145.902 167.867C146.261 168.28 146.519 168.771 146.654 169.301C146.789 169.831 146.799 170.386 146.681 170.92L143.201 186.773C143.03 187.553 142.582 188.244 141.939 188.719C141.296 189.195 140.503 189.422 139.705 189.359C138.971 189.301 138.277 189 137.733 188.505C137.189 188.009 136.827 187.347 136.703 186.623L135.092 171.615L140.071 166.878Z" fill="#2F2E41"/>
<path d="M100.39 39.8775C105.973 39.8775 110.499 35.3642 110.499 29.7969C110.499 24.2295 105.973 19.7162 100.39 19.7162C94.8071 19.7162 90.2812 24.2295 90.2812 29.7969C90.2812 35.3642 94.8071 39.8775 100.39 39.8775Z" fill="#9F616A"/>
<path d="M110.752 81.4601L88.7658 85.9963L88.2603 71.3794C85.0766 68.0182 92.5019 54.5564 95.0838 48.194L98.3691 47.186L92.8093 57.2666L112.269 41.3896L116.059 42.3977L117.07 60.7948L110.752 81.4601Z" fill="#FEC000"/>
<path d="M112.268 90.2806L107.5 96.2939C107.025 96.893 106.427 97.3833 105.745 97.7316C105.063 98.0798 104.314 98.2778 103.549 98.3122C102.784 98.3466 102.02 98.2165 101.31 97.9308C100.6 97.6451 99.9591 97.2105 99.4319 96.6564C98.8489 96.0436 98.4203 95.3014 98.1816 94.4909C97.9428 93.6805 97.9006 92.8251 98.0585 91.9952C98.2165 91.1653 98.57 90.3847 99.0899 89.7179C99.6098 89.051 100.281 88.517 101.049 88.1598L105.698 85.9964L122.377 74.6557L118.334 63.315L126.926 60.7948L132.486 78.9399L112.268 90.2806Z" fill="#9F616A"/>
<path d="M113.153 52.4783H94.8387C95.5269 49.0261 97.3717 45.8943 102.417 43.6488C106.096 36.637 107.668 30.2771 102.417 26.0276C96.4196 24.6497 94.0968 22.1477 94.8387 18.7082L105.575 16.9441C114.404 24.7854 114.505 38.1706 113.153 52.4783Z" fill="#2F2E41"/>
<path d="M128.948 62.0549L117.323 64.827L113.279 41.6416L115.29 41.9549C117.14 42.2431 118.882 43.0086 120.344 44.1753C121.806 45.3421 122.937 46.8696 123.624 48.6064L128.948 62.0549Z" fill="#FEC000"/>
</g>
<defs>
<clipPath id="clip0">
<rect width="235" height="204" fill="white"/>
</clipPath>
</defs>
</svg>
