<svg width="260" height="170" viewBox="0 0 260 170" fill="none" xmlns="http://www.w3.org/2000/svg">
<rect opacity="0.7" width="260" height="170" rx="16" fill="#6E17F2"/>
<path d="M62.1318 105.667C62.1318 105.667 64.687 109.709 63.7744 110.804C62.8619 111.899 70.6206 111.926 70.6206 111.926C70.6206 111.926 69.4552 106.045 69.7982 104.692L62.1318 105.667Z" fill="#FFB8B8"/>
<path d="M66.2162 107.132C70.6411 107.132 74.2282 103.554 74.2282 99.1393C74.2282 94.7251 70.6411 91.1467 66.2162 91.1467C61.7912 91.1467 58.2041 94.7251 58.2041 99.1393C58.2041 103.554 61.7912 107.132 66.2162 107.132Z" fill="#2F2E41"/>
<path d="M85.0596 142.461V147.2L89.8091 146.212L89.4135 142.856L85.0596 142.461Z" fill="#FFB8B8"/>
<path d="M101.881 143.251L115.141 145.423L111.777 150.358C111.777 150.358 102.475 147.2 100.1 147.2C97.7253 147.2 101.881 143.251 101.881 143.251Z" fill="#FFB8B8"/>
<path d="M71.8006 133.775C71.8006 133.775 81.6958 122.324 84.8623 122.916C88.0288 123.509 89.4141 127.062 89.4141 127.062L91.1953 144.633C91.1953 144.633 84.8623 145.225 84.8623 144.633C84.8623 144.041 83.6749 131.406 83.6749 131.406C83.6749 131.406 74.3734 151.938 69.4258 138.316L71.8006 133.775Z" fill="#D0CDE1"/>
<path d="M55.7695 141.474C55.7695 141.474 55.9674 151.817 61.9046 152.41C67.8417 153.002 74.3725 147.989 74.3725 147.989L85.0593 142.882C85.0593 142.882 97.7252 149.569 101.485 147.792C101.485 147.792 105.443 143.646 102.871 142.461C100.298 141.277 102.673 142.461 102.673 142.461L87.4342 134.565C87.4342 134.565 84.4656 133.775 79.3201 135.947C74.1746 138.118 67.248 139.105 67.248 139.105L55.7695 141.474Z" fill="#D0CDE1"/>
<path d="M65.6656 107.715C68.9446 107.715 71.6028 105.063 71.6028 101.792C71.6028 98.5211 68.9446 95.8694 65.6656 95.8694C62.3867 95.8694 59.7285 98.5211 59.7285 101.792C59.7285 105.063 62.3867 107.715 65.6656 107.715Z" fill="#FFB8B8"/>
<path d="M74.1751 118.376L73.7793 126.668C73.7793 126.668 73.9772 137.526 72.1961 138.316C71.2956 138.714 69.4868 139.516 67.8145 140.392C66.5598 141.048 65.3822 141.743 64.7252 142.341C64.551 142.489 64.4008 142.663 64.2799 142.856C63.4883 144.238 58.3428 144.041 57.1554 143.054C55.9679 142.067 56.7595 144.238 55.77 144.633C54.8122 145.016 53.4842 141.885 54.2976 137.21C54.3233 137.054 54.353 136.896 54.3847 136.736C55.2931 132.205 53.8662 121.353 54.0858 117.16C54.0986 116.839 54.1324 116.52 54.1868 116.204C54.7805 113.045 62.3563 106.617 63.7733 109.355C65.5188 112.735 69.5283 109.648 70.217 108.11C74.1751 107.912 75.5604 112.65 75.5604 112.65L74.1751 118.376Z" fill="#FEC000"/>
<path d="M90.2054 145.423C90.2054 145.423 87.0389 146.607 86.0494 146.41C85.0599 146.213 84.0703 147.002 84.0703 148.187C84.0703 149.371 82.8829 152.135 84.6641 152.333C86.4452 152.53 93.7677 152.135 95.3509 152.728C95.3509 152.728 102.475 152.925 101.882 149.964C101.288 147.002 98.3194 147.2 98.3194 147.2C98.3194 147.2 90.2054 146.805 90.2054 145.423Z" fill="#2F2E41"/>
<path d="M113.36 146.015C113.36 146.015 113.756 144.831 114.35 144.831C114.944 144.831 119.693 145.62 120.287 145.423C120.881 145.225 127.807 144.831 126.62 148.187C125.432 151.543 121.474 151.938 121.474 151.938C121.474 151.938 114.35 151.148 113.36 151.346C112.371 151.543 108.809 151.346 109.402 150.358C109.996 149.371 113.756 147.595 113.36 146.015Z" fill="#2F2E41"/>
<path d="M95.3448 117.658L96.4305 122.126C96.4426 122.175 96.4407 122.228 96.4251 122.276L91.5 137.63C91.4804 137.691 91.4406 137.743 91.3872 137.778C91.3337 137.813 91.2698 137.829 91.2061 137.823C91.1424 137.816 91.0828 137.789 91.0372 137.744C90.9916 137.699 90.9628 137.64 90.9556 137.577L90.2742 131.595C90.2697 131.556 90.2738 131.515 90.2862 131.477L94.8069 117.637C94.8258 117.579 94.863 117.529 94.913 117.495C94.9629 117.46 95.0229 117.442 95.0837 117.445C95.1445 117.447 95.2029 117.469 95.2501 117.508C95.2972 117.546 95.3304 117.599 95.3448 117.658Z" fill="#3F3D56"/>
<path d="M94.9466 118.035L95.949 121.868L91.605 135.868L90.6025 131.535L94.9466 118.035Z" fill="white"/>
<path d="M73.0606 138.868C73.2277 139.368 90.4361 138.702 90.6031 138.535C90.7488 138.326 90.872 138.103 90.9707 137.868C91.1277 137.535 91.2714 137.202 91.2714 137.202L90.6031 131.805L73.5618 131.202C73.5618 131.202 73.1358 135.775 73.0489 137.868C73.0193 138.201 73.0232 138.536 73.0606 138.868Z" fill="#3F3D56"/>
<path opacity="0.1" d="M88.4301 132.535L88.7642 137.202H81.2461V132.535H88.4301Z" fill="black"/>
<path opacity="0.1" d="M78.7395 134.035L78.7845 134.026L78.5723 136.035H74.3955V134.035H78.7395Z" fill="black"/>
<path opacity="0.1" d="M73.0606 138.868C73.2277 139.368 90.4361 138.702 90.6031 138.535C90.7488 138.326 90.872 138.103 90.9707 137.868H73.0489C73.0193 138.201 73.0232 138.536 73.0606 138.868Z" fill="black"/>
<path d="M67.5434 92.6293C68.7766 92.6293 69.7763 91.632 69.7763 90.4018C69.7763 89.1716 68.7766 88.1744 67.5434 88.1744C66.3102 88.1744 65.3105 89.1716 65.3105 90.4018C65.3105 91.632 66.3102 92.6293 67.5434 92.6293Z" fill="#2F2E41"/>
<path d="M66.8711 92.8264C66.8711 92.8264 64.5898 96.6118 59.285 98.0288C53.9802 99.4459 59.2417 107.398 59.2417 107.398C59.2417 107.398 57.3284 104.506 60.088 101.444C62.8476 98.3816 67.2886 96.2879 66.8711 92.8264Z" fill="#2F2E41"/>
<path opacity="0.1" d="M67.8145 140.392C67.3256 141.314 66.7517 142.272 66.6547 142.659C66.5894 142.922 65.8651 142.769 64.7252 142.341C62.4394 141.478 58.4773 139.502 54.7805 137.526C54.6101 137.436 54.4484 137.33 54.2976 137.21C54.3233 137.054 54.353 136.896 54.3847 136.736C55.2931 132.205 53.8662 121.353 54.0858 117.16L55.77 116.599L59.1344 119.758V133.183C59.1344 133.183 67.8422 137.921 68.4359 138.316C68.7387 138.517 68.3211 139.435 67.8145 140.392Z" fill="black"/>
<path d="M75.1652 129.629L80.5086 132.393C80.5086 132.393 83.6751 129.037 85.6542 131.603C87.6332 134.17 79.9149 134.959 79.9149 134.959C79.9149 134.959 73.1862 133.38 72.9883 131.208C72.7904 129.037 75.1652 129.629 75.1652 129.629Z" fill="#FFB8B8"/>
<path d="M66.259 136.934L69.4255 137.723C69.4255 137.723 72.9878 133.38 76.748 134.959C80.5081 136.539 71.9983 139.698 71.9983 139.698C71.9983 139.698 67.4465 142.067 65.6653 140.092C63.8842 138.118 66.259 136.934 66.259 136.934Z" fill="#FFB8B8"/>
<path d="M73.1854 110.874C73.3833 111.071 75.5602 112.65 75.5602 112.65C75.5602 112.65 76.1539 120.153 75.3623 121.732C74.5707 123.311 73.977 123.311 74.5707 124.101C75.1644 124.891 75.956 124.298 75.1644 125.68C74.3728 127.062 73.5812 126.865 74.1749 127.457C74.7686 128.05 74.5707 128.247 74.5707 128.247L76.9455 130.221C76.9455 130.221 75.4885 132.536 73.6443 132.366C71.8 132.195 70.2168 123.311 70.2168 123.311L73.1854 110.874Z" fill="#FEC000"/>
<path d="M55.7705 115.612L53.9893 116.204C53.9893 116.204 49.2396 133.577 54.781 136.539C60.3223 139.5 66.4573 142.461 66.6552 141.672C66.8531 140.882 69.0301 137.723 68.4364 137.328C67.8426 136.934 59.1349 132.195 59.1349 132.195V118.771L55.7705 115.612Z" fill="#FEC000"/>
<path opacity="0.1" d="M58.4425 122.818L58.0469 132.294L68.5358 137.23L58.8384 132.294L58.4425 122.818Z" fill="black"/>
<path d="M211.081 47.5557V63.0504C211.08 63.1936 211.023 63.3308 210.922 63.432C210.82 63.5332 210.683 63.5903 210.539 63.5906H210.154V144.308C210.153 146.542 209.264 148.684 207.681 150.263C206.097 151.843 203.95 152.73 201.711 152.73H151.153C150.044 152.73 148.946 152.512 147.922 152.089C146.898 151.666 145.968 151.045 145.184 150.263C144.4 149.481 143.778 148.553 143.354 147.531C142.93 146.509 142.712 145.414 142.712 144.308V66.4216H142.433C142.332 66.4218 142.235 66.3819 142.163 66.3107C142.091 66.2395 142.051 66.1428 142.05 66.0418V57.2234C142.05 57.1732 142.06 57.1235 142.079 57.0771C142.099 57.0307 142.127 56.9886 142.162 56.9531C142.198 56.9176 142.24 56.8895 142.287 56.8703C142.333 56.8511 142.383 56.8412 142.433 56.8412H142.712V53.5196H142.431C142.325 53.5191 142.223 53.4767 142.148 53.4015C142.073 53.3263 142.031 53.2245 142.031 53.1185V44.4204C142.032 44.3147 142.074 44.2135 142.149 44.1388C142.223 44.0641 142.325 44.022 142.431 44.0217H142.712V39.4875H142.426C142.38 39.4875 142.333 39.4784 142.29 39.4607C142.247 39.4429 142.208 39.4168 142.175 39.384C142.142 39.3511 142.116 39.3121 142.098 39.2691C142.081 39.2261 142.071 39.1801 142.071 39.1336V34.387C142.071 34.2929 142.108 34.2025 142.175 34.1357C142.241 34.069 142.332 34.0312 142.426 34.0308H142.712V24.4197C142.712 22.1867 143.602 20.0452 145.185 18.4662C146.767 16.8872 148.914 16.0001 151.153 16H201.711C203.95 16 206.097 16.887 207.68 18.4659C209.263 20.0449 210.153 22.1864 210.154 24.4197V47.0154H210.539C210.683 47.0158 210.82 47.0728 210.922 47.1741C211.023 47.2753 211.08 47.4125 211.081 47.5557Z" fill="#3F3D56"/>
<path d="M178.868 20.3188H170.653C170.321 20.3188 170.052 20.5873 170.052 20.9185V21.6268C170.052 21.958 170.321 22.2265 170.653 22.2265H178.868C179.2 22.2265 179.469 21.958 179.469 21.6268V20.9185C179.469 20.5873 179.2 20.3188 178.868 20.3188Z" fill="#E6E8EC"/>
<path d="M181.978 22.3547C182.577 22.3547 183.063 21.8703 183.063 21.2727C183.063 20.6751 182.577 20.1906 181.978 20.1906C181.379 20.1906 180.894 20.6751 180.894 21.2727C180.894 21.8703 181.379 22.3547 181.978 22.3547Z" fill="#E6E8EC"/>
<path d="M206.111 26.0852V145.006C206.11 146.423 205.545 147.782 204.541 148.783C203.537 149.785 202.175 150.347 200.754 150.348H152.357C151.654 150.349 150.957 150.211 150.307 149.943C149.656 149.676 149.066 149.282 148.568 148.786C148.07 148.29 147.676 147.701 147.407 147.052C147.138 146.403 147 145.708 147.001 145.006V26.0852C147.001 25.3835 147.139 24.6887 147.409 24.0404C147.678 23.392 148.072 22.803 148.57 22.3068C149.067 21.8106 149.658 21.417 150.308 21.1485C150.957 20.88 151.654 20.7418 152.357 20.7418H159.601V21.6689C159.601 22.8358 160.066 23.9549 160.893 24.78C161.72 25.6052 162.842 26.0687 164.011 26.0687H188.625C189.795 26.0687 190.916 25.6052 191.744 24.78C192.571 23.9549 193.035 22.8358 193.035 21.6689V20.7418H200.754C201.458 20.7416 202.154 20.8796 202.804 21.1481C203.454 21.4165 204.045 21.8101 204.542 22.3064C205.04 22.8026 205.434 23.3917 205.703 24.0401C205.973 24.6885 206.111 25.3835 206.111 26.0852Z" fill="white"/>
<path d="M201.25 99.0315H152.061V105.401H201.25V99.0315Z" fill="#E6E6E6"/>
<path d="M201.25 110.355H152.061V116.725H201.25V110.355Z" fill="#E6E6E6"/>
<path d="M201.25 121.679H152.061V128.049H201.25V121.679Z" fill="#E6E6E6"/>
<path d="M195.811 42.1766C198.423 42.1766 200.541 40.0642 200.541 37.4583C200.541 34.8525 198.423 32.7401 195.811 32.7401C193.199 32.7401 191.081 34.8525 191.081 37.4583C191.081 40.0642 193.199 42.1766 195.811 42.1766Z" fill="#FEC000"/>
<path d="M201.151 53.2645H151.962V85.8205H201.151V53.2645Z" fill="#E6E6E6"/>
<path d="M171.548 71.5691C172.984 76.8654 177.904 80.1455 177.904 80.1455C177.904 80.1455 180.494 74.8387 179.058 69.5424C177.622 64.2462 172.703 60.9661 172.703 60.9661C172.703 60.9661 170.112 66.2729 171.548 71.5691Z" fill="#3F3D56"/>
<path d="M173.659 70.4309C177.6 74.258 178.081 80.1412 178.081 80.1412C178.081 80.1412 172.173 79.8194 168.232 75.9923C164.291 72.1652 163.81 66.282 163.81 66.282C163.81 66.282 169.718 66.6038 173.659 70.4309Z" fill="#FEC000"/>
<path d="M184.615 71.5692C183.179 76.8654 178.259 80.1455 178.259 80.1455C178.259 80.1455 175.668 74.8387 177.105 69.5424C178.541 64.2462 183.46 60.9661 183.46 60.9661C183.46 60.9661 186.051 66.2729 184.615 71.5692Z" fill="#3F3D56"/>
<path d="M182.504 70.4309C178.563 74.258 178.082 80.1412 178.082 80.1412C178.082 80.1412 183.99 79.8194 187.931 75.9923C191.872 72.1652 192.354 66.282 192.354 66.282C192.354 66.282 186.445 66.6038 182.504 70.4309Z" fill="#FEC000"/>
<path d="M237 152.471H27V153H237V152.471Z" fill="#3F3D56"/>
</svg>
