<svg width="260" height="170" viewBox="0 0 260 170" fill="none" xmlns="http://www.w3.org/2000/svg">
<rect opacity="0.7" width="260" height="170" rx="16" fill="#6E17F2"/>
<path d="M119.506 44.4939H48.0312V90.3067H119.506V44.4939Z" fill="#F2F2F2"/>
<path d="M117.461 50.2399H50.0742V87.5964H117.461V50.2399Z" fill="white"/>
<path d="M119.475 44.4533H48V47.4923H119.475V44.4533Z" fill="#FEC000"/>
<path d="M50.2562 46.5702C50.567 46.5702 50.8189 46.3181 50.8189 46.007C50.8189 45.6959 50.567 45.4437 50.2562 45.4437C49.9453 45.4437 49.6934 45.6959 49.6934 46.007C49.6934 46.3181 49.9453 46.5702 50.2562 46.5702Z" fill="white"/>
<path d="M52.3929 46.5702C52.7037 46.5702 52.9557 46.3181 52.9557 46.007C52.9557 45.6959 52.7037 45.4437 52.3929 45.4437C52.082 45.4437 51.8301 45.6959 51.8301 46.007C51.8301 46.3181 52.082 46.5702 52.3929 46.5702Z" fill="white"/>
<path d="M54.5286 46.5702C54.8394 46.5702 55.0914 46.3181 55.0914 46.007C55.0914 45.6959 54.8394 45.4437 54.5286 45.4437C54.2178 45.4437 53.9658 45.6959 53.9658 46.007C53.9658 46.3181 54.2178 46.5702 54.5286 46.5702Z" fill="white"/>
<path d="M73.5126 54.116H56.1973V83.7204H73.5126V54.116Z" fill="#F2F2F2"/>
<path d="M90.9314 54.116H76.502V62.2649H90.9314V54.116Z" fill="#FEC000"/>
<path d="M90.9314 64.5342H76.502V73.3021H90.9314V64.5342Z" fill="#F2F2F2"/>
<path d="M90.9314 75.5714H76.502V83.7204H90.9314V75.5714Z" fill="#F2F2F2"/>
<path d="M111.339 54.116H94.0234V67.0174H111.339V54.116Z" fill="#F2F2F2"/>
<path d="M111.339 70.8189H94.0234V83.7204H111.339V70.8189Z" fill="#F2F2F2"/>
<path d="M209 44.4939H137.525V90.3067H209V44.4939Z" fill="#F2F2F2"/>
<path d="M206.957 50.2399H139.569V87.5964H206.957V50.2399Z" fill="white"/>
<path d="M208.969 44.4533H137.494V47.4923H208.969V44.4533Z" fill="#FEC000"/>
<path d="M139.751 46.5702C140.062 46.5702 140.314 46.3181 140.314 46.007C140.314 45.6959 140.062 45.4437 139.751 45.4437C139.44 45.4437 139.188 45.6959 139.188 46.007C139.188 46.3181 139.44 46.5702 139.751 46.5702Z" fill="white"/>
<path d="M141.888 46.5702C142.199 46.5702 142.451 46.3181 142.451 46.007C142.451 45.6959 142.199 45.4437 141.888 45.4437C141.577 45.4437 141.325 45.6959 141.325 46.007C141.325 46.3181 141.577 46.5702 141.888 46.5702Z" fill="white"/>
<path d="M144.024 46.5702C144.335 46.5702 144.587 46.3181 144.587 46.007C144.587 45.6959 144.335 45.4437 144.024 45.4437C143.713 45.4437 143.461 45.6959 143.461 46.007C143.461 46.3181 143.713 46.5702 144.024 46.5702Z" fill="white"/>
<path d="M200.817 54.116H183.502V83.7204H200.817V54.116Z" fill="#F2F2F2"/>
<path d="M180.634 54.1154H145.708V62.2644H180.634V54.1154Z" fill="#FEC000"/>
<path d="M180.634 64.5337H145.708V73.3016H180.634V64.5337Z" fill="#F2F2F2"/>
<path d="M180.634 75.5709H145.708V83.7199H180.634V75.5709Z" fill="#F2F2F2"/>
<path d="M128.096 9H127.696V30.8456H128.096V9Z" fill="#CCCCCC"/>
<path d="M168.048 44.4407H167.648V31.0456H88.1417V44.4407H87.7422V30.6457H168.048V44.4407Z" fill="#CCCCCC"/>
<path d="M130.835 70.0713L130.534 68.566C130.534 68.566 126.109 67.0606 125.614 70.0713H130.835Z" fill="#E6E6E6"/>
<path d="M122.343 152.957L119.442 152.957L118.062 141.759L122.344 141.759L122.343 152.957Z" fill="#FFB8B8"/>
<path d="M123.083 155.771L113.729 155.771V155.652C113.73 154.686 114.113 153.759 114.796 153.076C115.479 152.393 116.405 152.009 117.37 152.009H117.37L123.083 152.009L123.083 155.771Z" fill="#2F2E41"/>
<path d="M132.316 152.957L135.217 152.957L136.597 141.759L132.315 141.759L132.316 152.957Z" fill="#FFB8B8"/>
<path d="M131.575 152.009L137.288 152.009H137.288C138.254 152.009 139.18 152.393 139.862 153.076C140.545 153.759 140.929 154.686 140.929 155.652V155.771L131.575 155.771L131.575 152.009Z" fill="#2F2E41"/>
<path d="M135.046 76.3937L138.355 76.0926L140.461 86.0277L140.16 95.0597L136.851 107.102L132.339 104.393L134.745 92.049L135.046 76.3937Z" fill="#2F2E41"/>
<path d="M137.141 106.048L136.4 112.371L137.303 127.123V149.107L131.587 148.8L130.384 125.919L127.075 115.381L124.668 127.424L123.164 150.004L117.298 149.533V127.345L117.147 111.167L119.253 104.844L137.141 106.048Z" fill="#2F2E41"/>
<path d="M124.818 70.3724C124.818 70.3724 126.924 67.3617 130.835 69.4692L132.64 71.8777L138.355 76.0926L137.152 90.2426L138.656 108.005L117.298 107.704L120.908 89.9415V70.9745L124.818 70.3724Z" fill="#2F2E41"/>
<path opacity="0.25" d="M136.4 81.0898L138.124 101.73L135.948 90.5437L136.4 81.0898Z" fill="black"/>
<path d="M120.71 111.844C120.918 111.595 121.069 111.303 121.153 110.989C121.236 110.676 121.25 110.348 121.193 110.028C121.136 109.708 121.01 109.405 120.823 109.14C120.636 108.874 120.394 108.653 120.112 108.492L120.755 103.459L117.794 102.322L116.986 109.442C116.746 109.933 116.695 110.495 116.842 111.022C116.989 111.548 117.323 112.002 117.782 112.298C118.241 112.594 118.793 112.712 119.333 112.628C119.872 112.544 120.362 112.265 120.71 111.844Z" fill="#FFB8B8"/>
<path d="M116.997 106.801H121.811V104.694H116.997V106.801Z" fill="#E6E6E6"/>
<path d="M124.066 73.5335L120.908 70.9745C120.908 70.9745 118.652 70.824 118.351 74.1357C118.05 77.4474 117.684 91.5974 117.684 91.5974L116.546 105.747L122.863 106.048L124.066 90.7333V73.5335Z" fill="#2F2E41"/>
<path d="M133.466 63.749C135.066 60.8193 133.991 57.1459 131.063 55.5444C128.136 53.9429 124.466 55.0196 122.865 57.9493C121.265 60.8791 122.341 64.5524 125.268 66.1539C128.196 67.7555 131.866 66.6788 133.466 63.749Z" fill="#FFB8B8"/>
<path d="M127.716 66.1822C129.193 66.5373 130.75 66.33 132.084 65.6006C133.418 64.8712 134.433 63.6718 134.933 62.2352C135.433 60.7986 135.381 59.2275 134.788 57.8269C134.195 56.4263 133.103 55.2962 131.724 54.6561C130.663 54.1818 129.501 53.9733 128.341 54.0485C126.535 54.1435 124.779 54.8118 122.97 54.7626L122.708 55.1842L121.72 54.9445L121.509 55.7294L121.248 55.7204C120.782 56.5873 121.532 57.8284 122.516 57.8179C122.905 57.8137 123.273 57.6513 123.654 57.5697C124.035 57.488 124.483 57.5084 124.746 57.7962C125.087 58.1703 124.939 58.754 124.867 59.2554C124.796 59.7569 124.974 60.4324 125.48 60.4488C125.738 60.4571 125.984 60.2717 126.238 60.3205C126.534 60.3772 126.683 60.7346 126.64 61.0329C126.567 61.3255 126.447 61.6046 126.286 61.8596C125.553 63.3245 126.172 65.3173 127.606 66.1077" fill="#2F2E41"/>
<path d="M165.951 156H89.8404C89.7874 156 89.7366 155.979 89.6991 155.941C89.6617 155.904 89.6406 155.853 89.6406 155.8C89.6406 155.747 89.6617 155.696 89.6991 155.659C89.7366 155.621 89.7874 155.6 89.8404 155.6H165.951C166.004 155.6 166.055 155.621 166.092 155.659C166.13 155.696 166.151 155.747 166.151 155.8C166.151 155.853 166.13 155.904 166.092 155.941C166.055 155.979 166.004 156 165.951 156Z" fill="#CCCCCC"/>
</svg>
