<svg width="169" height="218" viewBox="0 0 169 218" fill="none" xmlns="http://www.w3.org/2000/svg">
<g clip-path="url(#clip0)">
<path opacity="0.5" d="M49.4773 60.1911C49.4773 61.4336 49.5178 62.6657 49.5989 63.8874C50.0535 70.9333 51.8459 77.8303 54.8816 84.2147C54.9051 84.2693 54.9327 84.3199 54.9561 84.3705C55.0974 84.6665 55.2426 84.9626 55.3915 85.2547C56.2944 87.0603 57.296 88.8157 58.3918 90.5128C63.3973 98.3035 70.258 104.75 78.3677 109.282C86.4774 113.814 95.5864 116.293 104.89 116.499L104.329 148.531L97.0146 144.706L95.7085 147.172L104.274 151.651L103.227 211.141L103.215 211.936L108.87 212.407L108.859 212.387L107.078 116.503C114.567 116.397 121.959 114.814 128.826 111.846C135.693 108.879 141.899 104.586 147.082 99.2178C147.438 98.8517 147.791 98.4739 148.137 98.1C148.152 98.0844 148.164 98.0688 148.176 98.0571C152.494 93.3803 155.987 88.013 158.506 82.1816C158.451 82.2439 158.392 82.3024 158.337 82.3647C164.031 69.1415 164.417 54.2565 159.417 40.7597C154.416 27.2629 144.407 16.1764 131.441 9.77194C131.245 9.67457 131.045 9.58109 130.849 9.48372C118.023 3.34844 103.344 2.2227 89.722 6.32963C76.0997 10.4366 64.5284 19.4764 57.3016 31.6573C56.9563 32.2337 56.6229 32.8219 56.3014 33.4139C51.8122 41.6342 49.4662 50.8397 49.4773 60.1911Z" fill="#FEC000"/>
<path d="M91.2344 212.538C81.906 212.538 74.3439 205.028 74.3439 195.764C74.3439 186.5 81.906 178.989 91.2344 178.989C100.563 178.989 108.125 186.5 108.125 195.764C108.125 205.028 100.563 212.538 91.2344 212.538Z" fill="#2F2E41"/>
<path d="M71.2722 207.294H86.4043V212.39H71.2722V207.294Z" fill="#2F2E41"/>
<path d="M71.166 212.39C70.2804 212.39 69.5624 210.489 69.5624 208.144C69.5624 205.798 70.2804 203.897 71.166 203.897C72.0516 203.897 72.7695 205.798 72.7695 208.144C72.7695 210.489 72.0516 212.39 71.166 212.39Z" fill="#2F2E41"/>
<path d="M74.8015 206.905H89.9336V212.001H74.8015V206.905Z" fill="#2F2E41"/>
<path d="M74.6953 212.001C73.8097 212.001 73.0918 210.099 73.0918 207.754C73.0918 205.409 73.8097 203.507 74.6953 203.507C75.5809 203.507 76.2988 205.409 76.2988 207.754C76.2988 210.099 75.5809 212.001 74.6953 212.001Z" fill="#2F2E41"/>
<path d="M107.619 180.164C108.983 174.098 104.624 167.969 97.8819 166.474C91.1402 164.979 84.5693 168.685 83.2055 174.75C81.8417 180.816 86.3096 183.053 93.0514 184.548C99.7931 186.043 106.256 186.23 107.619 180.164Z" fill="#FEC000"/>
<path d="M84.7428 194.809C85.6262 194.826 86.4929 194.568 87.2205 194.07C87.9482 193.572 88.4999 192.86 88.7979 192.034C88.8143 191.986 88.821 191.934 88.8174 191.883C88.8139 191.832 88.8003 191.783 88.7773 191.737C88.7544 191.691 88.7226 191.65 88.6838 191.616C88.645 191.583 88.5998 191.557 88.551 191.541C88.5022 191.525 88.4506 191.518 88.3992 191.522C88.3478 191.525 88.2977 191.539 88.2516 191.561C88.2054 191.584 88.1643 191.616 88.1305 191.654C88.0966 191.693 88.0708 191.738 88.0544 191.786C87.4605 193.542 85.4274 194.46 83.5228 193.832C82.5771 193.526 81.7916 192.862 81.3373 191.983C81.1424 191.605 81.0252 191.192 80.9925 190.768C80.9598 190.344 81.0123 189.918 81.1469 189.515C81.1633 189.466 81.1699 189.415 81.1664 189.364C81.1629 189.313 81.1492 189.263 81.1263 189.217C81.1034 189.171 81.0716 189.131 81.0328 189.097C80.9939 189.063 80.9488 189.038 80.9 189.021C80.8512 189.005 80.7996 188.999 80.7482 189.002C80.6968 189.006 80.6466 189.019 80.6005 189.042C80.5544 189.065 80.5133 189.096 80.4794 189.135C80.4456 189.173 80.4197 189.218 80.4033 189.267C80.2356 189.767 80.1697 190.296 80.2096 190.822C80.2495 191.348 80.3943 191.861 80.6356 192.331C81.1836 193.395 82.1326 194.2 83.2759 194.572C83.749 194.728 84.2442 194.808 84.7428 194.809Z" fill="white"/>
<path d="M77.2197 197.088C76.7664 197.969 76.6837 198.992 76.99 199.933C77.2962 200.874 77.9663 201.655 78.8527 202.105C79.7392 202.556 80.7695 202.638 81.7169 202.334C82.6643 202.03 83.4513 201.364 83.9046 200.484L83.908 200.477C84.8503 198.643 83.5482 197.504 81.7013 196.569C79.8544 195.633 78.162 195.254 77.2197 197.088Z" fill="white"/>
<path d="M16.9336 212.689H166.358C166.462 212.689 166.562 212.648 166.635 212.575C166.709 212.502 166.75 212.403 166.75 212.3C166.75 212.196 166.709 212.097 166.635 212.024C166.562 211.951 166.462 211.91 166.358 211.91H16.9336C16.8296 211.91 16.7298 211.951 16.6563 212.024C16.5827 212.097 16.5414 212.196 16.5414 212.3C16.5414 212.403 16.5827 212.502 16.6563 212.575C16.7298 212.648 16.8296 212.689 16.9336 212.689Z" fill="#3F3D56"/>
<path d="M95.0125 217.97C93.4394 217.567 93.2118 213.206 94.5041 208.23C95.7965 203.253 98.1194 199.545 99.6926 199.948C101.266 200.351 101.493 204.712 100.201 209.689C98.9086 214.665 96.5857 218.373 95.0125 217.97Z" fill="#2F2E41"/>
<path d="M66.6515 175.767H73.0778C73.139 175.767 73.1988 175.749 73.2492 175.715C73.2997 175.68 73.3385 175.631 73.3606 175.575C73.3826 175.518 73.3868 175.456 73.3726 175.397C73.3585 175.338 73.3266 175.284 73.2812 175.243L67.4376 169.987H72.8368C72.9172 169.987 72.9942 169.956 73.0511 169.899C73.1079 169.843 73.1398 169.766 73.1398 169.686C73.1398 169.607 73.1079 169.53 73.0511 169.473C72.9942 169.417 72.9172 169.385 72.8368 169.385H66.6515C66.5903 169.385 66.5305 169.404 66.48 169.438C66.4296 169.473 66.3907 169.521 66.3687 169.578C66.3467 169.635 66.3425 169.697 66.3566 169.756C66.3708 169.815 66.4027 169.869 66.448 169.909L72.2917 175.165H66.6515C66.5711 175.165 66.494 175.197 66.4372 175.254C66.3804 175.31 66.3485 175.387 66.3485 175.466C66.3485 175.546 66.3804 175.623 66.4372 175.679C66.494 175.736 66.5711 175.767 66.6515 175.767Z" fill="#CBCBCB"/>
<path d="M58.4699 166.437H64.8961C64.9573 166.437 65.0171 166.419 65.0676 166.384C65.1181 166.35 65.1569 166.301 65.1789 166.245C65.2009 166.188 65.2052 166.126 65.191 166.067C65.1768 166.007 65.145 165.954 65.0996 165.913L59.2559 160.657H64.6551C64.7355 160.657 64.8126 160.625 64.8694 160.569C64.9263 160.513 64.9582 160.436 64.9582 160.356C64.9582 160.276 64.9263 160.2 64.8694 160.143C64.8126 160.087 64.7355 160.055 64.6551 160.055H58.4699C58.4087 160.055 58.3489 160.074 58.2984 160.108C58.2479 160.142 58.2091 160.191 58.1871 160.248C58.165 160.305 58.1608 160.367 58.175 160.426C58.1892 160.485 58.221 160.538 58.2664 160.579L64.1101 165.835H58.4699C58.3895 165.835 58.3124 165.867 58.2556 165.923C58.1987 165.98 58.1668 166.056 58.1668 166.136C58.1668 166.216 58.1987 166.293 58.2556 166.349C58.3124 166.405 58.3895 166.437 58.4699 166.437Z" fill="#CBCBCB"/>
<path d="M62.1066 156.204H68.5328C68.5941 156.204 68.6538 156.186 68.7043 156.151C68.7548 156.117 68.7936 156.068 68.8157 156.011C68.8377 155.955 68.8419 155.893 68.8277 155.833C68.8136 155.774 68.7817 155.721 68.7363 155.68L62.8926 150.424H68.2919C68.3722 150.424 68.4493 150.392 68.5061 150.336C68.563 150.279 68.5949 150.203 68.5949 150.123C68.5949 150.043 68.563 149.967 68.5061 149.91C68.4493 149.854 68.3722 149.822 68.2919 149.822H62.1066C62.0454 149.822 61.9856 149.84 61.9351 149.875C61.8846 149.909 61.8458 149.958 61.8238 150.015C61.8018 150.072 61.7976 150.134 61.8117 150.193C61.8259 150.252 61.8577 150.305 61.9031 150.346L67.7468 155.602H62.1066C62.0262 155.602 61.9491 155.634 61.8923 155.69C61.8355 155.747 61.8035 155.823 61.8035 155.903C61.8035 155.983 61.8355 156.059 61.8923 156.116C61.9491 156.172 62.0262 156.204 62.1066 156.204Z" fill="#CBCBCB"/>
<path d="M17.568 69.0861L12.55 65.1003C16.4483 64.6732 18.05 66.7845 18.7055 68.4557C21.751 67.1998 25.0664 68.8457 25.0664 68.8457L15.0263 72.4655C15.5328 71.122 16.4145 69.9497 17.568 69.0861Z" fill="#3F3D56"/>
<path d="M161.502 4.04164L156.484 0.0558344C160.382 -0.371286 161.984 1.74009 162.639 3.41127C165.685 2.15538 169 3.80129 169 3.80129L158.96 7.42109C159.466 6.07754 160.348 4.90524 161.502 4.04164Z" fill="#3F3D56"/>
<path d="M5.01922 17.6737L0.00123596 13.6879C3.89951 13.2608 5.5012 15.3722 6.15673 17.0433C9.20221 15.7875 12.5176 17.4334 12.5176 17.4334L2.47748 21.0532C2.98399 19.7096 3.8657 18.5373 5.01922 17.6737Z" fill="#3F3D56"/>
</g>
<defs>
<clipPath id="clip0">
<rect width="169" height="218" fill="white" transform="matrix(-1 0 0 1 169 0)"/>
</clipPath>
</defs>
</svg>
