<svg width="326" height="302" viewBox="0 0 326 302" fill="none" xmlns="http://www.w3.org/2000/svg">
<g clip-path="url(#clip0)">
<path d="M198.884 201.317H127.115C126.864 201.316 126.623 201.215 126.446 201.034C126.268 200.854 126.168 200.609 126.168 200.354V120.076C126.168 119.82 126.268 119.576 126.446 119.395C126.623 119.215 126.864 119.113 127.115 119.113H198.884C199.135 119.113 199.375 119.215 199.553 119.395C199.73 119.576 199.83 119.82 199.83 120.076V200.354C199.83 200.609 199.73 200.854 199.553 201.034C199.375 201.215 199.135 201.316 198.884 201.317Z" fill="white"/>
<path d="M198.884 201.317H127.115C126.864 201.316 126.623 201.215 126.446 201.034C126.268 200.854 126.168 200.609 126.168 200.354V120.076C126.168 119.82 126.268 119.576 126.446 119.395C126.623 119.215 126.864 119.113 127.115 119.113H198.884C199.135 119.113 199.375 119.215 199.553 119.395C199.73 119.576 199.83 119.82 199.83 120.076V200.354C199.83 200.609 199.73 200.854 199.553 201.034C199.375 201.215 199.135 201.316 198.884 201.317ZM127.115 119.498C126.964 119.498 126.82 119.559 126.713 119.667C126.607 119.776 126.547 119.922 126.547 120.076V200.354C126.547 200.507 126.607 200.654 126.713 200.762C126.82 200.871 126.964 200.932 127.115 200.932H198.884C199.034 200.932 199.179 200.871 199.285 200.762C199.392 200.654 199.451 200.507 199.452 200.354V120.076C199.451 119.922 199.392 119.776 199.285 119.667C199.179 119.559 199.034 119.498 198.884 119.498H127.115Z" fill="#3F3D56"/>
<path d="M158.077 149.723H140.277C140.026 149.723 139.785 149.621 139.608 149.441C139.43 149.26 139.33 149.015 139.33 148.76V130.664C139.33 130.409 139.43 130.164 139.608 129.984C139.785 129.803 140.026 129.702 140.277 129.701H158.077C158.328 129.702 158.569 129.803 158.746 129.984C158.924 130.164 159.024 130.409 159.024 130.664V148.76C159.024 149.015 158.924 149.26 158.746 149.441C158.569 149.621 158.328 149.723 158.077 149.723ZM140.277 130.086C140.126 130.086 139.982 130.147 139.875 130.256C139.769 130.364 139.709 130.511 139.709 130.664V148.76C139.709 148.913 139.769 149.06 139.875 149.168C139.982 149.277 140.126 149.338 140.277 149.338H158.077C158.228 149.338 158.372 149.277 158.479 149.168C158.585 149.06 158.645 148.913 158.645 148.76V130.664C158.645 130.511 158.585 130.364 158.479 130.256C158.372 130.147 158.228 130.086 158.077 130.086H140.277Z" fill="#F2F2F2"/>
<path d="M152.963 151.937H135.163C134.937 151.936 134.72 151.845 134.56 151.683C134.401 151.52 134.311 151.3 134.311 151.07V132.974C134.311 132.744 134.401 132.524 134.56 132.362C134.72 132.199 134.937 132.108 135.163 132.108H152.963C153.189 132.108 153.405 132.199 153.565 132.362C153.725 132.524 153.815 132.744 153.815 132.974V151.07C153.815 151.3 153.725 151.52 153.565 151.683C153.405 151.845 153.189 151.936 152.963 151.937Z" fill="#FEC000"/>
<path d="M190.835 160.792H135.163C135.05 160.793 134.939 160.77 134.836 160.727C134.732 160.684 134.638 160.62 134.559 160.539C134.479 160.459 134.417 160.363 134.374 160.258C134.331 160.153 134.309 160.04 134.309 159.926C134.309 159.812 134.331 159.699 134.374 159.594C134.417 159.489 134.479 159.393 134.559 159.313C134.638 159.232 134.732 159.169 134.836 159.125C134.939 159.082 135.05 159.06 135.163 159.06H190.835C191.061 159.06 191.278 159.151 191.438 159.313C191.598 159.476 191.687 159.696 191.687 159.926C191.687 160.156 191.598 160.376 191.438 160.539C191.278 160.701 191.061 160.792 190.835 160.792V160.792Z" fill="#CCCCCC"/>
<path d="M177.391 166.76H135.163C135.05 166.761 134.939 166.738 134.836 166.695C134.732 166.651 134.638 166.588 134.559 166.507C134.479 166.427 134.417 166.331 134.374 166.226C134.331 166.121 134.309 166.008 134.309 165.894C134.309 165.78 134.331 165.667 134.374 165.562C134.417 165.457 134.479 165.361 134.559 165.281C134.638 165.2 134.732 165.137 134.836 165.093C134.939 165.05 135.05 165.027 135.163 165.028H177.391C177.617 165.028 177.833 165.119 177.993 165.281C178.153 165.444 178.243 165.664 178.243 165.894C178.243 166.124 178.153 166.344 177.993 166.507C177.833 166.669 177.617 166.76 177.391 166.76V166.76Z" fill="#CCCCCC"/>
<path d="M190.647 138.846H166.03C165.804 138.846 165.587 138.754 165.427 138.592C165.268 138.43 165.178 138.209 165.178 137.979C165.178 137.75 165.268 137.529 165.427 137.367C165.587 137.204 165.804 137.113 166.03 137.113H190.647C190.759 137.113 190.87 137.135 190.974 137.179C191.077 137.222 191.171 137.286 191.251 137.366C191.33 137.447 191.393 137.542 191.436 137.647C191.479 137.753 191.501 137.865 191.501 137.979C191.501 138.093 191.479 138.206 191.436 138.311C191.393 138.417 191.33 138.512 191.251 138.593C191.171 138.673 191.077 138.737 190.974 138.78C190.87 138.824 190.759 138.846 190.647 138.846Z" fill="#FEC000"/>
<path d="M184.503 144.814H166.03C165.804 144.814 165.587 144.722 165.427 144.56C165.268 144.397 165.178 144.177 165.178 143.947C165.178 143.718 165.268 143.497 165.427 143.335C165.587 143.172 165.804 143.081 166.03 143.081H184.503C184.729 143.081 184.946 143.172 185.106 143.335C185.266 143.497 185.356 143.718 185.356 143.947C185.356 144.177 185.266 144.397 185.106 144.56C184.946 144.722 184.729 144.814 184.503 144.814Z" fill="#FEC000"/>
<path d="M190.836 172.728H135.163C134.937 172.728 134.72 172.637 134.56 172.475C134.4 172.312 134.311 172.092 134.311 171.862C134.311 171.632 134.4 171.412 134.56 171.249C134.72 171.087 134.937 170.996 135.163 170.996H190.836C190.948 170.995 191.059 171.018 191.162 171.061C191.266 171.105 191.36 171.168 191.439 171.249C191.519 171.329 191.582 171.425 191.624 171.53C191.667 171.635 191.689 171.748 191.689 171.862C191.689 171.976 191.667 172.089 191.624 172.194C191.582 172.299 191.519 172.395 191.439 172.475C191.36 172.556 191.266 172.619 191.162 172.663C191.059 172.706 190.948 172.729 190.836 172.728Z" fill="#CCCCCC"/>
<path d="M177.391 178.696H135.163C134.937 178.696 134.72 178.605 134.56 178.442C134.4 178.28 134.311 178.06 134.311 177.83C134.311 177.6 134.4 177.38 134.56 177.217C134.72 177.055 134.937 176.964 135.163 176.964H177.391C177.503 176.963 177.614 176.986 177.717 177.029C177.821 177.072 177.915 177.136 177.994 177.217C178.074 177.297 178.137 177.393 178.18 177.498C178.223 177.603 178.245 177.716 178.245 177.83C178.245 177.944 178.223 178.057 178.18 178.162C178.137 178.267 178.074 178.363 177.994 178.443C177.915 178.524 177.821 178.587 177.717 178.631C177.614 178.674 177.503 178.696 177.391 178.696L177.391 178.696Z" fill="#CCCCCC"/>
<path d="M190.835 184.664H135.163C135.05 184.664 134.939 184.642 134.836 184.599C134.732 184.555 134.638 184.492 134.559 184.411C134.479 184.331 134.417 184.235 134.374 184.13C134.331 184.025 134.309 183.912 134.309 183.798C134.309 183.684 134.331 183.571 134.374 183.466C134.417 183.361 134.479 183.265 134.559 183.185C134.638 183.104 134.732 183.04 134.836 182.997C134.939 182.954 135.05 182.931 135.163 182.932H190.835C191.061 182.932 191.278 183.023 191.438 183.185C191.598 183.348 191.688 183.568 191.688 183.798C191.688 184.028 191.598 184.248 191.438 184.41C191.278 184.573 191.061 184.664 190.835 184.664Z" fill="#CCCCCC"/>
<path d="M190.836 190.632H135.163C134.937 190.632 134.72 190.541 134.56 190.378C134.4 190.216 134.311 189.996 134.311 189.766C134.311 189.536 134.4 189.316 134.56 189.153C134.72 188.991 134.937 188.9 135.163 188.9H190.836C191.062 188.9 191.278 188.991 191.438 189.153C191.598 189.316 191.688 189.536 191.688 189.766C191.688 189.996 191.598 190.216 191.438 190.378C191.278 190.541 191.062 190.632 190.836 190.632Z" fill="#CCCCCC"/>
<path d="M111.204 236.879C111.206 248.188 107.858 259.236 101.596 268.583C95.3339 277.931 86.448 285.144 76.0959 289.284C75.2838 289.615 74.4568 289.923 73.6261 290.208C72.698 290.532 71.76 290.828 70.812 291.099C70.1534 291.285 69.4886 291.46 68.8175 291.624C58.7154 294.085 48.1377 293.626 38.2783 290.3C37.5037 290.037 36.7366 289.756 35.9769 289.463C34.9554 289.063 33.945 288.633 32.9533 288.173C32.8785 288.143 32.8074 288.108 32.7363 288.074C32.3471 287.891 31.9692 287.709 31.5837 287.515H31.58C31.0524 287.256 30.5297 286.987 30.0121 286.708C28.8221 286.069 27.6583 285.388 26.5207 284.665C25.9295 284.293 25.347 283.906 24.7732 283.505C15.7422 277.306 8.7115 268.536 4.56193 258.293C0.412361 248.049 -0.671512 236.789 1.44612 225.922C3.56375 215.056 8.7887 205.066 16.4663 197.205C24.1439 189.344 33.9327 183.961 44.6062 181.731C45.5829 181.525 46.5696 181.348 47.5662 181.198C48.1911 181.099 48.8236 181.016 49.456 180.943C49.9088 180.89 50.3616 180.841 50.8218 180.803H50.8256C52.0567 180.689 53.2991 180.618 54.5527 180.59C54.7248 180.586 54.897 180.582 55.0728 180.578C55.1701 180.578 55.2674 180.574 55.3647 180.578H55.3685C55.5181 180.574 55.6678 180.574 55.8213 180.574C56.4499 180.574 57.0786 180.586 57.7035 180.609C59.0806 180.654 60.4427 180.751 61.7899 180.898C62.5682 180.981 63.3354 181.084 64.1025 181.198C64.1886 181.214 64.2784 181.225 64.3644 181.24C64.6189 181.282 64.8771 181.324 65.1316 181.37C65.6704 181.457 66.2056 181.56 66.7407 181.67C67.2421 181.773 67.7398 181.879 68.2375 181.993C70.077 182.42 71.8931 182.945 73.6785 183.565C85.7786 187.77 96.0804 196.092 102.844 207.125C103.035 207.433 103.222 207.745 103.406 208.061C103.548 208.297 103.683 208.533 103.817 208.772C103.866 208.852 103.911 208.932 103.952 209.012C103.982 209.058 104.004 209.103 104.031 209.149C104.278 209.586 104.517 210.032 104.749 210.477C109.001 218.605 111.218 227.673 111.204 236.879Z" fill="white"/>
<path d="M55.8282 293.566C49.8243 293.565 43.8595 292.585 38.1616 290.661C37.4269 290.412 36.6695 290.136 35.8453 289.818C34.8057 289.412 33.7813 288.975 32.799 288.519C32.7336 288.493 32.6559 288.456 32.5783 288.419C32.2058 288.244 31.8416 288.068 31.4712 287.882L31.4186 287.858C30.8931 287.6 30.3613 287.326 29.838 287.045C28.6461 286.404 27.4635 285.712 26.3234 284.988C25.7302 284.614 25.1373 284.22 24.5623 283.819C15.4709 277.578 8.39326 268.748 4.21618 258.435C0.0390944 248.123 -1.05168 236.787 1.08051 225.847C3.2127 214.907 8.47303 204.85 16.2024 196.936C23.9319 189.022 33.7866 183.603 44.532 181.358C45.5117 181.152 46.5147 180.972 47.5126 180.822C48.1037 180.729 48.7448 180.642 49.4152 180.565C49.871 180.512 50.328 180.462 50.7926 180.424C52.0257 180.31 53.2883 180.237 54.5455 180.209L55.1665 180.197C55.2376 180.196 55.3087 180.195 55.3799 180.198C55.5131 180.194 55.6658 180.194 55.8223 180.194C56.4554 180.194 57.0933 180.206 57.7181 180.228C59.0983 180.274 60.4825 180.372 61.8309 180.52C62.5449 180.596 63.3062 180.695 64.1577 180.822L64.5175 180.88C64.7437 180.917 64.9722 180.954 65.1977 180.995C65.683 181.074 66.1992 181.17 66.8161 181.297C67.3199 181.401 67.8204 181.508 68.321 181.622C70.1733 182.052 72.0023 182.581 73.8005 183.205C85.9759 187.45 96.3437 195.825 103.163 206.924C103.355 207.233 103.543 207.548 103.729 207.868C103.87 208.101 104.007 208.34 104.143 208.584C104.187 208.655 104.233 208.737 104.276 208.819C104.297 208.853 104.315 208.886 104.334 208.919L104.355 208.957C104.59 209.374 104.827 209.812 105.081 210.298C108.762 217.352 110.936 225.117 111.461 233.085C111.986 241.052 110.85 249.043 108.126 256.533C105.403 264.023 101.154 270.844 95.6584 276.549C90.1624 282.254 83.5431 286.714 76.2339 289.638C75.4414 289.961 74.6039 290.274 73.7469 290.569C72.8189 290.892 71.8653 291.194 70.9141 291.465C70.2554 291.651 69.5799 291.829 68.9059 291.994C64.6224 293.038 60.233 293.565 55.8282 293.566ZM31.6667 287.134H31.6687L31.751 287.174C32.1332 287.366 32.5082 287.548 32.8942 287.729C32.9622 287.761 33.0262 287.792 33.0935 287.82C34.0783 288.276 35.0885 288.707 36.1123 289.108C36.9253 289.421 37.6734 289.693 38.3978 289.939C48.1904 293.245 58.6975 293.701 68.7314 291.254C69.3966 291.091 70.0633 290.916 70.7127 290.732C71.6497 290.465 72.5896 290.168 73.5058 289.849C74.3513 289.558 75.1757 289.249 75.9576 288.931C86.2653 284.856 95.1158 277.701 101.342 268.408C107.567 259.115 110.876 248.122 110.831 236.879V236.878C110.837 227.736 108.635 218.731 104.42 210.655C104.17 210.176 103.937 209.745 103.707 209.338L103.679 209.288C103.668 209.267 103.656 209.245 103.642 209.223L103.622 209.189C103.584 209.117 103.544 209.045 103.5 208.973C103.361 208.725 103.228 208.492 103.088 208.26C102.903 207.942 102.718 207.633 102.529 207.328C95.8008 196.377 85.5715 188.114 73.5585 183.925C71.7854 183.309 69.9819 182.788 68.1554 182.365C67.6613 182.251 67.1664 182.145 66.6678 182.043C66.0609 181.918 65.5544 181.823 65.0736 181.745C64.8457 181.704 64.6209 181.668 64.3983 181.631L64.0394 181.573C63.2078 181.45 62.4562 181.352 61.7516 181.276C60.4209 181.131 59.0554 181.034 57.6924 180.989C57.0753 180.966 56.4465 180.955 55.8223 180.955C55.6701 180.956 55.5253 180.955 55.3787 180.958C55.2932 180.956 55.2345 180.957 55.1759 180.958L54.5617 180.97C53.3219 180.998 52.0766 181.069 50.8606 181.182L50.8229 181.183C50.3973 181.219 49.9487 181.269 49.5001 181.321C48.8388 181.397 48.2084 181.482 47.6248 181.574C46.6381 181.722 45.6494 181.9 44.6831 182.103C34.0816 184.318 24.3589 189.665 16.7331 197.473C9.10735 205.281 3.91765 215.203 1.81429 225.996C-0.289073 236.789 0.787449 247.974 4.90897 258.148C9.0305 268.322 16.0137 277.033 24.9837 283.19C25.5516 283.587 26.1346 283.974 26.719 284.342C27.8449 285.057 29.0116 285.74 30.188 286.372C30.6779 286.636 31.1748 286.892 31.6667 287.134Z" fill="#CBCBCB"/>
<path d="M103.213 224.653C102.608 225.455 101.838 226.113 100.956 226.58C100.074 227.047 99.1028 227.311 98.1096 227.355C97.1164 227.399 96.1258 227.221 95.2077 226.833C94.2896 226.446 93.4662 225.858 92.7955 225.112L78.1838 230.488L72.8047 222.258L93.5442 214.961C94.8516 213.898 96.4969 213.36 98.1684 213.449C99.8398 213.537 101.421 214.246 102.613 215.441C103.805 216.636 104.524 218.233 104.635 219.931C104.745 221.629 104.239 223.309 103.213 224.653Z" fill="#9F616A"/>
<path d="M57.5547 225.419L87.6575 215.303L92.7303 226.56L64.6647 235.31L57.5547 225.419Z" fill="#CCCCCC"/>
<path d="M68.8185 291.624C58.7163 294.085 48.1387 293.626 38.2793 290.3L38.9529 283.825L39.5778 277.776L48.9517 263.041L51.9566 258.32L64.3392 262.897L65.6003 270.981L67.6098 283.874L68.8185 291.624Z" fill="#2F2E41"/>
<path d="M76.0965 289.284C75.2845 289.615 74.4575 289.923 73.6268 290.208C72.6987 290.532 71.7607 290.828 70.8127 291.099C70.1541 291.285 69.4893 291.46 68.8182 291.624C58.7161 294.085 48.1384 293.626 38.279 290.3C37.5044 290.037 36.7373 289.756 35.9776 289.463C36.0813 291.716 36.0137 293.973 35.7755 296.215C34.6946 293.588 33.7527 290.903 32.954 288.173C32.8979 287.99 32.8455 287.808 32.7931 287.625C32.5312 286.705 32.2992 285.826 32.0896 285C31.8501 284.045 31.6443 283.159 31.4722 282.349C30.7874 279.168 30.5703 277.201 30.5703 277.201L37.8861 261.756L39.3492 261.927L39.9555 261.995L43.6227 262.421L48.9514 263.041L57.5844 264.042L65.6 270.981L72.781 277.201C72.781 277.201 73.3798 279.271 74.319 282.699C74.828 284.54 75.4304 286.773 76.0965 289.284Z" fill="#02014A"/>
<path d="M52.9031 186.54C60.0519 186.54 65.8472 180.648 65.8472 173.38C65.8472 166.113 60.0519 160.221 52.9031 160.221C45.7543 160.221 39.959 166.113 39.959 173.38C39.959 180.648 45.7543 186.54 52.9031 186.54Z" fill="#9F616A"/>
<path d="M61.9129 201.102C61.9129 201.102 58.8019 191.326 51.4857 191.326C49.6566 191.326 46.705 191.48 44.3054 193.072C34.645 199.481 28.768 210.375 28.3177 222.093L26.0684 280.635C26.0684 280.635 38.4497 285.212 42.952 283.495C47.4543 281.779 51.9566 270.336 51.9566 270.336C51.9566 270.336 50.831 285.784 55.3333 285.212C59.8356 284.64 76.7192 283.495 77.282 281.207C77.8448 278.918 68.6663 229.71 68.6663 229.71L61.9129 201.102Z" fill="#CCCCCC"/>
<path d="M46.6106 177.239C47.7718 177.168 48.9057 177.567 50.0589 177.723C54.1846 178.28 58.4766 175.236 59.3876 171.107C59.4606 170.558 59.6218 170.024 59.8647 169.527C60.4997 168.473 61.9458 168.272 63.1379 168.514C64.33 168.757 65.46 169.324 66.674 169.389C68.5485 169.489 70.3481 168.315 71.3471 166.7C72.3461 165.084 72.6289 163.096 72.494 161.193L71.5954 162.152C71.2303 161.366 71.0893 160.493 71.1885 159.63C70.7123 159.501 70.2116 159.498 69.7341 159.623C69.2567 159.747 68.8187 159.993 68.4619 160.339C67.6696 160.425 68.2676 158.845 67.6789 158.299C67.3926 158.12 67.0514 158.055 66.7208 158.117C65.0352 158.133 63.6715 156.822 62.3432 155.767C60.0417 153.943 57.3502 152.695 54.4865 152.124C52.583 151.746 50.559 151.686 48.7538 152.406C47.2713 152.998 46.0305 154.076 44.8824 155.198C42.0563 157.961 39.5537 161.207 38.3779 165.01C37.4221 168.124 37.395 171.457 38.3001 174.587C38.7739 176.213 40.2017 181.78 42.2919 181.91C44.9183 182.072 43.3415 177.437 46.6106 177.239Z" fill="#2F2E41"/>
<path opacity="0.1" d="M52.0759 218.428L38.8211 238.192L34.582 284.099L52.0759 218.428Z" fill="black"/>
<path d="M108.252 206.347C108.569 205.895 108.691 205.431 108.525 205.31C108.358 205.189 107.966 205.457 107.649 205.909C107.331 206.361 107.209 206.826 107.376 206.947C107.543 207.067 107.935 206.799 108.252 206.347Z" fill="#3F3D56"/>
<path d="M90.5769 227.64C90.2034 227.369 89.951 226.958 89.8753 226.498C89.7996 226.037 89.9068 225.566 90.1733 225.186L105.249 203.705C105.515 203.325 105.919 203.068 106.372 202.991C106.825 202.914 107.289 203.024 107.662 203.294L90.5769 227.64L90.5769 227.64Z" fill="#FEC000"/>
<path d="M91.1957 229.787L90.3234 229.154C90.1737 229.045 90.0465 228.908 89.949 228.749C89.8516 228.591 89.7858 228.414 89.7555 228.23C89.7252 228.045 89.7309 227.857 89.7723 227.674C89.8137 227.492 89.8899 227.32 89.9968 227.168L107.161 202.71C107.344 202.45 107.62 202.275 107.929 202.223C108.238 202.17 108.556 202.244 108.811 202.43L109.861 203.191L91.1957 229.787H91.1957Z" fill="#2F2E41"/>
<path d="M106.643 205.179L105.494 206.816L105.897 207.108L107.045 205.471L106.643 205.179Z" fill="#D0CDE1"/>
<path d="M105.063 207.43L103.914 209.066L104.317 209.358L105.465 207.722L105.063 207.43Z" fill="#D0CDE1"/>
<path d="M37.5893 299.074C38.1701 298.254 38.5668 297.314 38.7516 296.321C38.9365 295.328 38.9049 294.306 38.6591 293.326C38.4133 292.347 37.9593 291.435 37.3291 290.653C36.6989 289.871 35.9077 289.24 35.0114 288.803L35.851 273.028L26.5462 270.171L25.6683 292.465C25.0457 294.044 25.0147 295.801 25.5811 297.402C26.1475 299.004 27.2719 300.338 28.7413 301.152C30.2108 301.967 31.9231 302.205 33.5538 301.822C35.1846 301.439 36.6204 300.461 37.5893 299.074H37.5893Z" fill="#9F616A"/>
<path d="M37.5403 286.099H24.079L20.375 243.945L20.3877 243.906L32.987 206.288C33.4306 204.963 34.1407 203.747 35.072 202.717C36.0033 201.686 37.1355 200.865 38.3964 200.304C39.6573 199.743 41.0193 199.455 42.3956 199.458C43.7719 199.462 45.1325 199.757 46.3906 200.324C47.6487 200.891 48.7768 201.719 49.703 202.754C50.6293 203.789 51.3334 205.009 51.7705 206.335C52.2076 207.662 52.3681 209.067 52.2419 210.46C52.1156 211.854 51.7054 213.205 51.0372 214.428L36.2119 241.571L37.5403 286.099Z" fill="#CCCCCC"/>
<path d="M325.625 103.286C325.635 114.382 322.423 125.234 316.392 134.482C310.361 143.729 301.779 150.961 291.722 155.271C281.665 159.581 270.58 160.776 259.857 158.708C249.134 156.639 239.251 151.399 231.446 143.643C223.64 135.888 218.261 125.962 215.981 115.112C213.701 104.261 214.623 92.9669 218.63 82.6463C222.638 72.3257 229.553 63.4374 238.508 57.0957C247.464 50.7539 258.062 47.241 268.973 46.9972C269.146 46.9934 269.318 46.9896 269.494 46.9858C269.741 46.982 269.991 46.982 270.242 46.982C270.871 46.982 271.499 46.9934 272.124 47.0162C273.501 47.0619 274.863 47.1582 276.211 47.3053C276.989 47.389 277.756 47.4917 278.523 47.6059C278.609 47.6211 278.699 47.6325 278.785 47.6477C281.951 48.1439 285.067 48.9217 288.099 49.9722C299.044 53.7669 308.547 60.9477 315.276 70.5083C322.005 80.0689 325.624 91.5302 325.625 103.286Z" fill="white"/>
<path d="M270.192 160.076C239.442 160.077 214.414 134.661 214.385 103.393C214.371 88.5523 220.078 74.2968 230.281 63.6832C240.484 53.0696 254.372 46.9429 268.966 46.6168L269.487 46.6053C270.368 46.5924 271.265 46.604 272.139 46.6359C273.518 46.6818 274.902 46.7797 276.252 46.9272C276.966 47.0039 277.728 47.1029 278.579 47.2296L278.85 47.2729C291.994 49.3476 303.973 56.1358 312.621 66.4096C321.269 76.6833 326.015 89.7643 326 103.286V103.286C326.029 134.571 301.018 160.046 270.245 160.076L270.192 160.076ZM270.237 47.3624C269.99 47.3624 269.743 47.3624 269.5 47.3661L268.983 47.3776C239.262 48.0416 215.105 73.1698 215.133 103.392C215.162 134.238 239.857 159.314 270.192 159.315H270.244C300.604 159.286 325.28 134.152 325.252 103.287V103.286C325.266 89.9448 320.583 77.0384 312.05 66.9021C303.517 56.7659 291.697 50.0693 278.729 48.0237L278.46 47.9808C277.629 47.8571 276.878 47.7594 276.172 47.6838C274.84 47.5381 273.475 47.4415 272.113 47.3964C271.496 47.3737 270.867 47.3624 270.243 47.3624H270.237Z" fill="#CBCBCB"/>
<path d="M227.865 106.326C227.975 106.15 227.69 105.767 227.228 105.469C226.767 105.172 226.304 105.074 226.194 105.25C226.085 105.426 226.37 105.809 226.831 106.106C227.293 106.404 227.756 106.502 227.865 106.326Z" fill="#3F3D56"/>
<path d="M226.246 103.053C226.368 102.858 226.526 102.689 226.712 102.556C226.897 102.423 227.107 102.328 227.329 102.277C227.551 102.227 227.78 102.221 228.004 102.261C228.228 102.3 228.442 102.384 228.634 102.508L250.563 116.625C250.755 116.749 250.921 116.91 251.052 117.099C251.183 117.287 251.276 117.501 251.325 117.726C251.375 117.951 251.381 118.185 251.342 118.412C251.303 118.64 251.221 118.857 251.099 119.053L226.246 103.053V103.053Z" fill="#FEC000"/>
<path d="M224.172 103.799L224.862 102.692C225.03 102.423 225.296 102.232 225.602 102.162C225.908 102.092 226.228 102.149 226.493 102.319L251.462 118.394C251.617 118.494 251.751 118.624 251.857 118.777C251.963 118.929 252.038 119.102 252.079 119.284C252.119 119.467 252.124 119.656 252.092 119.84C252.061 120.024 251.994 120.2 251.895 120.358L251.322 121.278L224.172 103.799H224.172Z" fill="#2F2E41"/>
<path d="M227.89 104.408L227.625 104.833L229.296 105.908L229.56 105.483L227.89 104.408Z" fill="#D0CDE1"/>
<path d="M230.186 105.887L229.922 106.312L231.593 107.387L231.857 106.962L230.186 105.887Z" fill="#D0CDE1"/>
<path d="M270.391 52.778C278.999 52.778 285.978 45.6836 285.978 36.9322C285.978 28.1808 278.999 21.0863 270.391 21.0863C261.783 21.0863 254.805 28.1808 254.805 36.9322C254.805 45.6836 261.783 52.778 270.391 52.778Z" fill="#FFB8B8"/>
<path d="M285.234 157.506C272.589 161.096 259.102 160.025 247.158 154.482L248.356 121.954L248.445 119.425L248.479 118.603L248.52 117.393L248.55 116.621C248.55 116.621 248.599 116.617 248.692 116.613C248.947 116.594 249.534 116.552 250.376 116.503C251.353 116.446 252.667 116.373 254.197 116.309C254.56 116.294 254.934 116.278 255.32 116.259C263.38 115.955 275.969 115.89 277.634 118.359L277.843 119.813L278.18 122.16L278.869 126.957C278.869 126.957 286.697 142.783 285.234 157.506Z" fill="#02014A"/>
<path d="M289.191 75.468L286.121 104.297L280.274 117.446L278.107 122.321L246.744 121.935L249.975 99.7117C245.414 87.7307 256.248 82.8997 256.248 82.8997L267.487 59.4897C267.487 59.4897 270.48 57.9679 278.297 57.5849C285.564 57.2289 279.836 58.3484 279.836 58.3484C289.34 57.3821 289.191 75.468 289.191 75.468Z" fill="#CCCCCC"/>
<path opacity="0.2" d="M279.76 105.819L273.913 118.967C272.035 115.396 270.605 111.352 270.605 108.963C270.605 102.393 277.068 105.871 277.068 105.871C277.068 105.871 271.841 76.7883 271.841 68.0924C271.841 62.3164 276.578 87.95 279.76 105.819Z" fill="black"/>
<path d="M288.355 27.2783C287.341 24.7627 285.773 22.5173 283.77 20.7151C284.591 20.4352 285.277 19.848 285.688 19.0728C286.288 17.8656 285.97 16.3516 285.154 15.271C284.411 14.3581 283.449 13.6546 282.361 13.2278C283.158 13.5963 284.03 13.7668 284.904 13.7252C285.964 13.6131 287.024 12.7673 286.961 11.7179C286.901 10.7181 285.934 10.0421 285.066 9.52034C284.502 9.18189 283.939 8.84345 283.376 8.50503C283.543 8.17624 283.69 7.83721 283.816 7.48992C284.302 6.22734 284.419 4.84895 284.154 3.52032C283.888 2.19168 283.25 0.969298 282.318 0C284.162 1.90889 283.691 4.86316 281.869 7.26061C281.81 7.33787 281.747 7.41322 281.686 7.48947C281.325 7.2725 280.964 7.05554 280.603 6.83859C279.702 6.29747 278.766 5.7437 277.72 5.61608C276.674 5.48847 275.483 5.9094 275.056 6.85796C274.599 7.8733 275.119 9.16902 274.523 10.1117C274.002 10.9367 272.864 11.1123 271.878 11.0732C270.892 11.0342 269.843 10.8758 268.966 11.3192C267.746 11.9357 267.346 13.6028 267.888 14.8461C268.129 15.3756 268.489 15.8406 268.938 16.2039C266.328 16.5745 263.756 17.3625 261.23 18.164C258.25 19.1092 255.216 20.113 252.726 22.026C250.236 23.9391 248.349 26.9588 248.587 30.1226C248.824 33.2864 251.915 38.2694 254.997 37.7636L255.466 36.2706C257.329 35.3702 259.422 35.0836 261.453 35.4508C263.484 35.8179 265.352 36.8205 266.796 38.3186C266.832 36.3267 269.814 35.6649 271.3 36.9636C272.786 38.2623 273.073 40.458 273.188 42.4468C273.303 44.4356 273.412 46.6011 274.701 48.102C275.938 49.5425 278.044 49.9891 279.877 49.56C281.71 49.1309 283.294 47.9489 284.607 46.5793C289.368 41.6107 290.902 33.714 288.355 27.2783Z" fill="#2F2E41"/>
<path d="M238.641 120.031C239.448 120.621 240.372 121.025 241.349 121.213C242.326 121.401 243.331 121.368 244.294 121.119C245.257 120.869 246.155 120.407 246.924 119.766C247.693 119.126 248.314 118.321 248.744 117.41L291.203 118.264L294.013 108.804L245.142 107.912C243.588 107.279 241.86 107.247 240.285 107.823C238.71 108.399 237.398 109.542 236.596 111.036C235.795 112.53 235.56 114.271 235.937 115.928C236.314 117.586 237.276 119.046 238.641 120.031V120.031Z" fill="#FFB8B8"/>
<path d="M279.919 56.7877C279.919 56.7877 270.035 57.5607 270.035 66.2566C270.035 74.9525 278.969 105.871 278.969 105.871C278.969 105.871 272.506 102.393 272.506 108.963C272.506 115.533 283.341 134.664 284.481 121.91C284.481 121.91 300.828 130.027 299.878 114.76C298.927 99.4943 288.663 67.2228 288.663 67.2228C288.663 67.2228 287.522 56.208 279.919 56.7877Z" fill="#CCCCCC"/>
</g>
<defs>
<clipPath id="clip0">
<rect width="326" height="302" fill="white"/>
</clipPath>
</defs>
</svg>
