<svg width="260" height="170" viewBox="0 0 260 170" fill="none" xmlns="http://www.w3.org/2000/svg">
<rect opacity="0.7" width="260" height="170" rx="16" fill="#FEC000"/>
<g clip-path="url(#clip0)">
<path d="M153.577 46.6058C144.635 45.1851 134.452 44.427 123.846 44.427C114.141 44.427 104.79 45.061 96.4209 46.2564C96.4229 46.1284 96.4247 46.0005 96.4305 45.8726C96.6523 38.4462 99.7833 31.4009 105.154 26.2424C110.525 21.0838 117.71 18.2214 125.172 18.2667C132.635 18.3121 139.784 21.2618 145.091 26.4853C150.398 31.7087 153.443 38.7916 153.573 46.2201C153.575 46.3499 153.577 46.4779 153.577 46.6058Z" fill="#6E17F2"/>
<g opacity="0.1">
<path opacity="0.1" d="M128.747 18.2561C124.777 17.7224 120.74 18.0249 116.896 19.144C113.051 20.2632 109.486 22.1739 106.431 24.7525C103.376 27.3311 100.9 30.52 99.1618 34.1125C97.424 37.7049 96.4639 41.6208 96.3435 45.6064C96.3377 45.7343 96.3359 45.8622 96.334 45.9902C98.8202 45.635 101.395 45.3307 104.038 45.0766C104.361 38.4369 107.009 32.1193 111.523 27.2202C116.036 22.3212 122.13 19.1497 128.747 18.2561Z" fill="white"/>
</g>
<path d="M166.079 48.8629C161.963 47.752 157.787 46.8697 153.573 46.2201C146.665 45.1544 139.7 44.4881 132.715 44.2246C129.805 44.1062 126.842 44.0451 123.846 44.0451C121.471 44.0451 119.115 44.0833 116.793 44.1597C109.979 44.3601 103.181 44.9319 96.4297 45.8725C91.4322 46.5576 86.4832 47.5564 81.6122 48.8629C70.255 51.9888 64 56.1784 64 60.6582C64 65.138 70.255 69.3275 81.6122 72.4535C89.5993 74.6533 99.4469 76.1523 110.177 76.8397C114.606 77.1262 119.185 77.2713 123.846 77.2713C128.522 77.2713 133.116 77.1242 137.558 76.8378C147.323 76.2096 156.358 74.9092 163.919 73.0187C163.959 73.0073 163.998 72.9977 164.038 72.9882C164.548 72.8621 165.051 72.7304 165.548 72.5986C165.726 72.549 165.902 72.5012 166.079 72.4535C166.089 72.4494 166.099 72.4462 166.109 72.4439C166.278 72.3981 166.445 72.3504 166.612 72.3045C166.946 72.2091 167.276 72.1155 167.6 72.0181C167.615 72.0143 167.629 72.0105 167.642 72.0066C167.924 71.9226 168.2 71.8386 168.475 71.7546C168.699 71.6839 168.921 71.6152 169.142 71.5445C169.303 71.493 169.462 71.4414 169.62 71.3899C169.735 71.3517 169.848 71.3154 169.959 71.2772C170.111 71.2276 170.262 71.176 170.412 71.1244C170.475 71.1034 170.538 71.0824 170.6 71.0595C170.744 71.0118 170.884 70.9621 171.024 70.9125C171.175 70.859 171.327 70.8036 171.476 70.7502C171.601 70.7062 171.726 70.6604 171.848 70.6146C171.952 70.5745 172.054 70.5363 172.157 70.4981C172.439 70.3931 172.716 70.2842 172.988 70.1773C173.124 70.1219 173.26 70.0685 173.395 70.0131C173.527 69.9596 173.661 69.9042 173.792 69.8489C174.006 69.7591 174.217 69.6693 174.425 69.5796C174.524 69.5338 174.626 69.4899 174.724 69.4479C174.799 69.4135 174.872 69.381 174.946 69.3467C175 69.3237 175.054 69.2989 175.106 69.2741C175.299 69.1863 175.491 69.0965 175.679 69.0068C176.4 68.663 177.074 68.3117 177.699 67.9527C181.621 65.7166 183.691 63.2361 183.691 60.6582C183.691 56.1784 177.436 51.9888 166.079 48.8629ZM165.975 72.0868C157.979 74.2886 148.104 75.7876 137.345 76.4693C132.97 76.7462 128.447 76.8894 123.846 76.8894C119.259 76.8894 114.752 76.7481 110.39 76.4712C99.6138 75.7914 89.724 74.2924 81.7158 72.0868C70.5389 69.0087 64.3836 64.9509 64.3836 60.6582C64.3842 60.2789 64.4319 59.9011 64.5256 59.5335C65.5038 55.6609 71.521 52.0366 81.7158 49.2295C86.5499 47.9332 91.4611 46.9402 96.4202 46.2564C103.212 45.3104 110.051 44.7367 116.906 44.5378C119.192 44.4633 121.505 44.4264 123.846 44.427C126.801 44.427 129.725 44.4862 132.598 44.6008C139.624 44.8619 146.629 45.5314 153.576 46.6058C157.755 47.2525 161.894 48.1284 165.975 49.2295C176.168 52.0366 182.183 55.659 183.164 59.5296C183.259 59.8983 183.307 60.2775 183.307 60.6582C183.307 64.9509 177.152 69.0087 165.975 72.0868Z" fill="#3F3D56"/>
<path d="M183.581 60.832C183.581 63.3831 181.469 65.7968 177.698 67.9527C177.071 68.3117 176.396 68.663 175.678 69.0067C175.49 69.0965 175.298 69.1862 175.105 69.2741C175.053 69.2989 174.999 69.3237 174.945 69.3466C174.871 69.381 174.798 69.4135 174.723 69.4478C174.625 69.4899 174.523 69.5338 174.424 69.5796C174.217 69.6693 174.006 69.7591 173.791 69.8488C173.66 69.9042 173.526 69.9596 173.394 70.0131C173.259 70.0684 173.123 70.1219 172.987 70.1773C172.715 70.2842 172.438 70.3931 172.156 70.4981C172.053 70.5363 171.951 70.5745 171.848 70.6146C171.725 70.6604 171.6 70.7062 171.476 70.7501C171.326 70.8036 171.174 70.859 171.023 70.9125C170.883 70.9621 170.743 71.0118 170.599 71.0595C170.538 71.0824 170.474 71.1034 170.411 71.1244C170.261 71.176 170.11 71.2275 169.958 71.2772C169.847 71.3154 169.734 71.3517 169.619 71.3899C169.461 71.4414 169.302 71.493 169.141 71.5445C168.921 71.6152 168.698 71.6839 168.474 71.7546C168.199 71.8386 167.923 71.9226 167.641 72.0066C167.628 72.0105 167.614 72.0143 167.599 72.0181C167.275 72.1155 166.945 72.209 166.611 72.3045C166.444 72.3504 166.277 72.3981 166.109 72.4439C166.098 72.4462 166.088 72.4494 166.078 72.4535C165.901 72.5012 165.725 72.5489 165.547 72.5986C165.052 72.7284 164.547 72.8602 164.037 72.9881C163.997 72.9977 163.958 73.0072 163.918 73.0187C156.562 74.848 147.537 76.1809 137.55 76.8244C133.174 77.1051 128.613 77.2541 123.927 77.2541C119.199 77.2541 114.599 77.1032 110.19 76.8168C83.8651 75.1077 64.2734 68.6 64.2734 60.8319C64.2755 60.3593 64.3479 59.8895 64.4882 59.438C64.4997 59.4704 64.5112 59.501 64.5247 59.5335C67.2618 66.6904 86.6868 72.4745 111.891 73.8856C115.752 74.1033 119.751 74.216 123.845 74.216C127.955 74.216 131.97 74.1014 135.846 73.8837C161.029 72.4668 180.435 66.6809 183.163 59.5296C183.209 59.415 183.249 59.3005 183.283 59.1859C183.478 59.7132 183.579 60.2702 183.581 60.832Z" fill="#3F3D56"/>
<path d="M81.5831 58.7765C78.3908 58.7765 74.998 58.0928 74.998 56.8256C74.998 55.5583 78.3908 54.8746 81.5831 54.8746C84.7754 54.8746 88.1682 55.5583 88.1682 56.8256C88.1682 58.0928 84.7754 58.7765 81.5831 58.7765ZM81.5831 55.2565C77.9285 55.2565 75.3817 56.0835 75.3817 56.8256C75.3817 57.5677 77.9285 58.3946 81.5831 58.3946C85.2377 58.3946 87.7845 57.5677 87.7845 56.8256C87.7845 56.0835 85.2377 55.2565 81.5831 55.2565Z" fill="#3F3D56"/>
<path d="M95.2022 67.7514C92.01 67.7514 88.6172 67.0677 88.6172 65.8005C88.6172 64.5332 92.01 63.8495 95.2022 63.8495C98.3945 63.8495 101.787 64.5332 101.787 65.8005C101.787 67.0677 98.3945 67.7514 95.2022 67.7514ZM95.2022 64.2314C91.5476 64.2314 89.0008 65.0584 89.0008 65.8005C89.0008 66.5426 91.5476 67.3695 95.2022 67.3695C98.8568 67.3695 101.404 66.5426 101.404 65.8005C101.404 65.0584 98.8568 64.2314 95.2022 64.2314Z" fill="#3F3D56"/>
<path d="M165.982 58.7765C162.789 58.7765 159.396 58.0928 159.396 56.8256C159.396 55.5583 162.789 54.8746 165.982 54.8746C169.174 54.8746 172.567 55.5583 172.567 56.8256C172.567 58.0928 169.174 58.7765 165.982 58.7765ZM165.982 55.2565C162.327 55.2565 159.78 56.0835 159.78 56.8256C159.78 57.5677 162.327 58.3946 165.982 58.3946C169.636 58.3946 172.183 57.5677 172.183 56.8256C172.183 56.0835 169.636 55.2565 165.982 55.2565Z" fill="#3F3D56"/>
<path d="M152.362 67.7514C149.17 67.7514 145.777 67.0677 145.777 65.8005C145.777 64.5332 149.17 63.8495 152.362 63.8495C155.555 63.8495 158.947 64.5332 158.947 65.8005C158.947 67.0677 155.555 67.7514 152.362 67.7514ZM152.362 64.2314C148.708 64.2314 146.161 65.0584 146.161 65.8005C146.161 66.5426 148.708 67.3695 152.362 67.3695C156.017 67.3695 158.564 66.5426 158.564 65.8005C158.564 65.0584 156.017 64.2314 152.362 64.2314Z" fill="#3F3D56"/>
<path d="M123.781 71.9524C120.589 71.9524 117.196 71.2687 117.196 70.0015C117.196 68.7342 120.589 68.0505 123.781 68.0505C126.974 68.0505 130.366 68.7342 130.366 70.0015C130.366 71.2687 126.974 71.9524 123.781 71.9524ZM123.781 68.4324C120.127 68.4324 117.58 69.2594 117.58 70.0015C117.58 70.7436 120.127 71.5705 123.781 71.5705C127.436 71.5705 129.983 70.7436 129.983 70.0015C129.983 69.2594 127.436 68.4324 123.781 68.4324Z" fill="#3F3D56"/>
<path d="M128.637 112.087C133.087 112.087 136.695 108.495 136.695 104.064C136.695 99.6335 133.087 96.0417 128.637 96.0417C124.186 96.0417 120.578 99.6335 120.578 104.064C120.578 108.495 124.186 112.087 128.637 112.087Z" fill="#2F2E41"/>
<path d="M125.572 109.335L121.65 111.29L122.747 113.47L126.669 111.514L125.572 109.335Z" fill="#2F2E41"/>
<path d="M123.263 113.248C123.496 112.897 122.922 112.112 121.981 111.495C121.04 110.877 120.089 110.661 119.857 111.012C119.624 111.364 120.198 112.149 121.139 112.766C122.079 113.384 123.031 113.6 123.263 113.248Z" fill="#2F2E41"/>
<path d="M131.702 109.335L130.605 111.514L134.527 113.47L135.624 111.29L131.702 109.335Z" fill="#2F2E41"/>
<path d="M136.133 112.766C137.074 112.149 137.648 111.364 137.415 111.012C137.183 110.661 136.232 110.877 135.291 111.495C134.35 112.112 133.776 112.897 134.009 113.248C134.242 113.6 135.193 113.384 136.133 112.766Z" fill="#2F2E41"/>
<path d="M128.073 104.844C129.594 104.844 130.827 103.616 130.827 102.102C130.827 100.588 129.594 99.36 128.073 99.36C126.551 99.36 125.318 100.588 125.318 102.102C125.318 103.616 126.551 104.844 128.073 104.844Z" fill="white"/>
<path d="M128.742 101.576C129.1 101.221 129.097 100.642 128.738 100.285C128.378 99.9266 127.797 99.9246 127.44 100.28C127.083 100.635 127.085 101.214 127.445 101.572C127.805 101.93 128.385 101.932 128.742 101.576Z" fill="#3F3D56"/>
<path d="M134.994 95.3366C135.115 92.3666 132.544 89.851 129.251 89.7178C125.958 89.5846 123.19 91.8844 123.069 94.8544C122.948 97.8244 125.237 98.4993 128.53 98.6324C131.823 98.7656 134.873 98.3067 134.994 95.3366Z" fill="#6E17F2"/>
<path d="M139.639 108.265C140.169 107.812 139.423 106.082 137.974 104.401C136.524 102.72 134.92 101.725 134.389 102.178C133.859 102.631 134.605 104.361 136.054 106.042C137.504 107.723 139.108 108.718 139.639 108.265Z" fill="#2F2E41"/>
<path d="M121.241 106.042C122.691 104.361 123.436 102.631 122.906 102.178C122.376 101.725 120.771 102.72 119.322 104.401C117.872 106.082 117.127 107.812 117.657 108.265C118.187 108.718 119.792 107.723 121.241 106.042Z" fill="#2F2E41"/>
<path d="M130.85 107.226C130.937 107.703 130.83 108.195 130.553 108.593C130.276 108.992 129.851 109.265 129.372 109.352C128.893 109.438 128.399 109.332 127.999 109.056C127.598 108.78 127.324 108.357 127.237 107.881L127.236 107.877C127.056 106.884 127.827 106.532 128.825 106.352C129.823 106.172 130.669 106.232 130.85 107.226Z" fill="white"/>
<path d="M115.022 112.598C114.921 112.598 114.823 112.558 114.751 112.486C114.679 112.414 114.639 112.317 114.639 112.216V89.6834C114.639 89.5821 114.679 89.4849 114.751 89.4133C114.823 89.3417 114.921 89.3015 115.022 89.3015C115.124 89.3015 115.222 89.3417 115.294 89.4133C115.365 89.4849 115.406 89.5821 115.406 89.6834V112.216C115.406 112.317 115.365 112.414 115.294 112.486C115.222 112.558 115.124 112.598 115.022 112.598Z" fill="#CCCCCC"/>
<path d="M109.268 132.839C109.167 132.839 109.069 132.799 108.997 132.727C108.925 132.656 108.885 132.559 108.885 132.457V116.035C108.885 115.934 108.925 115.837 108.997 115.765C109.069 115.693 109.167 115.653 109.268 115.653C109.37 115.653 109.468 115.693 109.54 115.765C109.612 115.837 109.652 115.934 109.652 116.035V132.457C109.652 132.559 109.612 132.656 109.54 132.727C109.468 132.799 109.37 132.839 109.268 132.839Z" fill="#CCCCCC"/>
<path d="M124.037 119.281C123.935 119.281 123.838 119.241 123.766 119.17C123.694 119.098 123.653 119.001 123.653 118.899V96.3668C123.653 96.2655 123.694 96.1683 123.766 96.0967C123.838 96.0251 123.935 95.9849 124.037 95.9849C124.139 95.9849 124.236 96.0251 124.308 96.0967C124.38 96.1683 124.421 96.2655 124.421 96.3668V118.899C124.421 119.001 124.38 119.098 124.308 119.17C124.236 119.241 124.139 119.281 124.037 119.281Z" fill="#CCCCCC"/>
<path d="M118.474 135.513C118.373 135.513 118.275 135.472 118.203 135.401C118.131 135.329 118.091 135.232 118.091 135.131V125.965C118.091 125.864 118.131 125.766 118.203 125.695C118.275 125.623 118.373 125.583 118.474 125.583C118.576 125.583 118.674 125.623 118.746 125.695C118.818 125.766 118.858 125.864 118.858 125.965V135.131C118.858 135.232 118.818 135.329 118.746 135.401C118.674 135.472 118.576 135.513 118.474 135.513Z" fill="#CCCCCC"/>
<path d="M126.34 88.5376C126.238 88.5376 126.14 88.4974 126.068 88.4258C125.996 88.3541 125.956 88.257 125.956 88.1557V78.9899C125.956 78.8886 125.996 78.7914 126.068 78.7198C126.14 78.6482 126.238 78.608 126.34 78.608C126.441 78.608 126.539 78.6482 126.611 78.7198C126.683 78.7914 126.723 78.8886 126.723 78.9899V88.1557C126.723 88.257 126.683 88.3541 126.611 88.4258C126.539 88.4974 126.441 88.5376 126.34 88.5376Z" fill="#CCCCCC"/>
<path d="M107.157 92.5477C107.055 92.5476 106.958 92.5074 106.886 92.4358C106.814 92.3642 106.773 92.267 106.773 92.1657V82.9999C106.773 82.8986 106.814 82.8015 106.886 82.7299C106.958 82.6582 107.055 82.618 107.157 82.618C107.259 82.618 107.356 82.6582 107.428 82.7299C107.5 82.8015 107.541 82.8986 107.541 82.9999V92.1657C107.541 92.267 107.5 92.3642 107.428 92.4358C107.356 92.5074 107.259 92.5476 107.157 92.5477Z" fill="#CCCCCC"/>
<path d="M140.533 93.5025C140.431 93.5025 140.334 93.4622 140.262 93.3906C140.19 93.319 140.149 93.2218 140.149 93.1205V83.9547C140.149 83.8534 140.19 83.7563 140.262 83.6847C140.334 83.613 140.431 83.5728 140.533 83.5728C140.635 83.5728 140.732 83.613 140.804 83.6847C140.876 83.7563 140.917 83.8534 140.917 83.9547V93.1205C140.917 93.2218 140.876 93.319 140.804 93.3906C140.732 93.4622 140.635 93.5025 140.533 93.5025Z" fill="#CCCCCC"/>
<path d="M139.766 122.146C139.665 122.146 139.567 122.105 139.495 122.034C139.423 121.962 139.383 121.865 139.383 121.764V110.688C139.383 110.587 139.423 110.49 139.495 110.418C139.567 110.347 139.665 110.306 139.766 110.306C139.868 110.306 139.966 110.347 140.038 110.418C140.11 110.49 140.15 110.587 140.15 110.688V121.764C140.15 121.865 140.11 121.962 140.038 122.034C139.966 122.105 139.868 122.146 139.766 122.146Z" fill="#CCCCCC"/>
<path d="M132.094 131.884C131.992 131.884 131.894 131.844 131.822 131.773C131.75 131.701 131.71 131.604 131.71 131.502V115.08C131.71 114.979 131.75 114.882 131.822 114.81C131.894 114.739 131.992 114.698 132.094 114.698C132.195 114.698 132.293 114.739 132.365 114.81C132.437 114.882 132.477 114.979 132.477 115.08V131.502C132.477 131.604 132.437 131.701 132.365 131.773C132.293 131.844 132.195 131.884 132.094 131.884Z" fill="#CCCCCC"/>
<path d="M133.628 103.814C133.526 103.814 133.428 103.774 133.357 103.702C133.285 103.631 133.244 103.533 133.244 103.432V80.8994C133.244 80.7981 133.285 80.701 133.356 80.6294C133.428 80.5578 133.526 80.5175 133.628 80.5175C133.73 80.5175 133.827 80.5578 133.899 80.6294C133.971 80.701 134.011 80.7981 134.011 80.8994V103.432C134.011 103.533 133.971 103.631 133.899 103.702C133.827 103.774 133.73 103.814 133.628 103.814Z" fill="#CCCCCC"/>
<path d="M180.659 151.762C181.208 151.305 180.466 149.522 179.001 147.781C177.537 146.04 175.905 144.999 175.356 145.457C174.806 145.914 175.548 147.697 177.013 149.438C178.477 151.179 180.11 152.22 180.659 151.762Z" fill="#2F2E41"/>
<path d="M177.058 149.782C178.5 145.473 176.161 140.816 171.833 139.38C167.505 137.943 162.827 140.272 161.384 144.581C159.941 148.89 162.28 153.547 166.608 154.983C170.937 156.42 175.615 154.091 177.058 149.782Z" fill="#2F2E41"/>
<path d="M172.719 153.636H170.209V158.112H172.719V153.636Z" fill="#2F2E41"/>
<path d="M167.698 153.636H165.188V158.112H167.698V153.636Z" fill="#2F2E41"/>
<path d="M170.626 158.945C171.781 158.945 172.717 158.595 172.717 158.164C172.717 157.733 171.781 157.383 170.626 157.383C169.471 157.383 168.534 157.733 168.534 158.164C168.534 158.595 169.471 158.945 170.626 158.945Z" fill="#2F2E41"/>
<path d="M165.607 158.841C166.762 158.841 167.698 158.491 167.698 158.06C167.698 157.629 166.762 157.279 165.607 157.279C164.452 157.279 163.516 157.629 163.516 158.06C163.516 158.491 164.452 158.841 165.607 158.841Z" fill="#2F2E41"/>
<path d="M166.628 136.844C167.365 133.886 170.621 132.146 173.9 132.957C177.179 133.767 179.239 136.822 178.501 139.779C177.764 142.736 175.317 142.746 172.038 141.935C168.759 141.125 165.89 139.801 166.628 136.844Z" fill="#CCCCCC"/>
<path d="M163.648 145.128C163.955 144.483 162.533 143.172 160.472 142.199C158.411 141.226 156.491 140.959 156.185 141.603C155.878 142.248 157.3 143.559 159.361 144.532C161.422 145.505 163.342 145.772 163.648 145.128Z" fill="#2F2E41"/>
<path d="M167.987 148.188C169.508 148.188 170.741 146.96 170.741 145.446C170.741 143.932 169.508 142.704 167.987 142.704C166.466 142.704 165.232 143.932 165.232 145.446C165.232 146.96 166.466 148.188 167.987 148.188Z" fill="white"/>
<path d="M166.855 145.377C167.362 145.377 167.773 144.968 167.773 144.463C167.773 143.959 167.362 143.549 166.855 143.549C166.348 143.549 165.937 143.959 165.937 144.463C165.937 144.968 166.348 145.377 166.855 145.377Z" fill="#3F3D56"/>
<path d="M167.962 152.317C168.598 152.317 169.113 151.804 169.113 151.171C169.113 150.538 168.598 150.025 167.962 150.025C167.327 150.025 166.812 150.538 166.812 151.171C166.812 151.804 167.327 152.317 167.962 152.317Z" fill="white"/>
<path d="M192.808 159H147.54C147.49 159 147.441 158.98 147.405 158.944C147.369 158.908 147.349 158.86 147.349 158.809C147.349 158.758 147.369 158.71 147.405 158.674C147.441 158.638 147.49 158.618 147.54 158.618H192.808C192.859 158.618 192.908 158.638 192.944 158.674C192.98 158.71 193 158.758 193 158.809C193 158.86 192.98 158.908 192.944 158.944C192.908 158.98 192.859 159 192.808 159Z" fill="#3F3D56"/>
</g>
<defs>
<clipPath id="clip0">
<rect width="129" height="141" fill="white" transform="translate(64 18)"/>
</clipPath>
</defs>
</svg>
