<svg width="260" height="170" viewBox="0 0 260 170" fill="none" xmlns="http://www.w3.org/2000/svg">
<rect opacity="0.7" width="260" height="170" rx="16" fill="#FEC000"/>
<g clip-path="url(#clip0)">
<path d="M71.0939 96.2089C71.0959 95.9327 71.0408 95.659 70.9323 95.405C70.8238 95.151 70.6641 94.9221 70.4632 94.7326C70.2623 94.5431 70.0245 94.3971 69.7647 94.3037C69.5049 94.2103 69.2286 94.1715 68.9531 94.1897C68.6776 94.2079 68.4088 94.2827 68.1635 94.4095C67.9182 94.5363 67.7017 94.7123 67.5275 94.9266C67.3532 95.1409 67.225 95.3888 67.1508 95.6549C67.0766 95.921 67.0581 96.1995 67.0963 96.4731L61.3257 104.034C61.0794 104.527 60.984 105.081 61.0512 105.628C61.1185 106.175 61.3455 106.69 61.7038 107.108L62.1565 107.636L64.2335 107.221L66.5875 105.142L66.3105 102.787L69.2184 98.2152L69.2146 98.2119C69.7236 98.1795 70.2012 97.9544 70.5502 97.5823C70.8993 97.2103 71.0937 96.7192 71.0939 96.2089Z" fill="#FFB9B9"/>
<path d="M31.1881 133.174L30.2461 129.673L43.2916 124.373L44.6818 129.539L31.1881 133.174Z" fill="#FFB8B8"/>
<path d="M28.0371 134.98L25 123.693L25.1427 123.655C26.3071 123.341 27.5484 123.503 28.5935 124.105C29.6385 124.707 30.4018 125.7 30.7154 126.865L30.7155 126.865L32.5704 133.759L28.0371 134.98Z" fill="#2F2E41"/>
<path d="M49.1575 132.614L46.2275 130.482L53.0521 118.16L57.3766 121.306L49.1575 132.614Z" fill="#FFB8B8"/>
<path d="M47.8394 136L38.3916 129.125L38.4785 129.006C39.1878 128.03 40.2554 127.376 41.4465 127.188C42.6376 127 43.8547 127.293 44.8301 128.002L44.8303 128.002L50.6007 132.201L47.8394 136Z" fill="#2F2E41"/>
<path d="M74.0641 115.395L66.6908 108.228C66.0473 107.603 65.1997 107.231 64.304 107.181C63.4082 107.131 62.5245 107.406 61.8154 107.956L47.8936 123.43L49.1398 125.37L62.4327 116.365L71.4331 128.141L80.0182 123.846L74.0641 115.395Z" fill="#2F2E41"/>
<path d="M70.8795 116.919L65.4792 116.503L61.5683 115.554C61.3474 115.21 61.0265 114.941 60.6486 114.783C60.2706 114.626 59.8537 114.588 59.4535 114.674C59.0534 114.761 58.6891 114.967 58.4096 115.266C58.13 115.566 57.9485 115.943 57.8893 116.348C57.8301 116.754 57.896 117.167 58.0783 117.534C58.2605 117.901 58.5504 118.203 58.9091 118.4C59.2678 118.598 59.6782 118.681 60.0854 118.638C60.4925 118.596 60.877 118.43 61.1873 118.163L61.1867 118.166L63.5407 119.135L73.6488 122.599L74.8951 121.629L70.8795 116.919Z" fill="#FFB9B9"/>
<path d="M83.8962 131.882L80.8499 133.821H77.2497L60.4952 127.587L35.9863 132.02L35.2939 126.755L57.7259 116.919L77.3883 123.43L83.8962 131.882Z" fill="#2F2E41"/>
<path d="M77.3876 98.2152C80.3701 98.2152 82.7878 95.7961 82.7878 92.812C82.7878 89.8279 80.3701 87.4088 77.3876 87.4088C74.4051 87.4088 71.9873 89.8279 71.9873 92.812C71.9873 95.7961 74.4051 98.2152 77.3876 98.2152Z" fill="#FFB9B9"/>
<path d="M91.3607 114.385C91.3606 117.646 90.847 120.886 89.8389 123.987L89.4346 125.231L87.496 134.098L85.419 134.652L83.8958 132.713L80.8495 130.496L78.6341 126.894L76.7343 123.727L76.1416 122.738L74.0646 112.347L66.1719 107.913L63.541 107.498L64.0949 105.974L66.4489 102.787L68.8028 102.51L69.4951 101.956L70.049 102.233L73.1023 103.41L83.0013 99.2252L84.4497 99.4621L89.4346 103.618C90.7089 107.065 91.3611 110.71 91.3607 114.385Z" fill="#CCCCCC"/>
<path opacity="0.1" d="M89.8494 113.178L84.5877 116.642L76.7338 123.727L76.1412 122.738L74.4795 114.425H74.895L79.1875 106.528L89.8494 113.178Z" fill="black"/>
<path d="M79.1879 105.697L74.8953 113.594L72.4029 116.365L70.1875 116.919L76.1415 123.43L84.588 115.81L89.8497 112.347L79.1879 105.697Z" fill="#CCCCCC"/>
<path d="M73.1867 88.7944L72.6016 89.0197C72.5128 88.9595 72.4367 88.8824 72.3776 88.7928C72.3186 88.7032 72.2777 88.6029 72.2575 88.4975C72.2372 88.3921 72.2378 88.2837 72.2594 88.1786C72.281 88.0735 72.323 87.9736 72.3832 87.8848C72.3863 87.8801 72.3895 87.8755 72.3928 87.8709L71.3115 87.8202C72.0056 86.8953 72.8881 86.1284 73.9006 85.5702C74.9131 85.0121 76.0325 84.6754 77.1848 84.5824C78.337 84.4895 79.4959 84.6425 80.5846 85.0312C81.6734 85.4199 82.6673 86.0355 83.5005 86.8373C83.5497 86.6676 84.0863 86.9977 84.3054 87.3323C84.379 87.0563 84.8822 88.3907 85.0602 89.3339C85.1426 89.0199 85.4593 89.5269 85.1818 90.0134C85.3577 89.9877 85.4371 90.4378 85.301 90.6886C85.4933 90.5982 85.4609 91.1356 85.2523 91.4947C85.5268 91.4703 85.2289 97.1277 81.1092 96.7155C80.8224 95.3969 80.9032 95.4789 80.5655 93.7834C80.4083 93.6165 80.2361 93.4644 80.0643 93.3126L79.1347 92.4917C78.0539 91.537 77.0706 90.3588 75.6307 90.0021C74.6412 89.7569 74.0155 89.7015 74.5547 88.5859C74.0675 88.7893 73.6125 89.0918 73.1209 89.2808C73.1276 89.1249 73.1963 88.9504 73.1867 88.7944Z" fill="#2F2E41"/>
<path d="M80.0874 94.4053C80.6228 94.4053 81.0567 93.9711 81.0567 93.4354C81.0567 92.8998 80.6228 92.4656 80.0874 92.4656C79.5521 92.4656 79.1182 92.8998 79.1182 93.4354C79.1182 93.9711 79.5521 94.4053 80.0874 94.4053Z" fill="#FFB9B9"/>
<path d="M34.8876 70.5305L34.5918 74.9745L39.0333 75.2705L39.3291 70.8265L34.8876 70.5305Z" fill="#E6E6E6"/>
<path d="M32.0213 72.8903L37.4146 73.2496L37.0554 78.6459L31.6621 78.2865L32.0213 72.8903ZM37.1645 73.4686L32.2402 73.1405L31.9122 78.0675L36.8365 78.3957L37.1645 73.4686Z" fill="#CCCCCC"/>
<path d="M59.9868 57.3527L55.6348 58.2884L56.5699 62.6428L60.922 61.7072L59.9868 57.3527Z" fill="#E6E6E6"/>
<path d="M56.9321 55.2436L58.0676 60.5312L52.783 61.6673L51.6475 56.3798L56.9321 55.2436ZM57.7885 60.3507L56.7517 55.5229L51.9266 56.5603L52.9634 61.388L57.7885 60.3507Z" fill="#CCCCCC"/>
<path d="M55.4138 78.2644L52.165 81.3091L55.2081 84.5597L58.4569 81.515L55.4138 78.2644Z" fill="#E6E6E6"/>
<path d="M58.6899 77.8089L54.7449 81.5061L51.0498 77.5589L54.9948 73.8618L58.6899 77.8089ZM54.7558 81.1737L58.3577 77.798L54.9839 74.1941L51.382 77.5698L54.7558 81.1737Z" fill="#CCCCCC"/>
<path d="M223.422 46H91.7178C91.2418 46 90.7704 46.0938 90.3306 46.2761C89.8908 46.4584 89.4911 46.7255 89.1545 47.0623C88.8179 47.3991 88.5509 47.799 88.3687 48.239C88.1865 48.6791 88.0928 49.1507 88.0928 49.627V123.051C88.0928 123.527 88.1865 123.999 88.3687 124.439C88.5509 124.879 88.8179 125.279 89.1545 125.615C89.4911 125.952 89.8908 126.219 90.3306 126.402C90.7704 126.584 91.2418 126.678 91.7178 126.678H223.422C224.383 126.678 225.306 126.296 225.985 125.615C226.665 124.935 227.047 124.013 227.047 123.051V49.627C227.047 48.6651 226.665 47.7425 225.985 47.0623C225.306 46.3821 224.383 46 223.422 46Z" fill="#3F3D56"/>
<path d="M222.187 52.41H92.9531V125.351H222.187V52.41Z" fill="white"/>
<path d="M157.46 50.4207C158.192 50.4207 158.786 49.8269 158.786 49.0945C158.786 48.362 158.192 47.7683 157.46 47.7683C156.728 47.7683 156.135 48.362 156.135 49.0945C156.135 49.8269 156.728 50.4207 157.46 50.4207Z" fill="white"/>
<path d="M185.228 125.352H92.9531V52.4101L185.228 125.352Z" fill="#F2F2F2"/>
<path d="M113.174 119.893C120.035 119.893 125.597 114.328 125.597 107.464C125.597 100.6 120.035 95.0348 113.174 95.0348C106.314 95.0348 100.752 100.6 100.752 107.464C100.752 114.328 106.314 119.893 113.174 119.893Z" fill="#6E17F2"/>
<path d="M115.94 116.806C112.883 116.806 109.896 115.899 107.355 114.2C104.814 112.501 102.833 110.087 101.664 107.262C100.494 104.437 100.188 101.328 100.784 98.3288C101.38 95.3297 102.852 92.5749 105.013 90.4126C107.174 88.2504 109.928 86.7779 112.925 86.1814C115.922 85.5848 119.029 85.891 121.853 87.0612C124.676 88.2314 127.09 90.213 128.788 92.7555C130.486 95.298 131.392 98.2872 131.392 101.345C131.392 103.375 130.992 105.386 130.216 107.262C129.439 109.137 128.301 110.842 126.866 112.277C125.431 113.713 123.728 114.852 121.853 115.629C119.978 116.406 117.969 116.806 115.94 116.806ZM115.94 86.0864C112.923 86.0864 109.975 86.9813 107.467 88.6579C104.959 90.3346 103.004 92.7176 101.85 95.5058C100.696 98.2939 100.394 101.362 100.982 104.322C101.571 107.282 103.023 110.001 105.156 112.135C107.289 114.268 110.006 115.722 112.964 116.31C115.923 116.899 118.989 116.597 121.776 115.442C124.562 114.287 126.944 112.332 128.62 109.822C130.295 107.313 131.19 104.363 131.19 101.345C131.19 99.3412 130.795 97.3571 130.029 95.5058C129.263 93.6545 128.139 91.9724 126.723 90.5555C125.307 89.1386 123.626 88.0147 121.776 87.2479C119.925 86.4811 117.942 86.0864 115.94 86.0864L115.94 86.0864Z" fill="#3F3D56"/>
<path d="M192.27 90.3052H180.198V92.8291H192.27V90.3052Z" fill="#3F3D56"/>
<path d="M203.692 76.632H168.777V77.7136H203.692V76.632Z" fill="#3F3D56"/>
<path d="M203.692 80.8816H168.777V81.9633H203.692V80.8816Z" fill="#3F3D56"/>
<path d="M203.692 85.1313H168.777V86.2129H203.692V85.1313Z" fill="#3F3D56"/>
<path d="M213.043 56.7752H207.998V61.823H213.043V56.7752Z" fill="#6E17F2"/>
<path d="M215.387 64.1666H209.261V58.0372H215.387V64.1666ZM209.527 63.9001H215.12V58.3037H209.527L209.527 63.9001Z" fill="#CCCCCC"/>
<path d="M230.676 124.025H218.064V123.116C218.064 123.092 218.059 123.069 218.05 123.047C218.041 123.025 218.028 123.005 218.011 122.989C217.994 122.972 217.974 122.959 217.952 122.949C217.931 122.94 217.907 122.936 217.883 122.936H213.559C213.536 122.936 213.512 122.94 213.49 122.949C213.468 122.959 213.449 122.972 213.432 122.989C213.415 123.005 213.402 123.025 213.393 123.047C213.384 123.069 213.379 123.092 213.379 123.116V124.025H210.676V123.116C210.676 123.092 210.672 123.069 210.663 123.047C210.654 123.025 210.64 123.005 210.624 122.989C210.607 122.972 210.587 122.959 210.565 122.949C210.543 122.94 210.52 122.936 210.496 122.936H206.172C206.148 122.936 206.125 122.94 206.103 122.949C206.081 122.959 206.061 122.972 206.045 122.989C206.028 123.005 206.015 123.025 206.006 123.047C205.996 123.069 205.992 123.092 205.992 123.116V124.025H203.289V123.116C203.289 123.092 203.284 123.069 203.275 123.047C203.266 123.025 203.253 123.005 203.236 122.989C203.22 122.972 203.2 122.959 203.178 122.949C203.156 122.94 203.133 122.936 203.109 122.936H198.785C198.761 122.936 198.738 122.94 198.716 122.949C198.694 122.959 198.674 122.972 198.657 122.989C198.641 123.005 198.627 123.025 198.618 123.047C198.609 123.069 198.605 123.092 198.605 123.116V124.025H195.902V123.116C195.902 123.092 195.897 123.069 195.888 123.047C195.879 123.025 195.866 123.005 195.849 122.989C195.832 122.972 195.812 122.959 195.791 122.949C195.769 122.94 195.745 122.936 195.722 122.936H191.397C191.374 122.936 191.35 122.94 191.328 122.949C191.307 122.959 191.287 122.972 191.27 122.989C191.253 123.005 191.24 123.025 191.231 123.047C191.222 123.069 191.217 123.092 191.217 123.116V124.025H188.515V123.116C188.515 123.092 188.51 123.069 188.501 123.047C188.492 123.025 188.479 123.005 188.462 122.989C188.445 122.972 188.425 122.959 188.403 122.949C188.382 122.94 188.358 122.936 188.334 122.936H184.01C183.987 122.936 183.963 122.94 183.941 122.949C183.919 122.959 183.899 122.972 183.883 122.989C183.866 123.005 183.853 123.025 183.844 123.047C183.835 123.069 183.83 123.092 183.83 123.116V124.025H181.127V123.116C181.127 123.092 181.123 123.069 181.114 123.047C181.105 123.025 181.091 123.005 181.075 122.989C181.058 122.972 181.038 122.959 181.016 122.949C180.994 122.94 180.971 122.936 180.947 122.936H176.623C176.599 122.936 176.576 122.94 176.554 122.949C176.532 122.959 176.512 122.972 176.495 122.989C176.479 123.005 176.465 123.025 176.456 123.047C176.447 123.069 176.443 123.092 176.443 123.116V124.025H173.74V123.116C173.74 123.092 173.735 123.069 173.726 123.047C173.717 123.025 173.704 123.005 173.687 122.989C173.671 122.972 173.651 122.959 173.629 122.949C173.607 122.94 173.584 122.936 173.56 122.936H139.687C139.663 122.936 139.639 122.94 139.618 122.949C139.596 122.959 139.576 122.972 139.559 122.989C139.542 123.005 139.529 123.025 139.52 123.047C139.511 123.069 139.506 123.092 139.506 123.116V124.025H136.804V123.116C136.804 123.092 136.799 123.069 136.79 123.047C136.781 123.025 136.768 123.005 136.751 122.989C136.734 122.972 136.714 122.959 136.692 122.949C136.671 122.94 136.647 122.936 136.624 122.936H132.299C132.276 122.936 132.252 122.94 132.23 122.949C132.208 122.959 132.189 122.972 132.172 122.989C132.155 123.005 132.142 123.025 132.133 123.047C132.124 123.069 132.119 123.092 132.119 123.116V124.025H129.416V123.116C129.416 123.092 129.412 123.069 129.403 123.047C129.394 123.025 129.38 123.005 129.364 122.989C129.347 122.972 129.327 122.959 129.305 122.949C129.283 122.94 129.26 122.936 129.236 122.936H124.912C124.888 122.936 124.865 122.94 124.843 122.949C124.821 122.959 124.801 122.972 124.785 122.989C124.768 123.005 124.755 123.025 124.746 123.047C124.736 123.069 124.732 123.092 124.732 123.116V124.025H122.029V123.116C122.029 123.092 122.024 123.069 122.015 123.047C122.006 123.025 121.993 123.005 121.976 122.989C121.96 122.972 121.94 122.959 121.918 122.949C121.896 122.94 121.873 122.936 121.849 122.936H117.525C117.501 122.936 117.478 122.94 117.456 122.949C117.434 122.959 117.414 122.972 117.397 122.989C117.381 123.005 117.367 123.025 117.358 123.047C117.349 123.069 117.345 123.092 117.345 123.116V124.025H114.642V123.116C114.642 123.092 114.637 123.069 114.628 123.047C114.619 123.025 114.606 123.005 114.589 122.989C114.572 122.972 114.553 122.959 114.531 122.949C114.509 122.94 114.485 122.936 114.462 122.936H110.137C110.114 122.936 110.09 122.94 110.069 122.949C110.047 122.959 110.027 122.972 110.01 122.989C109.993 123.005 109.98 123.025 109.971 123.047C109.962 123.069 109.957 123.092 109.957 123.116V124.025H107.255V123.116C107.255 123.092 107.25 123.069 107.241 123.047C107.232 123.025 107.219 123.005 107.202 122.989C107.185 122.972 107.165 122.959 107.143 122.949C107.122 122.94 107.098 122.936 107.074 122.936H102.75C102.702 122.936 102.657 122.955 102.623 122.989C102.589 123.022 102.57 123.068 102.57 123.116V124.025H99.8673V123.116C99.8673 123.092 99.8627 123.069 99.8536 123.047C99.8446 123.025 99.8313 123.005 99.8146 122.989C99.7978 122.972 99.778 122.959 99.7561 122.949C99.7343 122.94 99.7108 122.936 99.6872 122.936H95.3629C95.3151 122.936 95.2693 122.955 95.2355 122.989C95.2017 123.022 95.1827 123.068 95.1827 123.116V124.025H86.8946C85.7477 124.025 84.6478 124.481 83.8369 125.293C83.0259 126.104 82.5703 127.204 82.5703 128.352V130.308C82.5703 131.456 83.0259 132.556 83.8369 133.368C84.6478 134.179 85.7477 134.635 86.8946 134.635H230.676C231.823 134.635 232.923 134.179 233.734 133.368C234.545 132.556 235 131.456 235 130.308V128.352C235 127.784 234.888 127.221 234.671 126.696C234.454 126.171 234.135 125.694 233.734 125.293C233.332 124.891 232.856 124.572 232.331 124.355C231.806 124.137 231.244 124.025 230.676 124.025Z" fill="#3F3D56"/>
</g>
<defs>
<clipPath id="clip0">
<rect width="210" height="90" fill="white" transform="translate(25 46)"/>
</clipPath>
</defs>
</svg>
