<svg width="22" height="22" viewBox="0 0 22 22" fill="none" xmlns="http://www.w3.org/2000/svg">
<path d="M10.535 2.55664H7.10757C4.28882 2.55664 2.52148 4.55222 2.52148 7.37739V14.9986C2.52148 17.8237 4.28057 19.8193 7.10757 19.8193H15.1962C18.0242 19.8193 19.7832 17.8237 19.7832 14.9986V11.3062" stroke="#02014A" stroke-width="1.5" stroke-linecap="round" stroke-linejoin="round"/>
<path fill-rule="evenodd" clip-rule="evenodd" d="M8.09208 10.0109L14.9423 3.16062C15.7957 2.30812 17.179 2.30812 18.0324 3.16062L19.148 4.2762C20.0014 5.12962 20.0014 6.51378 19.148 7.36628L12.2647 14.2495C11.8917 14.6226 11.3857 14.8325 10.8577 14.8325H7.42383L7.50999 11.3675C7.52283 10.8579 7.73091 10.372 8.09208 10.0109Z" stroke="#02014A" stroke-width="1.5" stroke-linecap="round" stroke-linejoin="round"/>
<path d="M13.9014 4.21899L18.0869 8.40449" stroke="#02014A" stroke-width="1.5" stroke-linecap="round" stroke-linejoin="round"/>
</svg>
