<svg width="16" height="16" viewBox="0 0 16 16" fill="none" xmlns="http://www.w3.org/2000/svg">
<g clip-path="url(#clip0)">
<path d="M10.8357 5.16405C10.1161 4.44448 9.10021 3.97887 7.99968 3.97887C6.89915 3.97887 5.88328 4.42331 5.1637 5.16405C4.44412 5.88363 3.97852 6.8995 3.97852 8.00003C3.97852 9.10056 4.44412 10.1164 5.1637 10.836C5.88328 11.5556 6.89915 12.0212 7.99968 12.0212C9.10021 12.0212 10.1161 11.5768 10.8357 10.836C11.5552 10.1164 12.0208 9.10056 12.0208 8.00003C12.0208 6.8995 11.5764 5.88363 10.8357 5.16405ZM10.0738 10.0741C9.54465 10.6032 8.80391 10.9207 7.99968 10.9207C7.19545 10.9207 6.45471 10.6032 5.92561 10.0741C5.39651 9.545 5.07905 8.80426 5.07905 8.00003C5.07905 7.1958 5.39651 6.45506 5.92561 5.92596C6.45471 5.39686 7.19545 5.0794 7.99968 5.0794C8.80391 5.0794 9.54465 5.39686 10.0738 5.92596C10.6029 6.45506 10.9203 7.1958 10.9203 8.00003C10.9203 8.80426 10.6029 9.545 10.0738 10.0741Z" fill="#02014A"/>
<path d="M15.4494 7.44972H13.8198C13.5235 7.44972 13.2695 7.70369 13.2695 7.99999C13.2695 8.29628 13.5235 8.55025 13.8198 8.55025H15.4494C15.7457 8.55025 15.9997 8.29628 15.9997 7.99999C15.9997 7.70369 15.7457 7.44972 15.4494 7.44972Z" fill="#02014A"/>
<path d="M8.00046 13.2698C7.70416 13.2698 7.4502 13.5238 7.4502 13.8201V15.4497C7.4502 15.746 7.70416 16 8.00046 16C8.29676 16 8.55073 15.746 8.55073 15.4497V13.8201C8.55073 13.5238 8.29676 13.2698 8.00046 13.2698Z" fill="#02014A"/>
<path d="M13.6511 12.8888L12.487 11.7248C12.2966 11.5132 11.9368 11.5132 11.7251 11.7248C11.5135 11.9364 11.5135 12.2751 11.7251 12.4867L12.8892 13.6507C13.1008 13.8624 13.4394 13.8624 13.6511 13.6507C13.8627 13.4391 13.8627 13.1005 13.6511 12.8888Z" fill="#02014A"/>
<path d="M8.00046 0C7.70416 0 7.4502 0.253968 7.4502 0.550264V2.17989C7.4502 2.47619 7.70416 2.73016 8.00046 2.73016C8.29676 2.73016 8.55073 2.47619 8.55073 2.17989V0.550264C8.55073 0.253968 8.29676 0 8.00046 0Z" fill="#02014A"/>
<path d="M13.6716 2.34926C13.4599 2.13762 13.1213 2.13762 12.9097 2.34926L11.7456 3.51328C11.534 3.72492 11.534 4.06355 11.7456 4.27519C11.9361 4.48683 12.2959 4.48683 12.5075 4.27519L13.6716 3.11116C13.8832 2.89952 13.8832 2.5609 13.6716 2.34926Z" fill="#02014A"/>
<path d="M2.17989 7.44972H0.550264C0.253968 7.44972 0 7.70369 0 7.99999C0 8.29628 0.232804 8.55025 0.550264 8.55025H2.17989C2.47619 8.55025 2.73016 8.29628 2.73016 7.99999C2.73016 7.70369 2.47619 7.44972 2.17989 7.44972Z" fill="#02014A"/>
<path d="M4.2536 11.7248C4.06313 11.5132 3.70334 11.5132 3.4917 11.7248L2.32768 12.8888C2.11604 13.1005 2.11604 13.4391 2.32768 13.6507C2.53932 13.8624 2.87794 13.8624 3.08958 13.6507L4.2536 12.4867C4.46524 12.2751 4.46524 11.9364 4.2536 11.7248Z" fill="#02014A"/>
<path d="M4.2536 3.51328L3.08958 2.34926C2.87794 2.13762 2.53932 2.13762 2.32768 2.34926C2.11604 2.5609 2.11604 2.89952 2.32768 3.11116L3.4917 4.27519C3.70334 4.48683 4.04196 4.48683 4.2536 4.27519C4.46524 4.06355 4.46524 3.72492 4.2536 3.51328Z" fill="#02014A"/>
</g>
<defs>
<clipPath id="clip0">
<rect width="16" height="16" fill="white"/>
</clipPath>
</defs>
</svg>
