<svg width="352" height="218" viewBox="0 0 352 218" fill="none" xmlns="http://www.w3.org/2000/svg">
<g clip-path="url(#clip0)">
<path d="M24.428 201.943C26.0333 202.507 27.7568 202.649 29.4325 202.354C31.1083 202.058 32.6797 201.336 33.9956 200.257C37.3466 197.444 38.3985 192.81 39.2521 188.518L41.7806 175.825L36.487 179.471C32.6799 182.093 28.7874 184.799 26.1513 188.596C23.5152 192.394 22.3647 197.578 24.4825 201.687" fill="#E6E6E6"/>
<path d="M24.8796 217.311C24.3438 213.407 23.7928 209.454 24.1686 205.508C24.5025 202.005 25.571 198.582 27.7472 195.776C28.9022 194.289 30.3077 193.016 31.9004 192.012C32.3158 191.75 32.6977 192.408 32.2845 192.669C29.5288 194.411 27.3973 196.983 26.1974 200.015C24.8722 203.386 24.6595 207.061 24.8896 210.642C25.0278 212.808 25.3203 214.959 25.6155 217.108C25.6392 217.205 25.6249 217.308 25.5755 217.395C25.5261 217.482 25.4452 217.547 25.3495 217.576C25.2522 217.603 25.1484 217.589 25.0608 217.54C24.9731 217.49 24.9086 217.407 24.8813 217.31L24.8796 217.311Z" fill="#F2F2F2"/>
<path d="M131.044 133.21C130.655 133.395 130.231 133.494 129.801 133.502L89.8658 134.599C88.2037 134.635 86.5952 134.009 85.3944 132.859C84.1935 131.709 83.4986 130.129 83.4624 128.467C83.4263 126.804 84.0519 125.195 85.2017 123.994C86.3515 122.793 87.9312 122.098 89.5933 122.062L129.529 120.966C130.337 120.949 131.12 121.254 131.704 121.814C132.289 122.373 132.627 123.142 132.646 123.951L132.786 130.385C132.798 130.973 132.64 131.553 132.331 132.054C132.022 132.555 131.575 132.956 131.044 133.21Z" fill="#6E17F2"/>
<path d="M79.8022 217.392H73.368C72.5589 217.391 71.7833 217.069 71.2112 216.497C70.6391 215.925 70.3173 215.149 70.3164 214.34V160.704C70.3173 159.895 70.6391 159.119 71.2112 158.547C71.7833 157.975 72.5589 157.653 73.368 157.652H79.8022C80.6113 157.653 81.3869 157.975 81.959 158.547C82.5311 159.119 82.8529 159.895 82.8538 160.704V214.34C82.8529 215.149 82.5311 215.925 81.959 216.497C81.3869 217.069 80.6113 217.391 79.8022 217.392Z" fill="#6E17F2"/>
<path d="M96.8883 217.392H90.4539C89.6449 217.391 88.8692 217.069 88.2971 216.497C87.725 215.925 87.4033 215.149 87.4023 214.34V160.704C87.4032 159.895 87.725 159.119 88.2971 158.547C88.8692 157.975 89.6449 157.653 90.4539 157.652H96.8883C97.6973 157.653 98.473 157.975 99.0451 158.547C99.6171 159.119 99.9389 159.895 99.9398 160.704V214.34C99.9389 215.149 99.6171 215.925 99.0451 216.497C98.473 217.069 97.6973 217.391 96.8883 217.392Z" fill="#6E17F2"/>
<path d="M85.7563 101.895C98.0352 101.895 107.989 91.9393 107.989 79.6583C107.989 67.3773 98.0352 57.4216 85.7563 57.4216C73.4774 57.4216 63.5234 67.3773 63.5234 79.6583C63.5234 91.9393 73.4774 101.895 85.7563 101.895Z" fill="#6E17F2"/>
<path d="M93.3028 176.671H77.3085C73.9847 176.684 70.7166 175.818 67.835 174.161C64.9534 172.505 62.5606 170.116 60.8987 167.237C59.2368 164.358 58.3649 161.091 58.3711 157.766C58.3774 154.442 59.2617 151.178 60.9344 148.306L83.3021 109.557C83.5508 109.126 83.9085 108.769 84.3393 108.52C84.7701 108.271 85.2587 108.14 85.7561 108.14C86.2535 108.14 86.7421 108.271 87.1729 108.52C87.6037 108.769 87.9614 109.126 88.2101 109.557L110.127 147.526C111.832 150.479 112.73 153.83 112.73 157.241C112.73 160.652 111.832 164.002 110.127 166.956C108.422 169.91 105.97 172.363 103.016 174.068C100.063 175.773 96.713 176.671 93.3028 176.671Z" fill="#02014A"/>
<path d="M91.0047 88.9931C92.4459 88.9531 94.2395 88.9031 95.6213 87.8935C96.0328 87.5806 96.3708 87.1814 96.6118 86.724C96.8528 86.2666 96.9909 85.7621 97.0164 85.2457C97.0413 84.8787 96.9811 84.5109 96.8405 84.1711C96.6998 83.8312 96.4824 83.5285 96.2053 83.2866C95.4836 82.6767 94.4298 82.5336 93.294 82.8674L94.4707 74.2668L93.607 74.1484L92.2236 84.2596L92.945 83.9285C93.7812 83.5449 94.9292 83.3496 95.6425 83.9526C95.8177 84.1102 95.9542 84.3061 96.0413 84.5251C96.1285 84.744 96.164 84.9801 96.1451 85.2151C96.1239 85.5994 96.0203 85.9746 95.8411 86.3153C95.662 86.656 95.4116 86.954 95.107 87.1892C94.0317 87.9748 92.602 88.0762 90.9805 88.1215L91.0047 88.9931Z" fill="#2F2E41"/>
<path d="M103.436 75.0083H98.7402V75.8803H103.436V75.0083Z" fill="#2F2E41"/>
<path d="M88.6157 75.0083H83.9199V75.8803H88.6157V75.0083Z" fill="#2F2E41"/>
<path d="M80.5267 171.698C80.3419 171.309 80.2422 170.885 80.2343 170.455L79.1382 130.513C79.1021 128.851 79.7277 127.242 80.8775 126.041C82.0272 124.84 83.607 124.145 85.2691 124.109C86.9313 124.073 88.5397 124.698 89.7406 125.848C90.9414 126.998 91.6364 128.578 91.6725 130.241L92.7684 170.183C92.7851 170.992 92.4803 171.774 91.9208 172.359C91.3614 172.943 90.5929 173.282 89.7841 173.3L83.3514 173.44C82.7629 173.452 82.1833 173.295 81.6823 172.986C81.1812 172.677 80.78 172.229 80.5267 171.698Z" fill="#6E17F2"/>
<path d="M83.693 63.2208C86.3942 66.754 90.6824 69.1242 95.2146 68.563C99.5305 68.0286 103.091 65.0199 103.984 60.7123C104.374 58.6758 104.269 56.5753 103.678 54.588C103.086 52.6006 102.026 50.7846 100.585 49.2929C97.5307 46.0794 93.1587 44.3507 88.8312 43.7579C80.6336 42.635 72.2145 45.5231 66.0163 50.9095C62.9036 53.5874 60.4191 56.9183 58.7394 60.6654C57.1213 64.3848 56.3507 68.4176 56.4834 72.4716C56.7216 80.4834 60.2303 88.4798 66.2845 93.7931C67.0364 94.4509 67.8234 95.0674 68.6421 95.6399C69.3325 96.1244 69.9868 94.9909 69.3021 94.5105C63.1022 90.1604 59.1475 83.0821 58.0622 75.6448C57.4937 71.8975 57.7472 68.0714 58.8051 64.4318C59.8629 60.7923 61.6998 57.4265 64.1883 54.5681C69.1947 48.8746 76.5353 45.174 84.1381 44.8425C91.7884 44.5088 101.349 47.9248 102.78 56.4423C103.422 60.26 101.995 64.2728 98.4973 66.1841C94.7524 68.2304 90.1603 67.3883 86.942 64.7455C86.154 64.1009 85.4427 63.3678 84.8222 62.5606C84.3179 61.9009 83.1814 62.5517 83.693 63.2208H83.693Z" fill="#2F2E41"/>
<path d="M308.667 5.16076L120.035 32.4148L132.965 121.939L321.598 94.6854L308.667 5.16076Z" fill="#F1F1F1"/>
<path d="M304.384 13.6168L126.539 39.3123L137.327 114.005L315.172 88.31L304.384 13.6168Z" fill="white"/>
<path d="M307.841 -0.000131629L119.209 27.2539L120.367 35.2689L308.999 8.01491L307.841 -0.000131629Z" fill="#E5E5E5"/>
<path d="M125.844 32.6077C126.673 32.6077 127.345 31.9357 127.345 31.1067C127.345 30.2777 126.673 29.6057 125.844 29.6057C125.016 29.6057 124.344 30.2777 124.344 31.1067C124.344 31.9357 125.016 32.6077 125.844 32.6077Z" fill="white"/>
<path d="M131.483 31.7932C132.312 31.7932 132.984 31.1212 132.984 30.2922C132.984 29.4633 132.312 28.7913 131.483 28.7913C130.654 28.7913 129.982 29.4633 129.982 30.2922C129.982 31.1212 130.654 31.7932 131.483 31.7932Z" fill="white"/>
<path d="M137.12 30.9785C137.949 30.9785 138.621 30.3065 138.621 29.4775C138.621 28.6486 137.949 27.9766 137.12 27.9766C136.291 27.9766 135.619 28.6486 135.619 29.4775C135.619 30.3065 136.291 30.9785 137.12 30.9785Z" fill="white"/>
<path d="M352 43.6812H161.41V134.135H352V43.6812Z" fill="#E6E6E6"/>
<path d="M346.55 51.4377H166.859V126.906H346.55V51.4377Z" fill="white"/>
<path d="M351.918 38.4553H161.328V46.5536H351.918V38.4553Z" fill="#CBCBCB"/>
<path d="M167.344 44.718C168.173 44.718 168.845 44.046 168.845 43.217C168.845 42.3881 168.173 41.7161 167.344 41.7161C166.516 41.7161 165.844 42.3881 165.844 43.217C165.844 44.046 166.516 44.718 167.344 44.718Z" fill="white"/>
<path d="M173.042 44.718C173.871 44.718 174.542 44.046 174.542 43.217C174.542 42.3881 173.871 41.7161 173.042 41.7161C172.213 41.7161 171.541 42.3881 171.541 43.217C171.541 44.046 172.213 44.718 173.042 44.718Z" fill="white"/>
<path d="M178.739 44.718C179.568 44.718 180.24 44.046 180.24 43.217C180.24 42.3881 179.568 41.7161 178.739 41.7161C177.91 41.7161 177.238 42.3881 177.238 43.217C177.238 44.046 177.91 44.718 178.739 44.718Z" fill="white"/>
<path d="M295.71 62.9119H270.402V64.8143H295.71V62.9119Z" fill="#E6E6E6"/>
<path d="M309.482 68.4968H270.402V70.3993H309.482V68.4968Z" fill="#E6E6E6"/>
<path d="M302.658 73.8159H270.809V75.7184H302.658V73.8159Z" fill="#E6E6E6"/>
<path d="M288.995 79.6521H270.402V81.5546H288.995V79.6521Z" fill="#E6E6E6"/>
<path d="M298.464 85.3525H270.402V87.255H298.464V85.3525Z" fill="#E6E6E6"/>
<path d="M261.966 62.3132H258.867V65.4126H261.966V62.3132Z" fill="#E6E6E6"/>
<path d="M261.966 67.8984H258.867V70.9978H261.966V67.8984Z" fill="#E6E6E6"/>
<path d="M261.966 73.2175H258.867V76.3169H261.966V73.2175Z" fill="#E6E6E6"/>
<path d="M261.966 79.0535H258.867V82.1528H261.966V79.0535Z" fill="#E6E6E6"/>
<path d="M261.966 84.7542H258.867V87.8535H261.966V84.7542Z" fill="#E6E6E6"/>
<path d="M295.71 91.0889H270.402V92.9913H295.71V91.0889Z" fill="#E6E6E6"/>
<path d="M309.482 96.6741H270.402V98.5765H309.482V96.6741Z" fill="#E6E6E6"/>
<path d="M302.658 101.993H270.809V103.896H302.658V101.993Z" fill="#E6E6E6"/>
<path d="M288.995 107.829H270.402V109.732H288.995V107.829Z" fill="#E6E6E6"/>
<path d="M298.464 113.53H270.402V115.432H298.464V113.53Z" fill="#E6E6E6"/>
<path d="M261.966 90.4905H258.867V93.5898H261.966V90.4905Z" fill="#E6E6E6"/>
<path d="M261.966 96.0754H258.867V99.1748H261.966V96.0754Z" fill="#E6E6E6"/>
<path d="M261.966 101.395H258.867V104.494H261.966V101.395Z" fill="#E6E6E6"/>
<path d="M261.966 107.231H258.867V110.33H261.966V107.231Z" fill="#E6E6E6"/>
<path d="M261.966 112.931H258.867V116.031H261.966V112.931Z" fill="#E6E6E6"/>
<path d="M215.651 106.012H190.344V107.914H215.651V106.012Z" fill="#E6E6E6"/>
<path d="M218.806 110.956H186.957V112.858H218.806V110.956Z" fill="#E6E6E6"/>
<path d="M219.447 82.0131C219.446 84.8724 218.703 87.6826 217.292 90.1692C215.88 92.6558 213.848 94.7338 211.394 96.2002C208.94 97.6666 206.147 98.4714 203.289 98.5359C200.431 98.6003 197.605 97.9223 195.087 96.5681L195.084 96.5648C192.512 95.1791 190.354 93.1361 188.828 90.6442C187.303 88.1523 186.465 85.3005 186.401 82.3794C186.336 79.4582 187.047 76.5722 188.461 74.0153C189.874 71.4584 191.941 69.322 194.449 67.8239C196.957 66.3258 199.817 65.5195 202.738 65.4871C205.66 65.4547 208.537 66.1974 211.078 67.6396C213.619 69.0817 215.732 71.1718 217.202 73.6967C218.672 76.2216 219.447 79.0912 219.447 82.0131V82.0131Z" fill="#E6E6E6"/>
<path d="M203.006 81.2109C205.487 81.2109 207.498 79.1994 207.498 76.7181C207.498 74.2368 205.487 72.2253 203.006 72.2253C200.525 72.2253 198.514 74.2368 198.514 76.7181C198.514 79.1994 200.525 81.2109 203.006 81.2109Z" fill="white"/>
<path d="M210.677 90.494C205.655 92.257 200.179 92.2358 195.171 90.434L195.168 90.4318L198.514 83.8247H207.498L210.677 90.494Z" fill="white"/>
<path d="M153.272 123.037C145.442 123.037 139.072 116.269 139.072 107.95C139.072 99.6316 145.442 92.864 153.272 92.864C161.101 92.864 167.471 99.6316 167.471 107.95C167.471 116.269 161.101 123.037 153.272 123.037ZM153.272 96.6759C147.544 96.6759 142.884 101.733 142.884 107.95C142.884 114.167 147.544 119.225 153.272 119.225C159 119.225 163.66 114.167 163.66 107.95C163.66 101.733 159 96.6759 153.272 96.6759Z" fill="#6E17F2"/>
<path d="M166.718 149.328H139.826C137.454 149.325 135.181 148.382 133.504 146.705C131.827 145.028 130.884 142.754 130.881 140.382V113.999C130.883 112.375 131.528 110.818 132.676 109.67C133.825 108.521 135.381 107.875 137.005 107.874H169.539C171.163 107.875 172.719 108.521 173.867 109.67C175.015 110.818 175.661 112.375 175.663 113.999V140.382C175.66 142.754 174.717 145.028 173.04 146.705C171.363 148.382 169.09 149.325 166.718 149.328Z" fill="#3F3D56"/>
<path d="M158.512 122.883C158.513 121.951 158.265 121.036 157.795 120.232C157.324 119.428 156.648 118.763 155.836 118.308C155.023 117.852 154.104 117.621 153.173 117.638C152.241 117.656 151.331 117.922 150.537 118.408C149.742 118.894 149.091 119.584 148.652 120.405C148.212 121.226 147.999 122.15 148.035 123.081C148.071 124.012 148.355 124.917 148.856 125.702C149.358 126.487 150.06 127.124 150.89 127.547V135.748H155.654V127.547C156.514 127.109 157.236 126.441 157.74 125.618C158.245 124.795 158.512 123.848 158.512 122.883Z" fill="white"/>
<path d="M166.529 218H0.435939C0.320321 218 0.209438 217.954 0.127683 217.872C0.0459288 217.79 0 217.68 0 217.564C0 217.448 0.0459288 217.337 0.127683 217.256C0.209438 217.174 0.320321 217.128 0.435939 217.128H166.529C166.644 217.128 166.755 217.174 166.837 217.256C166.919 217.337 166.965 217.448 166.965 217.564C166.965 217.68 166.919 217.79 166.837 217.872C166.755 217.954 166.644 218 166.529 218Z" fill="#3F3D56"/>
</g>
<defs>
<clipPath id="clip0">
<rect width="352" height="218" fill="white"/>
</clipPath>
</defs>
</svg>
