<svg width="40" height="41" viewBox="0 0 40 41" fill="none" xmlns="http://www.w3.org/2000/svg">
<path d="M20 8.83264C13.3726 8.83264 8 14.2053 8 20.8326C8 27.46 13.3726 32.8326 20 32.8326C26.6274 32.8326 32 27.46 32 20.8326C32 14.2053 26.6274 8.83264 20 8.83264ZM25.2038 22.4188C25.2982 22.5356 25.5228 22.7631 25.8781 23.1019H25.8864L25.8946 23.1099L25.9029 23.1184L25.9197 23.135C26.7023 23.8621 27.2323 24.4756 27.51 24.9752C27.5268 25.0027 27.5448 25.0377 27.5642 25.0793C27.5835 25.1209 27.6029 25.1944 27.6224 25.2998C27.6416 25.4056 27.6402 25.4996 27.6183 25.5828C27.5961 25.6658 27.5268 25.7427 27.4102 25.8118C27.2936 25.8814 27.1299 25.9159 26.9189 25.9159L24.7874 25.9495C24.6543 25.9773 24.4988 25.9634 24.3211 25.9079C24.1433 25.8522 23.9992 25.7911 23.8882 25.7247L23.7215 25.6244C23.5548 25.5079 23.3606 25.3302 23.1387 25.0917C22.9165 24.853 22.7265 24.6379 22.5683 24.4464C22.4101 24.2549 22.2408 24.0942 22.0602 23.9633C21.8796 23.8329 21.7229 23.7898 21.5898 23.8343C21.5732 23.8402 21.5509 23.8499 21.5231 23.8635C21.4951 23.8774 21.4482 23.9173 21.3815 23.9842C21.3148 24.0509 21.2552 24.1329 21.2024 24.2298C21.1496 24.3271 21.1024 24.4714 21.0608 24.6629C21.0191 24.8542 21.0009 25.0696 21.0067 25.3083C21.0067 25.3913 20.9968 25.4679 20.9775 25.5373C20.9581 25.6067 20.9371 25.658 20.915 25.6911L20.8817 25.7327C20.7816 25.8386 20.6347 25.8994 20.4405 25.9159H19.4829C19.0887 25.9383 18.6835 25.8926 18.2674 25.7787C17.8512 25.6646 17.486 25.5178 17.1725 25.3373C16.8586 25.1572 16.5729 24.9739 16.315 24.788C16.0568 24.6019 15.8611 24.4425 15.728 24.3094L15.52 24.1093C15.4645 24.0541 15.3881 23.9706 15.291 23.8594C15.1939 23.7484 14.9955 23.4961 14.6957 23.1019C14.3959 22.7076 14.1017 22.2888 13.8131 21.8445C13.5245 21.4004 13.1845 20.8146 12.793 20.0875C12.4017 19.3606 12.0396 18.6058 11.7064 17.8229C11.6731 17.7343 11.6563 17.6594 11.6563 17.5983C11.6563 17.5375 11.6646 17.4929 11.6814 17.4649L11.7147 17.4151C11.7979 17.3094 11.9561 17.2566 12.1892 17.2566L14.4706 17.2401C14.5373 17.2513 14.6011 17.2693 14.6622 17.2944C14.7232 17.3192 14.7678 17.3428 14.7955 17.3649L14.8371 17.39C14.9259 17.4513 14.9924 17.5399 15.0369 17.6565C15.1479 17.9344 15.2756 18.2215 15.4199 18.5184C15.5642 18.8153 15.6781 19.0416 15.7614 19.1969L15.8945 19.4385C16.0553 19.7714 16.2108 20.0603 16.3607 20.3043C16.5109 20.5487 16.6452 20.739 16.7647 20.8747C16.8839 21.0108 16.999 21.1178 17.1102 21.1952C17.2212 21.2731 17.3156 21.312 17.3935 21.312C17.4711 21.312 17.5461 21.2982 17.6183 21.2704C17.6293 21.2648 17.6432 21.251 17.66 21.2288C17.6768 21.2067 17.7098 21.1456 17.76 21.0453C17.8099 20.9456 17.8473 20.8151 17.8724 20.654C17.8975 20.4934 17.9238 20.2686 17.9515 19.9799C17.9792 19.6911 17.9792 19.3443 17.9515 18.9391C17.9403 18.717 17.9152 18.5145 17.8765 18.3313C17.8376 18.1483 17.7987 18.0205 17.76 17.9482L17.7098 17.8485C17.5711 17.6599 17.3353 17.5404 17.0022 17.4903C16.9299 17.4795 16.9438 17.4129 17.0438 17.2907C17.1382 17.1851 17.2436 17.1021 17.3602 17.0408C17.6544 16.8967 18.3177 16.83 19.3503 16.8408C19.8053 16.8466 20.1801 16.8824 20.4743 16.949C20.5853 16.977 20.6782 17.0143 20.7532 17.0615C20.8281 17.1084 20.8851 17.1754 20.924 17.261C20.9627 17.3472 20.9919 17.436 21.0114 17.5275C21.0308 17.6192 21.0406 17.7458 21.0406 17.9064C21.0406 18.0675 21.0379 18.2203 21.0323 18.3644C21.0267 18.5087 21.0199 18.7046 21.0116 18.9513C21.0033 19.1983 20.9989 19.4275 20.9989 19.6383C20.9989 19.6996 20.9963 19.8159 20.9907 19.988C20.9851 20.1603 20.9834 20.2934 20.9865 20.3876C20.9892 20.482 20.9989 20.5946 21.0155 20.7248C21.0323 20.8553 21.0642 20.9638 21.1114 21.0495C21.1583 21.1356 21.2209 21.2035 21.2988 21.2534C21.343 21.2648 21.3903 21.2758 21.4404 21.287C21.4903 21.2979 21.5623 21.2677 21.6567 21.1952C21.7509 21.1232 21.8565 21.0273 21.9731 20.9081C22.0896 20.7891 22.2339 20.6032 22.406 20.3503C22.5778 20.0982 22.7666 19.7996 22.972 19.4553C23.3052 18.8781 23.602 18.2534 23.8629 17.5817C23.8851 17.526 23.9128 17.4776 23.9461 17.436C23.9795 17.3941 24.0099 17.3649 24.0376 17.3484L24.071 17.3233C24.0819 17.3177 24.0958 17.3109 24.1126 17.3026C24.1294 17.2946 24.1654 17.2861 24.2209 17.2776C24.2764 17.2695 24.3318 17.2681 24.3876 17.2737L26.7855 17.2566C27.0019 17.2291 27.1795 17.236 27.3182 17.2773C27.4569 17.3189 27.5431 17.3649 27.5764 17.4148L27.6265 17.498C27.7541 17.8536 27.3379 18.669 26.3777 19.9459C26.2443 20.1238 26.0638 20.3598 25.8365 20.6538C25.4036 21.2091 25.1539 21.5727 25.0877 21.7452C24.9928 21.9722 25.0317 22.1971 25.2038 22.4188Z" fill="#02014A"/>
</svg>
