<svg width="50" height="51" viewBox="0 0 50 51" fill="none" xmlns="http://www.w3.org/2000/svg">
<g clip-path="url(#clip0)">
<path d="M20.0005 0.767334C8.9549 0.767334 0.000488281 9.72175 0.000488281 20.7673C0.000488281 31.8129 8.9549 40.7673 20.0005 40.7673C31.0461 40.7673 40.0005 31.8129 40.0005 20.7673C40.0005 9.72175 31.0461 0.767334 20.0005 0.767334ZM28.6734 23.4109C28.8308 23.6056 29.2051 23.9848 29.7973 24.5494H29.8111L29.8249 24.5628L29.8387 24.577L29.8666 24.6045C31.171 25.8164 32.0543 26.8389 32.5171 27.6715C32.5451 27.7174 32.5751 27.7758 32.6076 27.8451C32.6396 27.9145 32.6721 28.037 32.7045 28.2126C32.7365 28.389 32.7341 28.5456 32.6976 28.6843C32.6607 28.8226 32.5451 28.9507 32.3508 29.0659C32.1566 29.1819 31.8836 29.2395 31.532 29.2395L27.9795 29.2955C27.7576 29.3417 27.4985 29.3186 27.2024 29.2261C26.9059 29.1332 26.6658 29.0314 26.4809 28.9207L26.203 28.7536C25.9252 28.5594 25.6016 28.2633 25.2317 27.8658C24.8614 27.4679 24.5446 27.1094 24.281 26.7902C24.0174 26.471 23.7351 26.2033 23.4341 25.9851C23.1332 25.7677 22.872 25.696 22.6501 25.7702C22.6226 25.7799 22.5853 25.7961 22.539 25.8188C22.4924 25.842 22.4141 25.9085 22.303 26.02C22.1918 26.1311 22.0925 26.2678 22.0045 26.4292C21.9165 26.5915 21.8378 26.832 21.7684 27.1512C21.6991 27.47 21.6686 27.8289 21.6784 28.2268C21.6784 28.3651 21.6617 28.4928 21.6297 28.6084C21.5973 28.724 21.5624 28.8096 21.5255 28.8648L21.4699 28.9341C21.3032 29.1105 21.0582 29.2119 20.7346 29.2395H19.1386C18.4816 29.2768 17.8063 29.2006 17.1128 29.0108C16.4192 28.8205 15.8104 28.576 15.288 28.275C14.7648 27.9749 14.2887 27.6695 13.8588 27.3596C13.4285 27.0494 13.1024 26.7837 12.8805 26.5619L12.5337 26.2285C12.4413 26.1364 12.3139 25.9973 12.1521 25.8119C11.9903 25.627 11.6597 25.2064 11.16 24.5494C10.6604 23.8923 10.17 23.1943 9.689 22.4537C9.20798 21.7136 8.64139 20.7373 7.98881 19.5254C7.33663 18.314 6.73313 17.0559 6.17789 15.7511C6.12232 15.6035 6.09434 15.4786 6.09434 15.3768C6.09434 15.2754 6.10813 15.2011 6.13611 15.1545L6.19168 15.0714C6.33039 14.8953 6.59402 14.8073 6.98256 14.8073L10.7849 14.7797C10.896 14.7984 11.0023 14.8284 11.1041 14.8702C11.2059 14.9116 11.2801 14.9509 11.3263 14.9878L11.3957 15.0296C11.5437 15.1318 11.6544 15.2794 11.7287 15.4737C11.9136 15.9369 12.1265 16.4155 12.3671 16.9103C12.6076 17.4051 12.7974 17.7823 12.9361 18.041L13.1579 18.4438C13.426 18.9986 13.6852 19.48 13.935 19.8868C14.1853 20.294 14.4092 20.6112 14.6083 20.8375C14.807 21.0642 14.9989 21.2427 15.1842 21.3716C15.3692 21.5014 15.5265 21.5663 15.6563 21.5663C15.7857 21.5663 15.9106 21.5432 16.0311 21.497C16.0493 21.4876 16.0724 21.4645 16.1004 21.4276C16.1284 21.3907 16.1836 21.2889 16.2671 21.1218C16.3503 20.9555 16.4127 20.7381 16.4545 20.4696C16.4963 20.202 16.5401 19.8272 16.5863 19.3462C16.6325 18.8648 16.6325 18.2868 16.5863 17.6115C16.5677 17.2412 16.5259 16.9038 16.4614 16.5984C16.3965 16.2934 16.3316 16.0804 16.2671 15.96L16.1836 15.7937C15.9524 15.4794 15.5594 15.2802 15.0041 15.1967C14.8837 15.1788 14.9068 15.0677 15.0735 14.8641C15.2309 14.6881 15.4065 14.5498 15.6007 14.4476C16.0911 14.2075 17.1967 14.0963 18.9176 14.1142C19.676 14.1239 20.3006 14.1835 20.791 14.2947C20.9759 14.3413 21.1308 14.4034 21.2558 14.482C21.3807 14.5603 21.4756 14.6719 21.5405 14.8146C21.605 14.9582 21.6536 15.1062 21.6861 15.2587C21.7185 15.4116 21.7348 15.6225 21.7348 15.8902C21.7348 16.1587 21.7303 16.4134 21.721 16.6535C21.7116 16.894 21.7003 17.2205 21.6865 17.6318C21.6727 18.0435 21.6654 18.4255 21.6654 18.7767C21.6654 18.879 21.6609 19.0728 21.6516 19.3596C21.6423 19.6467 21.6394 19.8686 21.6447 20.0255C21.6492 20.1829 21.6654 20.3707 21.693 20.5877C21.721 20.8051 21.7741 20.9859 21.8528 21.1287C21.9311 21.2723 22.0353 21.3854 22.1651 21.4686C22.2389 21.4876 22.3176 21.5059 22.4011 21.5246C22.4843 21.5428 22.6043 21.4925 22.7617 21.3716C22.9186 21.2516 23.0947 21.0918 23.2889 20.8931C23.4832 20.6947 23.7237 20.3849 24.0105 19.9635C24.2968 19.5433 24.6115 19.0456 24.9538 18.4717C25.5091 17.5097 26.0039 16.4686 26.4387 15.3492C26.4756 15.2563 26.5218 15.1756 26.5774 15.1062C26.6329 15.0365 26.6836 14.9878 26.7299 14.9602L26.7854 14.9185C26.8037 14.9091 26.8268 14.8978 26.8548 14.884C26.8828 14.8706 26.9428 14.8564 27.0353 14.8422C27.1278 14.8288 27.2202 14.8264 27.3131 14.8357L31.3097 14.8073C31.6703 14.7615 31.9663 14.7729 32.1975 14.8418C32.4287 14.9112 32.5723 14.9878 32.6278 15.071L32.7114 15.2097C32.9239 15.8022 32.2304 17.1613 30.6299 19.2894C30.4077 19.5859 30.1067 19.9793 29.7279 20.4692C29.0064 21.3948 28.5903 22.0007 28.48 22.2883C28.3218 22.6667 28.3867 23.0414 28.6734 23.4109Z" fill="white"/>
</g>
<defs>
<clipPath id="clip0">
<rect width="50" height="50" fill="white" transform="translate(0.000488281 0.767334)"/>
</clipPath>
</defs>
</svg>
