<svg width="41" height="41" viewBox="0 0 41 41" fill="none" xmlns="http://www.w3.org/2000/svg">
<path d="M19.5391 22.5886L23.2552 20.6172L19.5391 18.6858V22.5886Z" fill="#02014A"/>
<path d="M20.9004 8.83264C14.273 8.83264 8.90039 14.2053 8.90039 20.8326C8.90039 27.46 14.273 32.8326 20.9004 32.8326C27.5277 32.8326 32.9004 27.46 32.9004 20.8326C32.9004 14.2053 27.5277 8.83264 20.9004 8.83264ZM27.6005 23.6275C27.4406 24.6398 26.9513 25.1896 25.9221 25.3059C24.7721 25.4358 22.1862 25.4957 21.0369 25.4957C19.8477 25.4957 17.4424 25.4458 16.2417 25.3458C15.2097 25.2599 14.5054 24.6834 14.3636 23.6574C14.2604 22.9104 14.1937 22.0224 14.1937 20.6105C14.1937 19.0387 14.2504 18.3736 14.3835 17.6635C14.5736 16.6502 15.0574 16.1594 16.1617 16.0452C17.3205 15.9253 18.416 15.8654 20.8671 15.8654C22.0653 15.8654 24.6487 15.9275 25.8421 16.0353C26.8843 16.1294 27.4715 16.767 27.6003 17.7835C27.6901 18.4928 27.7701 19.5083 27.7701 20.6007C27.7704 22.5186 27.6005 23.6275 27.6005 23.6275Z" fill="#02014A"/>
</svg>
