<svg width="51" height="51" viewBox="0 0 51 51" fill="none" xmlns="http://www.w3.org/2000/svg">
<g clip-path="url(#clip0)">
<path d="M18.231 23.6939L24.4246 20.4083L18.231 17.1892V23.6939Z" fill="white"/>
<path d="M20.5005 0.767334C9.4549 0.767334 0.500488 9.72175 0.500488 20.7673C0.500488 31.8129 9.4549 40.7673 20.5005 40.7673C31.5461 40.7673 40.5005 31.8129 40.5005 20.7673C40.5005 9.72175 31.5461 0.767334 20.5005 0.767334ZM31.6673 25.4254C31.4009 27.1126 30.5853 28.0289 28.8701 28.2227C26.9533 28.4393 22.6436 28.5391 20.728 28.5391C18.7459 28.5391 14.7372 28.4559 12.736 28.2892C11.016 28.1461 9.84223 27.1852 9.60578 25.4753C9.43381 24.2302 9.32268 22.7502 9.32268 20.397C9.32268 17.7774 9.41718 16.6689 9.63903 15.4855C9.95579 13.7966 10.7621 12.9786 12.6026 12.7883C14.534 12.5884 16.3599 12.4886 20.4449 12.4886C22.442 12.4886 26.7477 12.592 28.7366 12.7717C30.4737 12.9287 31.4524 13.9913 31.6669 15.6854C31.8166 16.8677 31.95 18.5602 31.95 20.3808C31.9504 23.5772 31.6673 25.4254 31.6673 25.4254Z" fill="white"/>
</g>
<defs>
<clipPath id="clip0">
<rect width="50" height="50" fill="white" transform="translate(0.500488 0.767334)"/>
</clipPath>
</defs>
</svg>
