<svg width="320" height="155" viewBox="0 0 320 155" fill="none" xmlns="http://www.w3.org/2000/svg">
<rect x="-13" y="2.77228" width="341.789" height="151.286" fill="white"/>
<path d="M192 -18.5452L280.387 -69L367.687 67.5242L279.301 117.979L192 -18.5452Z" fill="#6E17F2" fill-opacity="0.7"/>
<path d="M237.37 14.9773L257.944 31.0537L232.606 39.4816L237.37 14.9773Z" fill="#FEC000"/>
<g clip-path="url(#clip0)">
<path d="M205.05 88.4619C204.971 89.0715 205.084 89.8904 205.32 90.2391L205.707 90.8732L244.067 95.1156L282.427 99.3579L282.965 98.826C283.284 98.5387 283.603 97.7675 283.682 97.158L283.829 96.0184L266.931 94.1496L250.064 92.2843L249.68 92.8332C249.296 93.3821 249.169 93.395 244.359 92.863C239.549 92.331 239.429 92.2908 239.196 91.6737L238.963 91.0566L222.096 89.1912L205.198 87.3224L205.05 88.4619Z" fill="#02014A"/>
<rect x="1.29164" y="1.65952" width="61.1516" height="34.6973" rx="1.5" transform="matrix(0.993273 0.115056 -0.132181 0.991289 217.548 47.0064)" stroke="#02014A" stroke-width="3"/>
</g>
<path d="M296.847 40.3043L295.538 54.772L282.381 45.9721L296.847 40.3043Z" fill="#FEC000"/>
<defs>
<clipPath id="clip0">
<rect width="79.4213" height="68.4096" fill="white" transform="matrix(0.99394 0.109922 -0.128463 0.991714 211.583 38.0304)"/>
</clipPath>
</defs>
</svg>
