<svg width="611" height="575" viewBox="0 0 611 575" fill="none" xmlns="http://www.w3.org/2000/svg">
<path d="M-34 10.7937L495.863 178.093L599.516 532.807L102.391 456.762L-34 10.7937Z" fill="#6E17F2" fill-opacity="0.7"/>
<g clip-path="url(#clip0)">
<path d="M407.429 114.104L163.995 142.412C142.182 144.949 126.497 164.762 129.034 186.574L148.516 354.113C151.052 375.923 170.861 391.604 192.677 389.067L279.167 379.01L286.957 445.993L219.919 453.789C216.94 454.136 214.809 456.827 215.155 459.806C215.502 462.785 218.193 464.916 221.172 464.57L293.601 456.147L353.272 449.208L425.7 440.786C428.679 440.439 430.81 437.748 430.463 434.769C430.117 431.79 427.425 429.659 424.446 430.005L357.408 437.801L349.619 370.817L436.109 360.759C457.914 358.224 473.592 338.415 471.056 316.606L451.573 149.067C449.041 127.254 429.235 111.568 407.429 114.104ZM165.248 153.193L408.683 124.885C424.545 123.04 438.951 134.451 440.796 150.32L455.569 277.353L154.59 312.353L139.818 185.32C137.972 169.448 149.379 155.039 165.248 153.193ZM346.631 439.054L297.741 444.739L289.951 377.755L338.842 372.07L346.631 439.054ZM434.859 349.978L342.978 360.663L283.307 367.602L191.427 378.286C175.558 380.131 161.145 368.725 159.3 352.859L155.844 323.137L456.823 288.137L460.279 317.859C462.124 333.725 450.721 348.134 434.859 349.978Z" fill="#02014A"/>
<path d="M307.524 315.821C296.394 317.115 288.395 327.216 289.687 338.335C290.98 349.453 301.085 357.449 312.214 356.155C323.336 354.861 331.329 344.761 330.036 333.643C328.743 322.524 318.646 314.527 307.524 315.821ZM310.96 345.374C305.778 345.977 301.07 342.256 300.468 337.081C299.866 331.906 303.592 327.204 308.777 326.601C313.952 326 318.654 329.721 319.255 334.896C319.857 340.071 316.135 344.772 310.96 345.374Z" fill="#02014A"/>
<path d="M377.233 166.348L313.002 167.21C307.975 167.277 303.94 171.422 304.007 176.45L304.11 184.112L232.173 185.077C225.716 185.163 220.533 190.487 220.62 196.945L221.345 251.013C221.432 257.468 226.755 262.649 233.212 262.562L244.459 262.412L244.763 285.085C244.777 286.131 245.406 287.067 246.367 287.479C246.712 287.626 247.076 287.695 247.437 287.69C248.081 287.681 248.715 287.437 249.203 286.98L275.98 261.989L323.15 261.356C329.606 261.27 334.788 255.948 334.702 249.493L334.357 223.781L347.156 223.61L366.531 240.742C367.033 241.186 367.672 241.413 368.316 241.405C368.677 241.4 369.04 241.321 369.381 241.165C370.331 240.73 370.934 239.775 370.92 238.729L370.713 223.294L377.994 223.196C383.018 223.129 387.051 218.982 386.984 213.955L386.466 175.344C386.4 170.316 382.259 166.281 377.233 166.348ZM329.424 249.562C329.471 253.106 326.626 256.027 323.081 256.075L274.89 256.721C274.233 256.73 273.605 256.983 273.123 257.431L249.961 279.049L249.701 259.699C249.682 258.24 248.485 257.075 247.026 257.095L233.139 257.281C229.593 257.329 226.67 254.485 226.623 250.94L225.898 196.873C225.85 193.327 228.696 190.402 232.242 190.354L306.794 189.355C306.803 189.354 306.812 189.356 306.82 189.356C306.829 189.356 306.838 189.354 306.847 189.354L322.184 189.148C325.73 189.101 328.651 191.948 328.699 195.494L329.424 249.562ZM381.706 214.025C381.735 216.142 380.038 217.888 377.925 217.917L368.005 218.05C366.547 218.069 365.381 219.266 365.4 220.725L365.563 232.836L349.891 218.979C349.399 218.546 348.762 218.308 348.106 218.317L334.286 218.502L333.977 195.425C333.89 188.968 328.566 183.784 322.111 183.87L309.389 184.041L309.287 176.379C309.258 174.262 310.958 172.517 313.073 172.489L377.304 171.628C379.418 171.599 381.16 173.297 381.188 175.414L381.706 214.025Z" fill="#02014A"/>
</g>
<path d="M22.9314 306.737L90.9164 327.627L40.8058 368.973L22.9314 306.737Z" fill="#FEC000"/>
<path d="M386.947 470.99L433.684 548.998H340.21L386.947 470.99Z" fill="#FEC000"/>
<path d="M84.7285 0L144.212 83.895H25.2447L84.7285 0Z" fill="#FEC000"/>
<path d="M584.746 297.282L592.029 364.206L547.45 353.326L584.746 297.282Z" fill="#FEC000"/>
<defs>
<clipPath id="clip0">
<rect width="363.055" height="363.055" fill="white" transform="translate(103.995 131.685) rotate(-6.63297)"/>
</clipPath>
</defs>
</svg>
