<svg width="50" height="50" viewBox="0 0 50 50" fill="none" xmlns="http://www.w3.org/2000/svg">
<path d="M39.4014 21.4464H14.7131V14.7133C14.7131 9.07535 19.2997 4.48881 24.9376 4.48881C30.5755 4.48881 35.162 9.07535 35.162 14.7133C35.162 15.1262 35.4972 15.4614 35.9101 15.4614C36.3231 15.4614 36.6583 15.1262 36.6583 14.7133C36.6583 8.25041 31.4004 2.99255 24.9376 2.99255C18.4747 2.99255 13.2169 8.25041 13.2169 14.7133V21.4464H10.4737C10.0607 21.4464 9.72559 21.7816 9.72559 22.1945V46.1347C9.72559 46.5477 10.0607 46.8828 10.4737 46.8828H39.4014C39.8144 46.8828 40.1495 46.5477 40.1495 46.1347V22.1945C40.1495 21.7816 39.8144 21.4464 39.4014 21.4464ZM38.6533 45.3866H11.2218V22.9427H38.6533V45.3866Z" fill="#02014A"/>
</svg>
