<svg width="47" height="47" viewBox="0 0 47 47" fill="none" xmlns="http://www.w3.org/2000/svg">
<path d="M24.233 12.218C17.9517 12.218 12.8413 17.5665 12.8413 24.1411C12.8413 27.926 14.5534 31.4592 17.4421 33.7054V41.7588C17.4421 42.166 17.7575 42.4965 18.1472 42.4965H19.2801C19.6243 45.0377 21.711 47.0001 24.233 47.0001C26.756 47.0001 28.8442 45.0377 29.1887 42.4965H30.1872C30.5764 42.4965 30.8923 42.166 30.8923 41.7588V33.8086C33.8614 31.565 35.628 27.9787 35.628 24.1411C35.628 17.5665 30.5163 12.218 24.233 12.218ZM24.233 45.5251C22.4904 45.5251 21.0336 44.2213 20.7055 42.497H27.7639C27.4348 44.2208 25.9771 45.5251 24.233 45.5251ZM29.4821 41.0211H18.8524V34.0629H29.4821V41.0211ZM26.2685 24.7902V32.5875H22.0626V24.7902H26.2685ZM30.1007 32.5875H27.6788V24.7902H29.9047C30.2939 24.7902 30.6098 24.4597 30.6098 24.0525C30.6098 23.6448 30.2939 23.3148 29.9047 23.3148H18.4293C18.0396 23.3148 17.7241 23.6448 17.7241 24.0525C17.7241 24.4597 18.0396 24.7902 18.4293 24.7902H20.6519V32.5875H18.3691C15.786 30.6227 14.2511 27.4947 14.2511 24.1411C14.2511 18.3804 18.7287 13.6935 24.2326 13.6935C29.7378 13.6935 34.2173 18.3799 34.2173 24.1411C34.2178 27.4893 32.6829 30.6192 30.1007 32.5875Z" fill="#02014A"/>
<path d="M24.1656 9.73926C24.5548 9.73926 24.8707 9.40925 24.8707 9.00154V1.56188C24.8707 1.15416 24.5548 0.824158 24.1656 0.824158C23.7759 0.824158 23.4604 1.15416 23.4604 1.56188V9.00154C23.4604 9.40925 23.7759 9.73926 24.1656 9.73926Z" fill="#02014A"/>
<path d="M8.63603 23.3148H1.52496C1.13526 23.3148 0.819824 23.6448 0.819824 24.0525C0.819824 24.4598 1.13526 24.7903 1.52496 24.7903H8.63603C9.02574 24.7903 9.34117 24.4598 9.34117 24.0525C9.34117 23.6453 9.02574 23.3148 8.63603 23.3148Z" fill="#02014A"/>
<path d="M46.183 23.3148H39.0753C38.686 23.3148 38.3701 23.6448 38.3701 24.0525C38.3701 24.4598 38.686 24.7903 39.0753 24.7903H46.183C46.5723 24.7903 46.8882 24.4598 46.8882 24.0525C46.8882 23.6453 46.5723 23.3148 46.183 23.3148Z" fill="#02014A"/>
<path d="M12.9416 13.5111C13.0751 13.6336 13.2405 13.6931 13.4051 13.6931C13.6016 13.6931 13.7971 13.6075 13.9363 13.4403C14.1925 13.1334 14.1619 12.6676 13.8686 12.3996L8.51282 7.50802C8.21996 7.23998 7.77384 7.27195 7.51811 7.57884C7.26191 7.88573 7.29247 8.35148 7.58581 8.61952L12.9416 13.5111Z" fill="#02014A"/>
<path d="M33.7166 13.693C33.8811 13.693 34.0461 13.633 34.1796 13.511L39.5382 8.61942C39.8315 8.35138 39.8616 7.88563 39.6059 7.57825C39.3506 7.27136 38.9045 7.2389 38.6112 7.50743L33.2526 12.399C32.9593 12.667 32.9292 13.1328 33.1849 13.4402C33.3241 13.6079 33.5196 13.693 33.7166 13.693Z" fill="#02014A"/>
</svg>
