<svg width="50" height="50" viewBox="0 0 50 50" fill="none" xmlns="http://www.w3.org/2000/svg">
<path d="M34.5117 4.2829H13.944C11.3045 4.2829 9.11328 6.42433 9.11328 9.06377V42.0319C9.11328 44.6713 11.2547 46.8128 13.944 46.8128H34.5117C37.1511 46.8128 39.3424 44.6713 39.3424 42.0319V9.06377C39.3424 6.42433 37.2009 4.2829 34.5117 4.2829ZM37.8483 42.0319C37.8483 43.8745 36.3543 45.3188 34.5117 45.3188H13.944C12.1013 45.3188 10.6073 43.8247 10.6073 42.0319V9.06377C10.6073 7.22114 12.1013 5.77692 13.944 5.77692H34.5117C36.3543 5.77692 37.8483 7.27095 37.8483 9.06377V42.0319Z" fill="#02014A"/>
<path d="M30.3286 9.01398H18.0278C17.6294 9.01398 17.2808 9.36258 17.2808 9.76099C17.2808 10.1594 17.6294 10.508 18.0278 10.508H30.3286C30.727 10.508 31.0756 10.1594 31.0756 9.76099C31.0756 9.36258 30.727 9.01398 30.3286 9.01398Z" fill="#02014A"/>
<path d="M24.2029 37.5498C22.8085 37.5498 21.7129 38.6952 21.7129 40.0398C21.7129 40.6873 21.9619 41.3347 22.4599 41.7829C22.9081 42.2311 23.5555 42.4801 24.2029 42.4801C25.5974 42.4801 26.693 41.3347 26.693 39.99C26.693 38.6454 25.5974 37.5498 24.2029 37.5498ZM24.2527 41.0359C24.0037 41.0359 23.7547 40.9363 23.5555 40.7371C23.3563 40.5379 23.2567 40.2889 23.2567 40.0398C23.2567 39.492 23.7049 39.0438 24.2527 39.0438C24.8005 39.0438 25.2487 39.492 25.2487 40.0398C25.2487 40.5877 24.8005 41.0359 24.2527 41.0359Z" fill="#02014A"/>
</svg>
