<svg width="172" height="94" viewBox="0 0 172 94" fill="none" xmlns="http://www.w3.org/2000/svg">
<path d="M30.1723 79.7559C28.9797 79.7598 27.8104 79.4135 26.8 78.7572H26.799L7.6987 67.3267C6.52645 66.6261 5.44878 65.768 4.49389 64.7746C3.55485 63.7981 2.74264 62.6992 2.07754 61.5055C1.41116 60.312 0.897568 59.0339 0.549652 57.7031C0.196064 56.3505 0.0163338 54.9555 0.015342 53.5542L2.99305e-06 28.4718C-0.000842253 27.0681 0.177341 25.6705 0.529801 24.3152C0.877963 22.9826 1.39184 21.7027 2.05859 20.5074C2.72504 19.3111 3.53884 18.2097 4.4796 17.2309C5.43678 16.2366 6.51664 15.3775 7.69103 14.6761L28.6214 2.17072C29.7951 1.4684 31.0534 0.930063 32.3634 0.569736C33.6516 0.215669 34.9785 0.0361622 36.3113 0.0357056C37.6462 0.036059 38.9753 0.216109 40.2654 0.571332C41.577 0.93315 42.8368 1.47263 44.0122 2.17582L64.9929 14.7316C66.1649 15.4322 67.2425 16.2899 68.1978 17.2826C69.1364 18.2601 69.949 19.3592 70.6155 20.5525C71.2811 21.7461 71.7941 23.0241 72.1419 24.3546C72.496 25.7069 72.6757 27.1018 72.6761 28.503L72.6723 35.273C72.6737 36.0394 72.5258 36.7982 72.2375 37.504C71.9598 38.1849 71.5566 38.8033 71.0506 39.3245C70.5463 39.8482 69.9488 40.2656 69.2911 40.5537C68.6088 40.8517 67.8756 41.0044 67.1352 41.0027H60.9808C60.9784 39.4027 60.8301 37.8065 60.5378 36.2355C60.2397 34.6358 59.7925 33.0698 59.2025 31.5595C58.6017 30.0236 57.8554 28.5532 56.9746 27.1697C56.0658 25.7448 55.0203 24.4186 53.8542 23.2114C52.69 22.0042 51.4112 20.9218 50.0373 19.9805C48.7037 19.0687 47.2864 18.2959 45.8058 17.6733C44.3496 17.0618 42.8395 16.5981 41.2969 16.2886C39.7656 15.9821 38.2097 15.8279 36.6501 15.8279C35.0904 15.8282 33.5343 15.9828 32.0029 16.2895C30.4604 16.599 28.9505 17.0627 27.4945 17.6742C26.0138 18.2968 24.5963 19.0697 23.2626 19.9815C21.8888 20.923 20.6101 22.0054 19.4457 23.2123C18.2808 24.4185 17.2363 25.7433 16.3281 27.1667C15.4477 28.5483 14.7018 30.0169 14.1012 31.5511C13.5113 33.0598 13.0637 34.6241 12.7651 36.2222C12.4688 37.809 12.3196 39.4213 12.3194 41.0375C12.3196 42.6534 12.4687 44.2656 12.7649 45.8522C13.0635 47.4503 13.511 49.0147 14.1011 50.5234C14.7017 52.0576 15.4476 53.5263 16.328 54.9081C17.2362 56.3312 18.2807 57.6559 19.4454 58.8621C19.5805 59.0027 19.7411 59.1141 19.918 59.1901C20.095 59.266 20.2846 59.3049 20.4761 59.3046C20.6675 59.305 20.857 59.2661 21.0337 59.1902C21.2105 59.1142 21.371 59.0027 21.5059 58.8621C21.6418 58.7224 21.7495 58.5562 21.8228 58.373C21.8961 58.1899 21.9335 57.9934 21.9329 57.7952C21.9334 57.5969 21.8959 57.4004 21.8226 57.2172C21.7493 57.034 21.6417 56.8677 21.5059 56.7279C13.156 48.0756 13.156 33.9981 21.5059 25.3464C23.4898 23.2795 25.8499 21.6409 28.4494 20.5254C31.0489 19.4098 33.8363 18.8395 36.6501 18.8476C39.4639 18.8397 42.2513 19.41 44.8509 20.5256C47.4505 21.6412 49.8105 23.2798 51.7945 25.3467C53.7856 27.3987 55.3649 29.8386 56.4413 32.5258C57.5178 35.2129 58.0702 38.0942 58.0667 41.0035H55.547C55.5461 38.8307 55.1968 36.6732 54.5131 34.619C53.8128 32.5103 52.77 30.541 51.4297 28.7959C50.5315 27.6246 49.5072 26.5634 48.3766 25.6328C47.2667 24.7198 46.0614 23.9386 44.7832 23.304C43.5122 22.673 42.1771 22.1906 40.8029 21.8659C39.4208 21.539 38.0076 21.3738 36.5899 21.3735C35.1854 21.3739 33.7853 21.5359 32.4153 21.8563C32.0386 21.945 31.7113 22.1847 31.505 22.523C31.2988 22.8613 31.2306 23.2705 31.3152 23.6609C31.389 23.9979 31.5716 24.2987 31.833 24.5134C32.0901 24.7236 32.4079 24.8384 32.7355 24.8393C32.8436 24.8391 32.9514 24.8265 33.0568 24.8018C34.2207 24.5294 35.4102 24.3915 36.6035 24.3906C44.0266 24.3906 50.6024 29.8442 52.239 37.3586C52.5002 38.5548 52.6335 39.7771 52.6365 41.0035H49.7547C49.7534 40.1471 49.6749 39.2926 49.52 38.4514C49.3601 37.5868 49.1195 36.7404 48.8016 35.9241C48.1434 34.2337 47.1613 32.699 45.9146 31.4126C44.6772 30.1256 43.2017 29.1104 41.5766 28.4281C40.7918 28.099 39.9782 27.8491 39.147 27.6819C38.3218 27.5169 37.4833 27.4338 36.6429 27.4335C35.8024 27.4338 34.9639 27.5169 34.1387 27.6819C33.3076 27.8492 32.494 28.0991 31.7092 28.4281C30.0845 29.1103 28.6094 30.1253 27.3724 31.4121C26.13 32.6939 25.1502 34.2223 24.4918 35.9056C24.1738 36.7188 23.9326 37.5619 23.7714 38.4231C23.6121 39.278 23.5317 40.1467 23.5316 41.0174C23.5316 41.888 23.612 42.7567 23.7714 43.6116C23.9323 44.4728 24.1735 45.3158 24.4918 46.1286C25.1501 47.812 26.1295 49.3405 27.3715 50.6226C27.5064 50.7634 27.6669 50.875 27.8438 50.951C28.0207 51.027 28.2102 51.0659 28.4017 51.0654C28.5931 51.0658 28.7829 51.0269 28.9597 50.9509C29.1364 50.8749 29.2969 50.7633 29.4317 50.6226C29.7044 50.3392 29.8576 49.9554 29.8576 49.5552C29.8576 49.1551 29.7044 48.7713 29.4317 48.4879C27.5221 46.5049 26.4498 43.8184 26.4498 41.0175C26.4498 38.2167 27.5221 35.5301 29.4317 33.5471C30.3762 32.563 31.4999 31.7828 32.7376 31.2516C33.9752 30.7205 35.3024 30.4489 36.6421 30.4527C37.9818 30.4489 39.3088 30.7205 40.5465 31.2516C41.7842 31.7828 42.908 32.563 43.8525 33.5471C44.801 34.524 45.5532 35.6858 46.066 36.9655C46.5787 38.2452 46.8418 39.6173 46.8399 41.0028H43.0006C42.9981 40.131 42.8278 39.2685 42.4998 38.4656C42.1801 37.6808 41.7162 36.9678 41.134 36.3663C40.5535 35.7632 39.8654 35.2826 39.1079 34.9513C38.3231 34.6068 37.479 34.4302 36.6266 34.4321C35.7741 34.4302 34.9301 34.6068 34.1451 34.9513C33.3875 35.2826 32.6993 35.7631 32.1186 36.3663C31.5366 36.968 31.0728 37.6809 30.7528 38.4656C30.4204 39.2787 30.2499 40.153 30.2516 41.036C30.2491 42.7185 30.8692 44.338 31.9841 45.5614C33.0887 46.7817 34.6008 47.5199 36.2125 47.6256H36.2846V57.6409H36.2125C32.634 57.5592 29.1852 56.238 26.4165 53.8883C23.6479 51.5386 21.719 48.2959 20.9378 44.6777C20.8642 44.3411 20.6817 44.0407 20.4205 43.8264C20.1636 43.6158 19.8457 43.5008 19.518 43.5001C19.4096 43.5004 19.3016 43.513 19.1958 43.5376C19.009 43.5808 18.8322 43.6619 18.6759 43.7762C18.5196 43.8906 18.3868 44.0359 18.285 44.2038C18.1824 44.3713 18.1129 44.5582 18.0804 44.7537C18.0479 44.9493 18.053 45.1495 18.0957 45.3429C18.5642 47.5007 19.3819 49.5609 20.5142 51.4361C21.616 53.2611 23.0005 54.8857 24.6121 56.2446C26.2213 57.6048 28.0356 58.6815 29.9823 59.4316C31.9779 60.2009 34.0848 60.6151 36.2138 60.6567H36.286V63.2136H36.2138C32.1246 63.1332 28.1439 61.8376 24.745 59.4812C24.5061 59.3155 24.225 59.2271 23.9375 59.2271C23.6975 59.2267 23.4611 59.2879 23.2495 59.4051C23.0378 59.5223 22.8575 59.6919 22.7245 59.8988C22.6179 60.0633 22.5438 60.2481 22.5066 60.4425C22.4693 60.6369 22.4696 60.837 22.5073 61.0313C22.5443 61.2258 22.6181 61.4109 22.7245 61.5758C22.8309 61.7406 22.9676 61.882 23.1271 61.9918C25.0574 63.3283 27.163 64.371 29.3792 65.0882C31.5932 65.8056 33.8949 66.1909 36.2144 66.2323H36.2866V73.0853L36.2582 73.1023C36.2793 73.3083 36.2899 73.5153 36.2901 73.7225C36.2912 74.5315 36.1274 75.3318 35.8094 76.0708C35.4987 76.7932 35.0533 77.4449 34.4987 77.9885C33.9357 78.5434 33.2759 78.9822 32.5544 79.2815C31.7973 79.5969 30.9884 79.758 30.1723 79.7559ZM29.089 23.2989C28.8851 23.2988 28.6834 23.3433 28.4972 23.4296C26.8658 24.18 25.3518 25.1786 24.0051 26.3923C22.6864 27.5809 21.5422 28.9626 20.6087 30.4935C19.6749 32.0244 18.9618 33.6883 18.4918 35.4325C18.0122 37.2138 17.792 39.0593 17.8384 40.9079C17.8466 41.3015 18.0042 41.6759 18.2771 41.95C18.5485 42.2259 18.9138 42.3801 19.2941 42.3792H19.3317C19.5231 42.3749 19.7117 42.3312 19.8866 42.2507C20.0616 42.1702 20.2194 42.0545 20.3508 41.9103C20.483 41.7668 20.5863 41.5977 20.6551 41.4126C20.7238 41.2276 20.7565 41.0302 20.7512 40.832C20.6689 37.749 21.4741 34.7103 23.0643 32.1027C24.6546 29.4951 26.9579 27.4366 29.681 26.1892C30.0338 26.0258 30.3097 25.7242 30.4483 25.3505C30.5868 24.9767 30.5767 24.5614 30.4202 24.1954C30.3055 23.9288 30.1188 23.7023 29.8826 23.5432C29.6463 23.3842 29.3709 23.2993 29.0891 23.2989H29.089Z" fill="#6E17F2"/>
<path d="M49.5815 64.2189V74.2385H43.7222V45.801H54.8159C56.9513 45.801 58.8263 46.1916 60.4409 46.9728C62.0685 47.7541 63.3185 48.8674 64.1909 50.3127C65.0633 51.745 65.4995 53.3791 65.4995 55.215C65.4995 58.0015 64.5425 60.202 62.6284 61.8166C60.7274 63.4182 58.0907 64.2189 54.7183 64.2189H49.5815ZM49.5815 59.4728H54.8159C56.3654 59.4728 57.5438 59.1083 58.3511 58.3791C59.1714 57.6499 59.5815 56.6083 59.5815 55.2541C59.5815 53.8609 59.1714 52.7346 58.3511 51.8752C57.5308 51.0158 56.3979 50.5731 54.9526 50.5471H49.5815V59.4728ZM78.8198 62.6174H75.4409V74.2385H69.5815V45.801H75.4409V57.1877H78.1167L85.0698 45.801H92.2183L83.4487 59.258L93.1362 74.2385H86.144L78.8198 62.6174ZM117.101 64.7658C116.88 67.8257 115.747 70.2346 113.703 71.9924C111.671 73.7502 108.989 74.6291 105.656 74.6291C102.01 74.6291 99.1388 73.4051 97.0425 70.9572C94.9591 68.4963 93.9175 65.1239 93.9175 60.84V59.1017C93.9175 56.3674 94.3993 53.9585 95.3628 51.8752C96.3263 49.7918 97.7 48.1968 99.4839 47.09C101.281 45.9702 103.364 45.4103 105.734 45.4103C109.015 45.4103 111.658 46.2892 113.664 48.0471C115.669 49.8049 116.828 52.2723 117.14 55.4494H111.281C111.138 53.6135 110.623 52.2853 109.738 51.465C108.865 50.6317 107.531 50.215 105.734 50.215C103.781 50.215 102.316 50.9182 101.339 52.3244C100.376 53.7176 99.881 55.8856 99.855 58.8283V60.9767C99.855 64.0497 100.317 66.2958 101.242 67.715C102.179 69.1343 103.651 69.8439 105.656 69.8439C107.466 69.8439 108.813 69.4338 109.699 68.6135C110.597 67.7801 111.111 66.4976 111.242 64.7658H117.101ZM138 45.801H143.878V74.2385H138V55.3517L126.613 74.2385H120.753V45.801H126.613V64.7267L138 45.801Z" fill="#02014A"/>
</svg>
