<svg width="1440" height="654" viewBox="0 0 1440 654" fill="none" xmlns="http://www.w3.org/2000/svg">
<rect y="-20.9445" width="1524.86" height="674.944" fill="white"/>
<path d="M990.504 -32.28L1451.75 -185L1707 473.169L1245.76 625.889L990.504 -32.28Z" fill="#6E17F2" fill-opacity="0.7"/>
<path d="M1245.88 485.735L1357.56 568.151L1216.67 615.016L1245.88 485.735Z" fill="#FEC000"/>
<path d="M1117 33.5069L1208.78 105.23L1095.74 142.83L1117 33.5069Z" fill="#FEC000"/>
<g clip-path="url(#clip0)">
<path d="M972.807 361.351C972.455 364.07 972.958 367.723 974.013 369.279L975.739 372.108L1146.88 391.035L1318.02 409.962L1320.42 407.589C1321.84 406.307 1323.26 402.866 1323.61 400.147L1324.27 395.063L1248.88 386.726L1173.63 378.404L1171.92 380.852C1170.21 383.301 1169.64 383.359 1148.18 380.985C1126.72 378.612 1126.18 378.433 1125.14 375.68L1124.11 372.926L1048.85 364.604L973.466 356.267L972.807 361.351Z" fill="#02014A"/>
<rect x="4.30546" y="5.53173" width="276.205" height="158.182" rx="10" transform="matrix(0.993273 0.115056 -0.132181 0.991289 1028.31 176.553)" stroke="#02014A" stroke-width="10"/>
</g>
<path d="M1382.35 146.5L1376.51 211.047L1317.81 171.787L1382.35 146.5Z" fill="#FEC000"/>
<defs>
<clipPath id="clip0">
<rect width="354.329" height="305.202" fill="white" transform="matrix(0.99394 0.109922 -0.128463 0.991714 1001.95 136.356)"/>
</clipPath>
</defs>
</svg>
